<?xml version="1.0" standalone="no"?>
<!DOCTYPE svg PUBLIC "-//W3C//DTD SVG 20010904//EN"
 "http://www.w3.org/TR/2001/REC-SVG-20010904/DTD/svg10.dtd">
<svg version="1.0" xmlns="http://www.w3.org/2000/svg"
 width="1432.000000pt" height="1432.000000pt" viewBox="0 0 1432.000000 1432.000000"
 preserveAspectRatio="xMidYMid meet">
<metadata>
Created by potrace 1.14, written by Peter Selinger 2001-2017
</metadata>
<g transform="translate(0.000000,1432.000000) scale(0.100000,-0.100000)"
fill="#000000" stroke="none">
<path d="M2763 14291 c-18 -16 -35 -40 -38 -53 -7 -31 1 -9003 8 -9048 4 -19
9 -62 12 -95 7 -71 13 -120 15 -120 1 0 3 -13 5 -30 8 -73 15 -132 20 -155 2
-14 7 -38 10 -55 3 -16 8 -48 11 -70 2 -22 7 -47 10 -55 3 -8 8 -31 10 -50 3
-19 9 -51 14 -70 5 -19 11 -48 14 -65 8 -45 37 -178 44 -195 3 -8 6 -24 8 -35
2 -11 8 -36 14 -55 23 -76 71 -246 76 -269 3 -13 10 -34 16 -45 6 -12 11 -22
10 -24 -3 -3 10 -56 17 -67 3 -5 6 -12 6 -15 2 -12 60 -180 80 -230 37 -92 38
-95 41 -108 1 -8 13 -37 27 -65 13 -29 28 -63 32 -77 4 -14 43 -99 86 -189 44
-90 79 -166 79 -168 0 -3 9 -18 21 -34 11 -16 17 -29 13 -29 -4 0 0 -8 8 -17
9 -10 25 -36 35 -58 38 -77 67 -125 75 -125 4 0 8 -9 8 -20 0 -11 4 -20 8 -20
5 0 14 -12 21 -27 14 -30 157 -246 221 -333 22 -30 48 -66 57 -80 10 -14 23
-31 31 -38 7 -8 25 -30 40 -50 15 -21 32 -42 37 -48 6 -6 30 -35 55 -64 140
-165 445 -470 471 -470 6 0 7 -4 4 -10 -3 -5 -2 -10 3 -10 4 0 17 -8 28 -18
31 -28 197 -165 229 -189 17 -12 70 -51 118 -87 48 -37 92 -66 97 -66 4 0 10
-4 12 -8 4 -12 185 -132 198 -132 5 0 10 -4 10 -10 0 -5 6 -10 14 -10 8 0 16
-3 18 -8 4 -9 176 -112 188 -112 5 0 10 -3 12 -7 3 -8 16 -16 173 -98 55 -28
109 -57 120 -63 24 -13 162 -77 225 -104 85 -38 95 -41 103 -40 4 1 7 -3 7 -8
0 -5 3 -9 8 -8 9 2 46 -12 122 -45 20 -9 69 -28 110 -42 41 -14 82 -29 90 -32
88 -34 170 -59 175 -55 3 3 5 -1 5 -8 0 -7 3 -11 6 -8 3 4 38 -5 77 -18 71
-24 110 -35 135 -36 6 -1 12 -5 12 -10 0 -5 4 -7 10 -3 5 3 26 -1 46 -10 20
-8 39 -13 41 -11 3 2 20 -2 39 -10 19 -8 34 -12 34 -9 0 2 11 0 25 -5 14 -5
36 -12 48 -14 12 -3 31 -7 42 -10 122 -28 214 -48 230 -50 22 -3 100 -16 128
-22 9 -2 26 -6 38 -9 12 -2 40 -7 63 -9 22 -3 52 -8 66 -11 14 -4 43 -7 66 -9
22 -1 45 -5 50 -8 5 -3 27 -5 49 -6 22 0 54 -3 70 -6 44 -8 126 -15 253 -21
l112 -6 1 38 c1 21 0 43 -1 48 -1 6 -2 15 -2 20 0 6 1 64 1 130 0 66 0 129 0
140 0 11 0 43 0 70 0 28 0 57 0 65 0 8 0 51 0 95 0 44 0 87 0 95 0 8 0 67 0
130 0 63 0 147 0 185 0 39 0 140 0 225 0 85 0 160 0 165 0 58 0 124 0 140 0
18 -1 314 0 340 0 63 0 123 0 135 -1 17 0 243 0 275 0 11 0 43 0 70 0 28 0 57
0 65 0 8 0 51 0 95 0 44 0 87 0 95 0 8 0 67 0 130 0 63 0 147 0 185 0 39 0
140 0 225 0 85 0 160 0 165 0 58 0 124 0 140 0 18 -1 314 0 340 0 63 0 123 0
135 -1 17 0 243 0 275 0 11 0 43 0 70 0 28 0 57 0 65 0 8 0 51 0 95 0 44 0 87
0 95 0 8 0 67 0 130 0 63 0 147 0 185 2 417 0 487 -13 520 -17 40 -44 56 -104
61 -25 3 -48 6 -51 8 -3 2 -15 0 -26 -4 -11 -4 -32 -4 -47 1 -15 4 -30 4 -33
-1 -3 -5 -18 -5 -33 -1 -15 5 -36 5 -47 1 -11 -4 -32 -4 -47 1 -16 4 -30 3
-34 -2 -3 -5 -10 -7 -15 -3 -9 5 -34 6 -156 3 -28 -1 -56 2 -62 6 -6 3 -11 1
-11 -5 0 -6 -5 -8 -11 -4 -11 6 -28 6 -153 3 -24 -1 -48 1 -54 5 -6 3 -13 2
-17 -4 -4 -6 -11 -8 -16 -4 -6 3 -33 6 -60 5 -27 -1 -71 -1 -98 -2 -27 -1 -54
2 -60 6 -6 3 -11 1 -11 -5 0 -6 -5 -8 -11 -4 -11 6 -28 6 -153 3 -24 -1 -48 1
-54 5 -6 3 -13 2 -17 -4 -4 -6 -11 -8 -16 -4 -10 6 -29 6 -161 3 -25 -1 -51 2
-57 6 -6 3 -11 1 -11 -5 0 -6 -5 -8 -11 -4 -13 8 -107 9 -115 1 -3 -3 -18 -1
-34 3 -16 4 -31 6 -34 3 -8 -8 -102 -7 -115 1 -6 4 -11 2 -11 -4 0 -6 -5 -8
-11 -4 -11 6 -28 6 -153 3 -24 -1 -48 1 -54 5 -6 3 -13 2 -17 -4 -4 -6 -11 -8
-16 -4 -10 6 -29 6 -161 3 -25 -1 -51 2 -57 6 -6 3 -11 1 -11 -5 0 -6 -5 -8
-11 -4 -11 6 -28 6 -153 3 -24 -1 -48 1 -54 5 -6 3 -13 2 -17 -4 -4 -6 -11 -8
-16 -4 -10 6 -29 6 -161 3 -25 -1 -51 2 -57 6 -6 3 -11 1 -11 -5 0 -6 -5 -8
-11 -4 -11 6 -69 7 -134 1 -16 -1 -42 1 -57 5 -15 3 -30 3 -33 -2 -3 -5 -18
-5 -33 -1 -15 5 -36 5 -47 1 -11 -4 -32 -4 -47 1 -15 4 -30 4 -33 -1 -3 -5
-18 -5 -33 -1 -15 5 -36 5 -47 1 -11 -4 -32 -4 -47 1 -15 4 -30 4 -33 -1 -3
-5 -18 -5 -33 -1 -15 5 -36 5 -47 1 -11 -4 -32 -4 -47 1 -15 4 -30 4 -33 -1
-3 -5 -18 -5 -33 -1 -15 5 -36 5 -47 1 -11 -4 -32 -4 -47 1 -15 4 -30 4 -33
-1 -3 -5 -18 -5 -33 -1 -15 5 -36 5 -47 1 -11 -4 -32 -4 -47 1 -15 4 -30 4
-33 -1 -3 -5 -18 -5 -33 -1 -15 5 -36 5 -47 1 -11 -4 -32 -4 -47 1 -15 4 -30
4 -33 -1 -3 -5 -18 -5 -33 -1 -15 5 -36 5 -47 1 -11 -4 -32 -4 -47 1 -15 4
-30 4 -33 -1 -3 -5 -18 -5 -33 -1 -15 4 -38 5 -52 1 -14 -4 -35 -3 -47 1 -13
5 -25 4 -28 -2 -4 -5 -11 -6 -17 -3 -14 9 -102 9 -116 0 -6 -3 -13 -2 -17 3
-3 6 -15 7 -28 2 -12 -5 -32 -5 -44 0 -15 5 -23 5 -23 -2 0 -6 -5 -7 -11 -3
-13 7 -164 8 -177 0 -4 -2 -14 -1 -21 4 -8 4 -25 4 -40 0 -14 -4 -35 -4 -46 0
-11 4 -30 4 -42 -1 -15 -5 -23 -5 -23 2 0 6 -4 8 -9 5 -5 -3 -39 -6 -77 -7
-92 -1 -104 0 -104 9 0 4 24 8 53 8 48 2 144 9 227 18 19 2 64 7 100 11 36 3
110 13 165 21 55 8 116 16 135 19 93 11 126 16 140 20 8 2 33 7 55 9 35 5 134
22 230 41 17 3 44 8 60 11 32 6 112 23 260 56 50 10 99 21 110 23 11 3 92 23
180 46 88 23 168 42 178 42 9 1 17 5 17 10 0 4 5 5 10 2 6 -3 16 -3 23 2 6 4
17 8 22 9 16 3 126 35 175 51 25 8 52 16 60 18 8 2 60 17 115 35 145 46 159
50 169 49 5 0 12 3 15 8 3 4 60 26 126 47 66 22 123 44 127 50 4 6 8 8 8 5 0
-6 149 45 205 70 11 5 67 28 125 51 112 45 127 51 233 99 38 17 70 31 72 31
23 0 684 330 719 359 7 6 16 8 19 4 4 -3 7 -1 7 5 0 7 4 12 9 12 12 0 225 123
229 132 2 5 8 8 14 8 6 0 30 14 55 30 24 17 46 30 49 30 17 0 589 386 649 437
6 5 28 22 50 38 75 55 180 140 183 148 2 4 8 7 13 7 5 0 17 8 27 18 10 9 33
28 52 42 18 14 46 37 62 53 16 15 31 27 33 27 5 0 36 26 94 80 15 14 56 50 91
80 184 158 559 534 700 700 12 14 34 39 48 55 15 17 43 50 62 75 19 24 42 52
50 61 8 8 24 26 35 40 33 40 267 354 305 409 19 28 40 57 45 64 18 21 35 51
41 68 3 9 12 19 20 22 8 3 14 12 14 21 0 8 5 15 10 15 6 0 10 7 10 15 0 8 4
15 9 15 5 0 11 8 15 18 3 9 15 31 26 47 11 17 27 45 37 63 9 17 20 32 25 32 4
0 8 5 8 11 0 6 8 23 19 37 24 35 158 269 201 352 19 36 42 77 53 93 10 15 15
27 10 27 -4 0 -3 4 2 8 6 4 36 61 68 127 66 135 69 142 85 170 13 22 52 108
113 250 22 50 44 99 49 110 5 11 21 49 35 85 15 36 32 79 40 95 13 30 133 352
162 435 8 25 19 54 24 65 23 55 135 424 191 630 30 111 35 130 42 163 2 10 16
63 30 118 30 117 48 197 82 359 14 66 27 127 29 135 5 23 34 181 40 220 14 87
45 270 55 325 6 33 11 67 11 75 0 8 7 65 15 125 8 61 16 133 19 160 2 28 7 73
10 100 3 28 8 77 10 110 3 33 7 89 10 125 3 36 8 111 10 168 l5 102 -4403 0
-4403 0 -31 -29z m197 -8846 c0 -7 -30 -13 -34 -7 -3 4 4 9 15 9 10 1 19 0 19
-2z"/>
</g>
</svg>
