<svg xmlns="http://www.w3.org/2000/svg" viewBox="0 0 768.92735 787.74194"><defs><style>.cls-1{fill:#17403e;}</style></defs><g id="Layer_2" data-name="Layer 2"><g id="Layer_1-2" data-name="Layer 1"><path class="cls-1" d="M221.43528,536.1166c-1.45868-1.59447-2.75441-2.99487-4.03281-4.41091a47.14569,47.14569,0,0,1-12.41993-27.96213,14.725,14.725,0,0,1,.47565-5.20645c1.19043-4.22253,4.963-5.82257,8.85694-3.82538a12.71716,12.71716,0,0,1,3.64571,2.67444c5.88606,6.56136,10.6139,13.79844,12.61462,22.54971a28.38512,28.38512,0,0,1,.23344,10.95641c-.07434.46116-.14031.92367-.22658,1.49433a23.392,23.392,0,0,0,9.67468,2.59152c6.361.53213,12.58733-.47674,18.8145-1.60777a86.09066,86.09066,0,0,1,11.36341-1.64284c8.58655-.39142,14.119,4.20678,15.60136,12.669.39782,2.27107.433,4.60574.634,6.91119a2.52129,2.52129,0,0,0,.55624,1.53316c.40549-.70734.84168-1.39906,1.21182-2.12444a216.02807,216.02807,0,0,0,12.03189-28.20087c5.63991-16.4744,11.28914-32.957,16.37076-49.608A425.96183,425.96183,0,0,0,329.38652,417.061a327.82218,327.82218,0,0,1,30.28727-94.58409c4.3409-8.67145,9.2-17.0458,15.84551-24.19847A93.00555,93.00555,0,0,1,423.926,270.22105a98.58115,98.58115,0,0,1,19.95507-2.43554,87.80974,87.80974,0,0,1,41.43375,9.39431A100.59625,100.59625,0,0,1,508.0642,292.198c3.17612,2.85308,5.685,6.47013,8.372,9.84,2.93935,3.68627,5.71229,7.50456,8.59833,11.234,5.59818,7.23431,13.11584,11.2226,21.952,13.09918,11.89933,2.52716,22.87989.2066,33.0391-6.19234,8.10459-5.10477,12.535-12.82119,14.60618-21.96546a22.76217,22.76217,0,0,0-.51928-10.22286,1.90729,1.90729,0,0,0-1.53662-1.60082c-17.81511-4.41317-33.16615-13.60786-47.54664-24.63826a409.73521,409.73521,0,0,1-36.09214-30.46208c-16.30829-15.79973-27.92088-34.64337-35.89265-55.80344-2.25085-5.97456-2.93841-12.123-1.06723-18.337a22.16268,22.16268,0,0,1,2.4493-5.42954,10.1783,10.1783,0,0,1,11.21633-4.59752,22.94893,22.94893,0,0,1,8.26755,3.68577,62.81643,62.81643,0,0,1,11.13772,10.16054,298.56557,298.56557,0,0,1,20.06858,25.39251c20.29194,28.0663,41.69336,55.26713,63.719,81.9841,2.89841,3.51579,5.9412,6.91233,8.87259,10.40152a5.56207,5.56207,0,0,0,3.81318,2.16941c4.12265.48491,8.21021,1.28633,12.33777,1.70673,8.8389.90033,17.33156-.94633,25.70988-3.54308a106.8609,106.8609,0,0,0,15.29252-6.24649c12.2885-6.01148,24.10858-12.87219,35.9058-19.77232,15.38537-8.99884,30.87611-17.82454,45.5878-27.92769,6.73484-4.62509,13.31786-9.4294,19.05726-15.27581a41.18614,41.18614,0,0,0,4.43135-5.33444,17.95748,17.95748,0,0,0,1.99094-4.30324c.7455-2.12017,2.1177-3.2101,4.04485-2.94159a3.594,3.594,0,0,1,3.04128,3.96756,9.62778,9.62778,0,0,1-.77491,3.22565,31.76783,31.76783,0,0,1-6.51,9.41638,115.05388,115.05388,0,0,1-18.4175,15.302c-10.89744,7.435-21.96522,14.60171-33.43061,21.14617-12.97965,7.40879-25.84659,15.017-38.88722,22.316-8.153,4.56337-16.44348,8.91845-25.29667,12.03754-7.55943,2.66325-15.27,4.81618-23.30644,5.24452-4.04919.21582-8.13306-.21372-12.20093-.35944-.4658-.01669-.92978-.08489-1.9964-.18655.92639,1.07265,1.51748,1.766,2.11818,2.45106,4.57889,5.22168,7.82365,11.11063,8.73949,18.07763a38.95683,38.95683,0,0,1-1.64692,17.53027c-2.52557,7.5743-5.33014,15.0569-8.08357,22.55367-4.65621,12.67757-9.33955,25.36059-12.3182,38.55329-2.00395,8.87621-3.46021,17.87726-5.10948,26.832-3.497,18.9873-9.26873,37.206-18.64319,54.14789-4.68046,8.45864-9.63548,16.77042-14.64268,25.04191a76.08439,76.08439,0,0,1-14.8105,18.14166,40.89532,40.89532,0,0,1-6.773,4.91407c-7.73638,4.34908-15.63706,8.38146-24.18941,10.94973a14.65253,14.65253,0,0,1-1.59878.50233,1.90019,1.90019,0,0,0-1.70134,2.20929,66.09728,66.09728,0,0,0,.52584,8.11519c1.21387,7.00144,2.60822,13.97336,4.03572,20.93557q3.29709,16.0807,6.75892,32.12738a51.08384,51.08384,0,0,0,2.07816,6.8664,5.5387,5.5387,0,0,0,1.82576,2.42157,33.41,33.41,0,0,1,10.32662,13.012,63.91714,63.91714,0,0,1,5.84736,21.88412c.33892,3.65544.48975,7.33722.52144,11.00876a33.76841,33.76841,0,0,1-.63391,5.94513A16.37772,16.37772,0,0,1,519.6976,666.1015a58.4014,58.4014,0,0,1-10.02812-3.88019,133.759,133.759,0,0,1-25.9785-16.67216c-1.28979-1.07323-2.65625-2.05417-3.973-3.09578a9.03408,9.03408,0,0,0-3.64569-1.59992,9.873,9.873,0,0,1-4.34893-2.31529,145.42241,145.42241,0,0,1-10.63654-11.042,133.16517,133.16517,0,0,1-8.23521-11.47929c-5.31274-7.90373-8.19714-16.7412-9.72953-26.07022a10.34342,10.34342,0,0,0-1.0319-3.45171c-.23958,2.28917-.4088,4.5883-.73288,6.86547-.76474,5.374-1.65706,10.7303-2.39649,16.10764a31.33035,31.33035,0,0,0,1.55385,15.53533,259.47674,259.47674,0,0,1,10.37213,34.88989c.796,3.65479.93985,7.44779,1.64745,11.12647a61.84823,61.84823,0,0,0,7.65525,21.04232,64.33877,64.33877,0,0,1,8.19114,20.62689c2.012,9.6661.84437,19.075-2.57966,28.26406a54.352,54.352,0,0,1-5.41428,10.92842,20.45316,20.45316,0,0,1-28.53471,5.64524c-.65631-.44429-1.31685-.88232-2.02342-1.35543-.87393.6916-.60585,1.6405-.70608,2.44664a45.46388,45.46388,0,0,1-4.27673,15.3959c-3.768,7.33-9.60964,12.10471-17.873,13.43157a20.381,20.381,0,0,1-16.08986-3.96124,66.68679,66.68679,0,0,1-8.615-7.94133c-4.798-5.251-9.30136-10.77-13.98285-16.129a116.24335,116.24335,0,0,0-22.60417-20.30821c-9.62821-6.463-15.99746-15.342-20.10274-25.90913-3.1508-8.11015-5.75841-16.43148-8.6007-24.66127q-3.63683-10.53036-7.26452-21.064a5.31964,5.31964,0,0,0-.4771-.786c-.8763.27728-1.77723.54736-2.66835.84678a50.492,50.492,0,0,1-17.85883,3.07241c-6.82224-.23295-13.53743-1.16089-19.91045-3.79346-9.55116-3.94548-16.15368-10.6314-18.35858-20.88983a38.61109,38.61109,0,0,1,2.53688-24.63421c3.292-7.18877,6.72781-14.32467,10.42687-21.311,5.47537-10.3413,10.38337-20.88421,13.44374-32.22225,1.5035-5.57023,2.89035-11.15165,2.61873-16.98276a35.50978,35.50978,0,0,0-.56953-5.23568c-.96841-4.8883-3.67849-7.03529-8.64566-6.613-3.17412.2699-6.307.99833-9.46839,1.45088-4.66181.66729-9.31627,1.474-14.00364,1.8529a37.653,37.653,0,0,1-17.64919-2.44763,6.70713,6.70713,0,0,0-.927-.23782c-.21041.16772-.46217.27354-.55961.45993-3.57533,6.83923-9.0134,11.958-15.17679,16.39353a108.05194,108.05194,0,0,1-18.34156,10.84421c-7.2684,3.30431-14.40023,6.93035-22.0715,9.29447-3.50646,1.08061-6.97312,2.30024-10.42061,3.55887a11.94921,11.94921,0,0,0-6.10739,5.14714A78.90135,78.90135,0,0,1,144.72363,598.668a374.378,374.378,0,0,1-27.849,26.03105,77.60354,77.60354,0,0,1-15.3883,9.67845,25.59445,25.59445,0,0,0-11.216,10.78817,77.13209,77.13209,0,0,1-26.57044,28.10764,146.11322,146.11322,0,0,1-19.859,10.60113,67.17277,67.17277,0,0,1-7.39681,2.77768A45.09074,45.09074,0,0,1,15.101,687.97074C8.22061,686.664,3.61762,682.30049.94079,675.90363a14.81344,14.81344,0,0,1-.47857-8.96033A34.05019,34.05019,0,0,1,5.332,655.798c3.11233-4.9345,6.30375-9.819,9.43346-14.74272a146.15782,146.15782,0,0,0,10.3917-19.705A86.32924,86.32924,0,0,1,38.91684,600.1137c6.83893-8.03068,13.337-16.35552,19.86558-24.6451,6.03349-7.66094,11.94224-15.42091,17.85045-23.17947A63.14513,63.14513,0,0,1,92.7324,537.37447q17.62221-11.392,35.12141-22.97339c3.85588-2.55937,7.56824-5.35719,11.191-8.24086q12.19743-9.70923,24.2284-19.6271A138.16052,138.16052,0,0,0,185.813,462.39371q7.83144-10.46255,15.33831-21.16688c7.11374-10.15279,15.73478-18.90936,24.78375-27.28959,2.99189-2.77077,6.02008-5.50227,9.014-8.2709a131.957,131.957,0,0,0,17.07848-20.05719,409.65944,409.65944,0,0,0,32.82535-53.21284c3.56269-6.97142,7.34231-13.84166,11.2718-20.61374,5.38405-9.27875,11.82242-17.85428,18.25627-26.42124a167.74528,167.74528,0,0,1,17.20723-19.0046c11.61763-11.35509,22.9066-23.05406,32.51173-36.17871,7.78494-10.63749,15.0615-21.65381,22.36573-32.63361,5.17848-7.78438,9.99151-15.81086,15.03081-23.68888A339.27209,339.27209,0,0,1,434.68556,129.869c4.95381-5.519,10.59666-10.4206,15.93663-15.59214q16.4549-15.936,32.91626-31.86532c7.28306-7.07392,14.72486-14.00142,21.70643-21.36329,5.49186-5.791,10.47165-12.07808,15.53268-18.26434A405.99737,405.99737,0,0,1,555.23138,5.10568c1.10088-1.04514,2.10687-2.19009,3.20248-3.24114a8.71407,8.71407,0,0,1,1.8797-1.462,3.547,3.547,0,0,1,4.19423.68468,3.477,3.477,0,0,1,.42655,4.21668,11.27053,11.27053,0,0,1-1.693,2.003c-5.02272,5.04034-10.18908,9.94441-15.06882,15.11892q-14.076,14.92647-26.749,31.07879c-7.79818,9.88884-16.71586,18.71082-25.76,27.4253-9.84517,9.48646-19.62677,19.039-29.4728,28.52463-4.72135,4.54851-9.44165,9.10434-14.313,13.48964-9.91207,8.92294-18.37811,19.0971-26.52722,29.60838-9.67115,12.47449-17.98843,25.83148-26.51863,39.069-8.13848,12.62959-16.56436,25.07607-24.98107,37.52386-7.73055,11.433-17.02485,21.58323-26.50768,31.553-4.40683,4.6331-8.93567,9.15595-13.53205,13.6018-7.27571,7.03745-13.362,15.04027-19.41537,23.10656-9.5955,12.78638-17.0764,26.81391-24.45467,40.90439a416.56708,416.56708,0,0,1-36.7484,57.80727c-6.10846,8.09075-13.33078,15.08088-20.84844,21.80747-10.22126,9.14585-19.60871,19.03435-27.40957,30.37535-3.75942,5.4655-7.68878,10.81613-11.61458,16.165a152.99026,152.99026,0,0,1-29.73838,31.094c-7.46723,5.76066-14.63067,11.91386-21.96976,17.84224-2.29826,1.85653-4.64368,3.6774-7.10738,5.30267-12.3444,8.14336-24.691,16.285-37.12845,24.28491a58.9288,58.9288,0,0,0-15.69028,14.62947C70.22189,573.111,58.43,588.35907,45.91755,603.01a100.82886,100.82886,0,0,0-15.9957,25.16488c-3.98824,9.10064-9.26892,17.50559-14.738,25.78364-1.49779,2.26709-3.03384,4.51544-4.39756,6.86235a32.2609,32.2609,0,0,0-2.57185,5.3942c-2.36084,6.6786,1.12725,13.23276,8.104,14.56558a45.0965,45.0965,0,0,0,10.72737.329,38.57791,38.57791,0,0,0,13.34787-3.61333,127.724,127.724,0,0,0,24.75714-14.06091A68.09024,68.09024,0,0,0,82.3767,644.29643c1.47816-2.35891,2.81881-4.81685,4.45165-7.06292a28.30465,28.30465,0,0,1,10.54454-8.87888,87.9066,87.9066,0,0,0,22.47532-15.7855c6.85187-6.59989,13.73329-13.16992,20.52561-19.83065a63.72006,63.72006,0,0,0,9.21088-11.63805,17.32279,17.32279,0,0,1,8.35674-7.26917c3.79121-1.48585,7.63474-2.84028,11.47158-4.20672,1.50148-.53471,3.09646-.82611,4.56447-1.4325,10.6392-4.39475,21.2871-8.79852,30.84-15.35409,3.157-2.16648,6.187-4.54033,9.122-7.00184A29.40676,29.40676,0,0,0,221.43528,536.1166ZM602.447,294.25054c-.15412,1.29529-.22517,2.07027-.3408,2.83852-1.691,11.23308-6.58044,20.78255-15.832,27.50908-12.61823,9.17442-26.69459,12.0638-42.042,8.57846a43.68464,43.68464,0,0,1-26.0266-16.77028c-2.35985-3.12617-4.81413-6.1878-7.04079-9.40653a59.63,59.63,0,0,0-17.60516-16.734c-2.0313-1.27333-4.05206-2.56865-6.133-3.75684-11.84488-6.76312-24.48636-10.91269-38.19651-11.44875a88.01765,88.01765,0,0,0-29.36166,3.71388c-17.04189,5.213-31.3834,14.54728-42.5,28.57982-5.08894,6.42383-8.95268,13.6181-12.52559,20.95582a322.187,322.187,0,0,0-28.36563,90.20509A437.006,437.006,0,0,1,324.94,470.91018c-4.16931,14.3369-8.96795,28.49438-13.64595,42.6792-7.03154,21.32124-15.61985,41.92939-28.3786,60.58241a15.63093,15.63093,0,0,0-1.55617,3.48279c-2.08706,5.6969-3.92252,11.48216-6.782,16.88175-3.70189,6.99031-7.21531,14.08006-10.85907,21.10152a82.81448,82.81448,0,0,0-5.95947,15.39321,26.18494,26.18494,0,0,0-.16662,13.74855c1.90688,7.657,6.904,12.68709,14.177,15.38706a47.24708,47.24708,0,0,0,30.11131,1.30325c7.82773-2.22686,14.609-5.96668,19.89224-12.24022,3.03412-3.60284,6.09818-7.18063,9.12378-10.79062a121.67834,121.67834,0,0,0,23.55691-44.61332,80.39265,80.39265,0,0,1,3.61509-11.13326A196.37938,196.37938,0,0,1,373.57519,554.055c3.98353-5.89284,8.05266-11.72782,12.06765-17.59946a27.34523,27.34523,0,0,0,3.23474-5.01391c4.80849-12.18189,11.44112-23.38747,18.24877-34.49941a106.96632,106.96632,0,0,1,11.46145-15.947,40.412,40.412,0,0,1,16.94712-11.33969,95.49094,95.49094,0,0,1,23.67368-4.70814c4.93413-.41776,9.861-.92325,14.78853-1.41568a9.70173,9.70173,0,0,0,6.068-2.93855,168.13013,168.13013,0,0,0,21.12371-25.41789,412.99617,412.99617,0,0,0,22.39863-36.59235c1.63216-3.02223,3.32074-6.023,5.16354-8.91914a26.00356,26.00356,0,0,1,3.89185-4.83577,7.48553,7.48553,0,0,1,9.88425-.65382,13.76282,13.76282,0,0,1,4.6544,5.68691A31.00186,31.00186,0,0,1,550.01,401.672c.275,6.00193-1.51244,11.5011-4.10689,16.81372a94.66751,94.66751,0,0,1-15.90482,22.41415c-11.70608,12.71579-25.31513,22.51528-42.36054,26.7273a26.70759,26.70759,0,0,0-11.53185,5.87966c-2.94125,2.56528-6.27684,4.67678-9.41913,7.01438a7.32468,7.32468,0,0,0-2.919,8.04738A8.33057,8.33057,0,0,0,468.5876,494.77a18.28484,18.28484,0,0,0,5.26242,1.43331c4.86486.50438,9.52061-.71695,14.12182-2.14376,3.66124-1.13548,7.2977-2.36284,10.99345-3.37253,4.78361-1.307,9.6244-2.44242,14.63893-2.217,5.69271.25591,10.86358,1.89506,14.87973,6.18236a9.67737,9.67737,0,0,1,.18481,13.64086,32.95227,32.95227,0,0,1-4.2009,3.545c-2.6955,2.13082-5.43059,4.21152-8.12966,6.33789-.60053.473-1.1201,1.04881-1.67686,1.57726a4.27887,4.27887,0,0,0,2.3916-.37566c3.982-1.85448,7.92892-3.7848,11.92088-5.61732a45.24938,45.24938,0,0,0,16.75154-13.65912c1.67622-2.13715,3.36578-4.28226,4.82884-6.56494a332.28091,332.28091,0,0,0,19.75175-34.2522c7.7871-16.08094,12.53587-33.12047,15.37617-50.73551a253.76031,253.76031,0,0,1,5.54463-27.22643c4.19394-15.19484,9.72721-29.9252,15.29651-44.647,2.26086-5.97635,4.55353-11.94153,5.3231-18.36443C612.9828,308.82657,609.55334,301.14807,602.447,294.25054ZM436.795,561.66324c-.15034-2.781-.24731-5.337-.43516-7.88633a14.7711,14.7711,0,0,0-6.43342-11.52567c-9.69139-6.83214-23.45434-9.004-34.96607-.71766a53.715,53.715,0,0,0-13.62126,14.66549c-5.23108,8.049-8.825,16.63192-9.0761,26.39008-.26559,10.32062-.377,20.65963,1.49486,30.84275a142.57,142.57,0,0,0,14.45456,41.72859c2.41246,4.50988,4.80459,9.03242,7.32152,13.48392a34.82026,34.82026,0,0,1,3.41188,9.40849q2.23343,9.55831,4.8277,19.03113c1.259,4.58109,3.5534,8.54953,7.77314,11.1322.67585.41361,1.23279,1.01678,1.86992,1.499a30.19313,30.19313,0,0,1,9.629,13.19592A85.56372,85.56372,0,0,1,428.705,742.9257a5.43055,5.43055,0,0,0,1.09778,2.57875,41.26459,41.26459,0,0,0,4.41886,4.71555c6.44721,5.688,15.93469,4.52581,20.50925-2.90429a51.24487,51.24487,0,0,0,6.09587-14.78412,40.92643,40.92643,0,0,0-.3275-21.55642,68.45682,68.45682,0,0,0-7.25242-16.37842c-4.45237-7.34864-6.63594-15.53633-8.17222-23.90649-.9084-4.94926-1.28829-10.03444-2.6298-14.85721-2.73811-9.84382-5.9605-19.55319-8.99682-29.31375-.42617-1.37-1.02342-2.69194-1.37754-4.078-1.23135-4.8199-.84513-9.69625-.22039-14.53858.69465-5.38419,1.65932-10.73341,2.3651-16.11637.4672-3.56308.71056-7.15662,1.01023-10.7402C435.77148,574.516,436.285,567.98316,436.795,561.66324Zm-71.86609,25.18744q-.3547-.06517-.70939-.13047c-.46808,1.32825-.97473,2.64433-1.39727,3.98688-1.60507,5.09982-2.93256,10.30293-4.82114,15.29448a123.6679,123.6679,0,0,1-18.13091,32.80855c-2.70912,3.45826-5.62556,6.75338-8.378,10.17867-4.17144,5.19111-8.64513,10.058-14.20491,13.81741-.32073.21685-.60556.48681-1.12264.90733.93429,3.01508,1.79741,6.077,2.83019,9.08067,2.93352,8.53185,5.93262,17.04115,8.91353,25.55666,1.34538,3.84329,2.59237,7.72612,4.08671,11.511,3.77637,9.56472,9.39754,17.63084,18.12942,23.52052a125.77282,125.77282,0,0,1,24.76085,22.53144c3.912,4.54145,7.70048,9.19469,11.74293,13.61644a79.54012,79.54012,0,0,0,8.486,8.07051,13.1574,13.1574,0,0,0,10.38024,2.72708c6.13239-.8534,10.35286-4.4029,13.00653-9.815a37.58634,37.58634,0,0,0,3.5189-13.85648c.7088-9.40943-1.17339-18.40495-4.20154-27.27065-2.239-6.55533-5.64633-12.13077-11.47828-16.06073a21.96471,21.96471,0,0,1-8.78891-12.2189c-1.74085-5.72191-3.50458-11.46225-4.74417-17.30367a47.52987,47.52987,0,0,0-5.6436-15.40838c-1.838-2.98984-3.365-6.17012-5.04771-9.25617-7.09307-13.00935-11.72313-26.91642-14.936-41.31879-1.80039-8.07069-2.10013-16.30663-2.24519-24.54222C364.89685,591.13551,364.92889,588.9928,364.92889,586.85068Zm31.73536-55.1122a5.15106,5.15106,0,0,0,.88494-.00685c.30618-.08714.60369-.20678.90093-.32284,11.87437-4.63649,23.10215-2.71649,33.731,3.63886,5.77282,3.45182,9.83,8.37649,10.97154,15.27679.03181.19208.2428.35458.507.72005.4351-.82634.79789-1.498,1.1451-2.17755,2.45086-4.79654,5.5886-8.92256,10.66308-11.255,2.61118-1.20013,5.1216-2.6218,7.74484-3.7927,6.54952-2.92326,13.562-4.16807,20.54027-5.54242,5.56186-1.09536,11.101-2.30574,16.6495-3.46915a3.90593,3.90593,0,0,0,2.88927-2.20584,29.10243,29.10243,0,0,1,7.36208-9.06761c3.4407-2.85609,7.00172-5.57211,10.57779-8.25931,3.51755-2.64328,4.42566-4.69792-.59162-7.63758a16.30553,16.30553,0,0,0-10.448-1.82549,84.33474,84.33474,0,0,0-17.19027,4.21252,63.05269,63.05269,0,0,1-14.89133,3.498,22.36235,22.36235,0,0,1-15.06888-3.59043c-6.94652-4.73083-10.48524-17.59875-.97412-24.99231.75709-.58853,1.54-1.14438,2.28733-1.74468.38921-.31265.7269-.68943,1.4232-1.36041-1.98658.099-3.48516.14066-4.97836.25368a89.39045,89.39045,0,0,0-22.53827,4.27723,32.77607,32.77607,0,0,0-14.22843,9.41417,57.39514,57.39514,0,0,0-4.08755,5.01643,244.44669,244.44669,0,0,0-22.19253,38.324C397.39446,529.90655,397.08749,530.71643,396.66425,531.73848Zm80.30544,101.674c.67085-1.28363,1.23974-2.24086,1.68656-3.25207,1.29078-2.9208,2.47689-5.88862,3.80428-8.79226a62.05591,62.05591,0,0,1,12.10774-18.0006,20.6401,20.6401,0,0,1,17.34128-6.45279c.69225.06395,1.38919.07725,2.16339.11824a7.18749,7.18749,0,0,0-.00984-1.30091q-3.00873-14.41535-6.04833-28.82419c-2.10107-9.914-4.655-19.74223-5.63913-29.86632-.1585-1.631-.2647-3.26712-.39644-4.9167a5.87084,5.87084,0,0,0-.926.00574c-6.25874,1.26044-12.50295,2.59766-18.77628,3.78034a77.37335,77.37335,0,0,0-23.23005,7.9432,18.02575,18.02575,0,0,0-8.00027,8.85281,22.3382,22.3382,0,0,0-1.728,5.45733,49.16427,49.16427,0,0,0-.93239,9.50658c.21685,5.97541.70262,11.95644,1.4118,17.89513,1.16845,9.78514,3.99176,19.04946,9.60236,27.30051,1.02991,1.51459,2.14441,2.973,3.14152,4.5083a79.03647,79.03647,0,0,0,12.52712,14.453C475.58372,632.31036,476.153,632.73481,476.96969,633.41252Zm108.67605-356.724.26412-.48221c-2.72672-3.32928-5.49356-6.62668-8.1733-9.99339-12.345-15.50968-24.82877-30.91281-36.94436-46.6-9.965-12.90262-19.43585-26.1856-29.21741-39.23128-5.2281-6.97276-10.61159-13.84894-17.07429-19.74509a37.5966,37.5966,0,0,0-7.35212-5.29738c-4.50088-2.43343-6.67171-1.353-8.17067,3.56853a21.12717,21.12717,0,0,0,.80062,13.86371c7.30643,19.57411,17.85435,37.14965,32.78429,51.87134a362.71336,362.71336,0,0,0,46.22767,38.07283,114.48483,114.48483,0,0,0,24.21589,13.04293C583.87434,276.09837,584.76534,276.37992,585.64574,276.68853ZM483.81692,636.40839c1.836,1.45352,3.60313,2.81586,5.33072,4.22663a133.75372,133.75372,0,0,0,24.44474,15.48211,32.48944,32.48944,0,0,0,9.93082,3.38219,8.12884,8.12884,0,0,0,5.51283-1.08752,9.73372,9.73372,0,0,0,4.78907-7.08664c.73782-4.1546.31853-8.28554-.025-12.42117a58.23641,58.23641,0,0,0-6.09349-22.49947,24.88935,24.88935,0,0,0-6.90249-8.481c-5.36891-4.09072-14.74373-6.67444-21.8025,1.23415a58.44546,58.44546,0,0,0-9.42115,14.08925C487.58166,627.50276,485.79861,631.85992,483.81692,636.40839ZM537.9423,389.966a5.14936,5.14936,0,0,0-1.14265.897c-1.27368,1.834-2.596,3.64677-3.70822,5.57805-3.18789,5.5353-6.18458,11.18213-9.43292,16.68092-9.02523,15.27793-18.3987,30.32464-30.12089,43.75119a17.55563,17.55563,0,0,0-1.00985,1.51369c1.18341-.37455,1.93032-.56566,2.64307-.844a62.995,62.995,0,0,0,12.41884-6.67973,103.90424,103.90424,0,0,0,25.62775-25.29762,56.98631,56.98631,0,0,0,8.50888-16.01415,22.86164,22.86164,0,0,0-.7011-15.70808A6.55386,6.55386,0,0,0,537.9423,389.966ZM223.647,527.81923c1.17534-7.30571-5.65669-22.107-11.60369-25.38255A41.88769,41.88769,0,0,0,223.647,527.81923Z"/></g></g></svg>