<svg width="6" height="7" viewBox="0 0 6 7" fill="none"
	xmlns="http://www.w3.org/2000/svg">
	<path d="M2.57391 0.181862L0.176282 2.73461C0.0634114 2.85478 -1.42307e-07 3.01777 -1.312e-07 3.18772C-1.20092e-07 3.35768 0.0634114 3.52066 0.176282 3.64084C0.289153 3.76101 0.442237 3.82852 0.60186 3.82852C0.761484 3.82852 0.914568 3.76101 1.02744 3.64084L2.40008 2.17301L2.40008 5.74047C2.40008 5.90973 2.46323 6.07206 2.57564 6.19174C2.68805 6.31142 2.84052 6.37866 2.99949 6.37866C3.15846 6.37866 3.31092 6.31142 3.42333 6.19174C3.53574 6.07206 3.5989 5.90973 3.5989 5.74047L3.5989 2.17301L4.97154 3.64084C5.02726 3.70065 5.09356 3.74813 5.1666 3.78053C5.23964 3.81293 5.31799 3.82961 5.39712 3.82961C5.47625 3.82961 5.55459 3.81293 5.62763 3.78053C5.70068 3.74813 5.76697 3.70065 5.8227 3.64084C5.87888 3.58151 5.92347 3.51093 5.9539 3.43316C5.98433 3.35539 6 3.27197 6 3.18772C6 3.10348 5.98433 3.02006 5.9539 2.94229C5.92347 2.86452 5.87888 2.79394 5.8227 2.73461L3.42507 0.181862C3.36806 0.123761 3.30084 0.0782164 3.22726 0.0478424C3.08133 -0.015988 2.91765 -0.015988 2.77172 0.0478424C2.69814 0.0782164 2.63092 0.123761 2.57391 0.181862Z" fill="currentColor"/>
</svg>
