<svg width="42" height="42" viewBox="0 0 42 42" fill="none" xmlns="http://www.w3.org/2000/svg">
<circle cx="21" cy="21" r="20.5" stroke="white"/>
<path d="M18.5786 15.5013C18.4901 15.4483 18.4263 15.3623 18.4012 15.2623C18.3888 15.2128 18.3862 15.1613 18.3937 15.1107C18.4012 15.0602 18.4186 15.0117 18.4448 14.9679C18.4711 14.924 18.5057 14.8858 18.5467 14.8554C18.5877 14.825 18.6343 14.8029 18.6839 14.7905C18.7839 14.7654 18.8898 14.7811 18.9783 14.8341C20.0009 15.4485 20.7428 16.181 21.2195 17.1889C21.6924 18.1851 21.8891 19.4177 21.8891 21.0002V25.8941L24.3356 23.4475C24.4086 23.3745 24.5075 23.3335 24.6107 23.3334C24.6618 23.3334 24.7124 23.3434 24.7596 23.3629C24.8068 23.3824 24.8497 23.4111 24.8858 23.4472C24.922 23.4833 24.9507 23.5261 24.9703 23.5733C24.9899 23.6205 25 23.6711 25 23.7222C25 23.7733 24.99 23.8239 24.9705 23.8711C24.951 23.9183 24.9223 23.9612 24.8862 23.9974L21.7756 27.108C21.7394 27.1442 21.6965 27.173 21.6493 27.1926C21.6021 27.2122 21.5514 27.2223 21.5003 27.2223C21.4491 27.2223 21.3985 27.2122 21.3512 27.1926C21.304 27.173 21.2611 27.1442 21.225 27.108L18.1143 23.9974C18.0782 23.9612 18.0496 23.9183 18.0301 23.8711C18.0105 23.8239 18.0005 23.7733 18.0005 23.7222C18.0006 23.619 18.0417 23.5201 18.1147 23.4472C18.1877 23.3742 18.2867 23.3333 18.3899 23.3334C18.4931 23.3335 18.592 23.3745 18.6649 23.4475L21.1114 25.8941V21.0002C21.1114 19.4721 20.9194 18.3717 20.5173 17.5217C20.1191 16.6818 19.5001 16.0543 18.5786 15.5013Z" fill="white"/>
</svg>
