<svg width="1.3rem" height="0.7rem" viewBox="0 0 13 7" fill="none" xmlns="http://www.w3.org/2000/svg">
<path d="M0.722524 6.42149C0.669518 6.50997 0.583534 6.57377 0.483487 6.59886C0.433949 6.61128 0.382449 6.61382 0.331929 6.60634C0.281408 6.59885 0.232856 6.58149 0.189044 6.55525C0.145233 6.529 0.10702 6.49438 0.0765872 6.45337C0.0461546 6.41235 0.0240983 6.36575 0.0116776 6.31621C-0.0134071 6.21616 0.00227924 6.11025 0.0552856 6.02177C0.669643 4.99913 1.40221 4.25724 2.41006 3.78053C3.40626 3.30771 4.63886 3.11096 6.22141 3.11096L11.1153 3.11096L8.66873 0.664413C8.59572 0.591504 8.55466 0.492577 8.55459 0.389394C8.55455 0.338303 8.56458 0.287706 8.5841 0.24049C8.60362 0.193275 8.63224 0.150365 8.66834 0.114213C8.70445 0.0780607 8.74731 0.0493737 8.7945 0.0297891C8.84169 0.0102039 8.89227 0.000104515 8.94336 6.82736e-05C8.99446 3.20318e-05 9.04505 0.0100599 9.09227 0.0295783C9.13948 0.0490967 9.18239 0.0777231 9.21854 0.113824L12.3292 3.2245C12.3654 3.26061 12.3942 3.30352 12.4138 3.35076C12.4334 3.398 12.4435 3.44865 12.4435 3.49979C12.4435 3.55094 12.4334 3.60158 12.4138 3.64882C12.3942 3.69606 12.3654 3.73897 12.3292 3.77508L9.21854 6.88576C9.18239 6.92186 9.13948 6.95048 9.09227 6.97C9.04505 6.98952 8.99446 6.99955 8.94337 6.99951C8.84018 6.99944 8.74125 6.95838 8.66834 6.88537C8.59544 6.81235 8.55452 6.71337 8.55459 6.61019C8.55466 6.507 8.59572 6.40808 8.66873 6.33517L11.1153 3.88862L6.22141 3.88862C4.6933 3.88862 3.5929 4.08071 2.74291 4.48276C1.90302 4.88093 1.27545 5.49995 0.722524 6.42149Z" fill="currentColor"/>
</svg>
