<svg width="54" height="41" viewBox="0 0 54 41" fill="none" xmlns="http://www.w3.org/2000/svg">
<path d="M4.10233 40.2206H12.4691V19.9014L0.516579 10.937V36.6349C0.516579 38.619 2.12419 40.2206 4.10233 40.2206Z" fill="#4285F4"/>
<path d="M41.1551 40.2206H49.5218C51.5059 40.2206 53.1076 38.613 53.1076 36.6349V10.937L41.1551 19.9014" fill="#34A853"/>
<path d="M41.1551 4.3635V19.9018L53.1076 10.9374V6.15638C53.1076 1.722 48.0457 -0.805956 44.5018 1.85348" fill="#FBBC04"/>
<path d="M12.4691 19.9015V4.36328L26.8121 15.1205L41.1551 4.36328V19.9015L26.8121 30.6588" fill="#EA4335"/>
<path d="M0.516579 6.15638V10.9374L12.4691 19.9018V4.3635L9.12238 1.85348C5.57249 -0.805956 0.516579 1.722 0.516579 6.15638Z" fill="#C5221F"/>
</svg>
