<svg width="57" height="37" viewBox="0 0 57 37" fill="none" xmlns="http://www.w3.org/2000/svg">
<path d="M20.2689 27.0341C19.5586 28.4946 18.3509 29.6763 16.847 30.3822C15.3431 31.0881 13.6339 31.2757 12.004 30.9136C10.3742 30.5515 8.92214 29.6617 7.88989 28.3924C6.85764 27.1231 6.30748 25.5509 6.33109 23.9378C6.3547 22.3247 6.95065 20.7682 8.01964 19.5275C9.08863 18.2867 10.5661 17.4368 12.2059 17.1193C13.8457 16.8017 15.5488 17.0357 17.0314 17.7823C18.5141 18.5289 19.6867 19.743 20.354 21.2223H26.0249C25.2879 18.2967 23.4647 15.7332 20.9003 14.0168C18.3359 12.3004 15.2082 11.5502 12.109 11.9082C9.00976 12.2661 6.1541 13.7074 4.08234 15.9593C2.01058 18.2112 0.866447 21.1175 0.866447 24.1282C0.866447 27.1389 2.01058 30.0452 4.08234 32.2971C6.1541 34.549 9.00976 35.9902 12.109 36.3482C15.2082 36.7062 18.3359 35.956 20.9003 34.2396C23.4647 32.5232 25.2879 29.9597 26.0249 27.0341H20.354H20.2689ZM43.7619 11.7867H42.8262C40.5882 11.9443 38.4345 12.6761 36.5882 13.9063V0.204102H31.4134V35.4441H36.6165V34.1587C38.2635 35.2762 40.1613 36.0019 42.1547 36.2764C44.1482 36.5508 46.1807 36.3664 48.086 35.738C49.9914 35.1096 51.7155 34.0552 53.1174 32.6609C54.5193 31.2667 55.5592 29.5722 56.1521 27.716C56.7449 25.8598 56.8739 23.8946 56.5284 21.9811C56.183 20.0677 55.3729 18.2602 54.1644 16.7066C52.956 15.1529 51.3835 13.8972 49.5755 13.0421C47.7675 12.187 45.7753 11.7568 43.7619 11.7867ZM51.0774 24.9692V25.188C51.0301 25.4789 50.9638 25.7666 50.8789 26.0495C50.7819 26.3532 50.6635 26.6502 50.5245 26.9384V27.0478C50.0359 28.028 49.3202 28.8867 48.4328 29.5577C47.5454 30.2287 46.51 30.6941 45.4065 30.9177L44.7118 31.0271H44.5558C44.2914 31.0412 44.0264 31.0412 43.7619 31.0271C43.4299 31.0261 43.0983 31.0032 42.7695 30.9588H42.5427C41.9009 30.8576 41.2762 30.6737 40.6854 30.4118H40.5436C39.948 30.1295 39.3948 29.7707 38.8991 29.3451C38.4005 28.9074 37.9664 28.4059 37.6089 27.8546C37.432 27.5737 37.2757 27.2813 37.1411 26.9794C36.7239 26.0611 36.5156 25.0671 36.5302 24.0646C36.5449 23.0621 36.7822 22.0742 37.2261 21.1676C37.7651 20.0696 38.5884 19.1241 39.6165 18.4223C40.6446 17.7205 41.8428 17.286 43.0956 17.1609C43.3459 17.1483 43.5967 17.1483 43.847 17.1609C45.7374 17.1848 47.5452 17.9124 48.8925 19.1916C50.2399 20.4709 51.0227 22.2028 51.0774 24.0256C51.0993 24.3398 51.0993 24.655 51.0774 24.9692Z" fill="#0C4265"/>
</svg>
