<svg width="96" height="18" viewBox="0 0 96 18" fill="none" xmlns="http://www.w3.org/2000/svg">
<path d="M5.61745 16.9999C10.5234 16.9999 13.6694 13.6119 13.6694 9.01392C13.6694 4.41591 10.6334 1.20391 5.61745 1.20391H0.00744629V16.9999H5.61745ZM3.35145 4.08591H5.44145C8.58745 4.08591 10.2374 5.86791 10.2374 9.01392C10.2374 12.2919 8.58745 14.1179 5.44145 14.1179H3.35145V4.08591Z" fill="#17403E"/>
<path d="M21.7118 17.1979C24.5718 17.1979 26.6178 15.6799 27.2778 13.0179H24.2418C23.8898 14.1839 22.9878 14.8439 21.6458 14.8439C20.0838 14.8439 19.1598 13.7879 18.9618 11.8739H27.2998C27.8498 8.04591 25.3858 5.03191 21.6678 5.03191C18.2798 5.03191 15.8378 7.58391 15.8378 11.0819C15.8378 14.7559 18.1918 17.1979 21.7118 17.1979ZM21.6018 7.27591C23.0538 7.27591 23.9778 8.30991 24.0658 9.93791H19.0058C19.2698 8.19991 20.1718 7.27591 21.6018 7.27591Z" fill="#17403E"/>
<path d="M37.2241 16.9999H39.7101V9.60791C39.7101 6.72591 37.9061 5.03191 34.8261 5.03191C31.9881 5.03191 30.0301 6.79191 29.8541 9.49791H32.6041C32.7141 8.17791 33.5061 7.40791 34.8261 7.40791C36.1021 7.40791 36.8501 8.17791 36.8501 9.49791V10.2019C36.1241 10.1139 35.5521 10.0699 34.8921 10.0699C31.4601 10.0699 29.6121 11.3019 29.6121 13.5899C29.6121 15.7899 31.2401 17.2199 33.6821 17.2199C35.2881 17.2199 36.4541 16.6479 37.2241 15.5479V16.9999ZM32.4941 13.5019C32.4941 12.4459 33.3521 11.8959 35.0901 11.8959C35.6181 11.8959 36.1241 11.9399 36.8501 12.0499V12.8859C36.8501 14.2499 35.9041 15.1079 34.3421 15.1079C33.1981 15.1079 32.4941 14.4919 32.4941 13.5019Z" fill="#17403E"/>
<path d="M46.3052 16.9999V1.20391H43.2252V16.9999H46.3052Z" fill="#17403E"/>
<path d="M54.0855 16.9999V7.86991H57.1435V5.25191H54.0855V4.67991C54.0855 3.86591 54.6355 3.53591 55.4715 3.53591C55.8675 3.53591 56.3075 3.60191 56.6375 3.73391V1.31391C56.1315 1.09391 55.4935 0.961914 54.7455 0.961914C52.3035 0.961914 51.0495 2.28191 51.0495 4.61391V5.25191H48.6735V7.86991H51.0495V16.9999H54.0855ZM61.7855 16.9999V1.20391H58.7055V16.9999H61.7855Z" fill="#17403E"/>
<path d="M70.5874 17.2199C73.9974 17.2199 76.5494 14.5359 76.5494 11.1259C76.5494 7.69391 73.9974 5.03191 70.5874 5.03191C67.1774 5.03191 64.6254 7.69391 64.6254 11.1259C64.6254 14.5359 67.1774 17.2199 70.5874 17.2199ZM70.5874 14.5139C69.0694 14.5139 67.7714 13.3039 67.7714 11.1259C67.7714 8.94791 69.0694 7.75991 70.5874 7.75991C72.1054 7.75991 73.4034 8.94791 73.4034 11.1259C73.4034 13.3039 72.1054 14.5139 70.5874 14.5139Z" fill="#17403E"/>
<path d="M88.7161 16.9999H91.7521L95.1181 5.25191H92.1041L90.1241 12.6879L88.0341 5.25191H85.0201L82.8641 12.6879L80.8621 5.25191H77.8921L81.2361 16.9999H84.2941L86.4941 9.36591L88.7161 16.9999Z" fill="#17403E"/>
</svg>
