<svg width="36" height="37" viewBox="0 0 36 37" fill="none" xmlns="http://www.w3.org/2000/svg">
<path d="M28.5027 0.174316C6.98548 1.90051 -1.92648 19.2427 1.64633 30.1619C3.73382 27.0307 7.58764 23.6586 15.496 22.4141C15.0143 13.2211 18.4667 6.75793 28.5027 0.174316Z" fill="#426893"/>
<path d="M17.5032 23.7383C12.0838 24.6215 8.27008 26.0667 5.90158 28.2345C5.98187 31.1248 6.78475 33.9349 8.39051 36.464C10.2371 32.0883 16.2587 28.9972 25.4517 28.9571C23.2036 18.4795 28.1815 8.88506 35.9694 2.42188C31.7945 3.06418 28.0611 4.06779 24.7693 5.35239C18.8279 10.8923 16.62 18.0379 17.5032 23.7383Z" fill="#426893"/>
</svg>
