<svg width="38" height="38" viewBox="0 0 38 38" fill="none" xmlns="http://www.w3.org/2000/svg">
<path fill-rule="evenodd" clip-rule="evenodd" d="M29.7667 38H8.23334C7.15152 38.0021 6.07992 37.7907 5.08003 37.3777C4.08014 36.9647 3.17165 36.3583 2.40668 35.5933C1.64172 34.8284 1.03534 33.9199 0.622338 32.92C0.20934 31.9201 -0.00214538 30.8485 1.64071e-05 29.7667V8.23334C-0.00214538 7.15152 0.20934 6.07992 0.622338 5.08003C1.03534 4.08014 1.64172 3.17165 2.40668 2.40668C3.17165 1.64172 4.08014 1.03534 5.08003 0.622338C6.07992 0.20934 7.15152 -0.00214538 8.23334 1.64071e-05H29.7667C30.8485 -0.00214538 31.9201 0.20934 32.92 0.622338C33.9199 1.03534 34.8284 1.64172 35.5933 2.40668C36.3583 3.17165 36.9647 4.08014 37.3777 5.08003C37.7907 6.07992 38.0021 7.15152 38 8.23334V29.7667C38.0021 30.8485 37.7907 31.9201 37.3777 32.92C36.9647 33.9199 36.3583 34.8284 35.5933 35.5933C34.8284 36.3583 33.9199 36.9647 32.92 37.3777C31.9201 37.7907 30.8485 38.0021 29.7667 38Z" fill="white"/>
<path d="M13.4142 8.11743C13.462 8.52688 13.8644 8.78942 14.4444 8.78942C14.98 8.78942 15.3587 8.51976 15.3587 8.13784C15.3587 7.81376 15.113 7.62604 14.5092 7.49307L13.8679 7.35329C12.9707 7.16218 12.5307 6.70171 12.5307 5.95457C12.5307 5.03704 13.2778 4.42969 14.4137 4.42969C15.4985 4.42969 16.266 5.03364 16.2968 5.90324H15.328C15.2802 5.50091 14.9187 5.23805 14.4206 5.23805C13.9054 5.23805 13.5643 5.48731 13.5643 5.87262C13.5643 6.1831 13.7997 6.36401 14.3763 6.49018L14.9699 6.61636C15.9591 6.82789 16.3856 7.25433 16.3856 8.01507C16.3856 8.99754 15.6248 9.60459 14.3899 9.60459C13.2164 9.60459 12.4557 9.02816 12.4181 8.11743H13.4142ZM20.1466 8.28442H18.417L18.0383 9.47842H17.0047L18.7139 4.55586H19.9249L21.6341 9.47842H20.5183L20.1466 8.28442ZM18.6387 7.51348H19.9283L19.3175 5.55534H19.2563L18.6387 7.51348ZM23.1367 9.47842V5.40536H21.6597V4.55586H25.644V5.40536H24.1671V9.47842H23.1367Z" fill="#FF3B30"/>
<path d="M11.7525 13.416C14.8599 13.416 17.0675 15.5517 17.0675 18.1911C17.0675 20.0626 16.2157 21.4783 13.1322 24.6577L8.5011 29.493V29.541H17.5114V31.0046H6.22151V29.8527L12.3404 23.4219C14.8239 20.8305 15.4358 19.7988 15.4358 18.2752C15.4358 16.3674 13.9361 14.8559 11.7525 14.8559C9.46099 14.8559 7.7453 16.4274 7.72133 18.551H6.13754C6.16151 15.5875 8.54919 13.416 11.7525 13.416ZM19.6355 22.3424C19.6355 16.9074 21.999 13.416 25.9103 13.416C29.8334 13.416 32.1732 16.8953 32.1732 22.3303C32.1732 27.8011 29.8455 31.2805 25.9103 31.2805C21.9752 31.2805 19.6355 27.8132 19.6355 22.3424ZM30.5295 22.3424C30.5295 17.7952 28.8138 14.8676 25.9103 14.8676C23.0189 14.8676 21.2911 17.819 21.2911 22.3303C21.2911 26.9254 22.9827 29.8409 25.9103 29.8409C28.8376 29.8409 30.5295 26.9254 30.5295 22.3424Z" fill="black"/>
</svg>
