<svg width="44" height="42" viewBox="0 0 44 42" fill="none" xmlns="http://www.w3.org/2000/svg">
<g clip-path="url(#clip0_92_950)">
<path d="M43.9447 22.2069C43.9471 21.8623 43.7733 21.5415 43.4867 21.3613H43.4817L43.4637 21.3511L28.5637 12.3106C28.4994 12.266 28.4326 12.2253 28.3637 12.1886C27.7884 11.8844 27.105 11.8844 26.5297 12.1886C26.4608 12.2253 26.394 12.266 26.3297 12.3106L11.4297 21.3511L11.4117 21.3613C10.9563 21.6516 10.8167 22.2653 11.0999 22.7321C11.1834 22.8696 11.2983 22.9842 11.4347 23.0659L26.3347 32.1064C26.3993 32.1506 26.466 32.1913 26.5347 32.2284C27.11 32.5326 27.7934 32.5326 28.3687 32.2284C28.4374 32.1913 28.5042 32.1506 28.5687 32.1064L43.4687 23.0659C43.7664 22.888 43.9481 22.5601 43.9447 22.2069Z" fill="#0A2767"/>
<path d="M13.1667 16.1709H22.9447V25.358H13.1667V16.1709ZM41.9447 6.83212V2.62962C41.9682 1.5789 41.1568 0.707307 40.1317 0.682129H14.7577C13.7326 0.707307 12.9212 1.5789 12.9447 2.62962V6.83212L27.9447 10.9321L41.9447 6.83212Z" fill="#0364B8"/>
<path d="M12.9447 6.83203H22.9447V16.057H12.9447V6.83203Z" fill="#0078D4"/>
<path d="M32.9447 6.83203H22.9447V16.057L32.9447 25.282H41.9447V16.057L32.9447 6.83203Z" fill="#28A8EA"/>
<path d="M22.9447 16.0571H32.9447V25.2821H22.9447V16.0571Z" fill="#0078D4"/>
<path d="M22.9447 25.2822H32.9447V34.5072H22.9447V25.2822Z" fill="#0364B8"/>
<path d="M13.1667 25.3579H22.9447V33.7096H13.1667V25.3579Z" fill="#14447D"/>
<path d="M32.9447 25.2822H41.9447V34.5072H32.9447V25.2822Z" fill="#0078D4"/>
<path d="M43.4867 23.0096L43.4677 23.0199L28.5677 31.6093C28.5027 31.6503 28.4367 31.6893 28.3677 31.7241C28.1146 31.8477 27.8397 31.9174 27.5597 31.9291L26.7457 31.4412C26.6769 31.4059 26.6101 31.3665 26.5457 31.3234L11.4457 22.4899H11.4387L10.9447 22.207V39.5951C10.9524 40.7552 11.8759 41.6894 13.0077 41.682H41.9137C41.9307 41.682 41.9457 41.6738 41.9637 41.6738C42.2027 41.6581 42.4384 41.6077 42.6637 41.5242C42.761 41.4819 42.855 41.4319 42.9447 41.3745C43.0117 41.3356 43.1267 41.2505 43.1267 41.2505C43.6389 40.862 43.9421 40.2483 43.9447 39.5951V22.207C43.9443 22.5396 43.7693 22.8463 43.4867 23.0096Z" fill="url(#paint0_linear_92_950)"/>
<path opacity="0.5" d="M43.1447 22.1387V23.2047L27.5647 34.1998L11.4347 22.4974C11.4347 22.4918 11.4302 22.4872 11.4247 22.4872L9.94473 21.5749V20.8062L10.5547 20.7959L11.8447 21.5544L11.8747 21.5647L11.9847 21.6364C11.9847 21.6364 27.1447 30.5027 27.1847 30.5231L27.7647 30.8716C27.8147 30.8511 27.8647 30.8306 27.9247 30.8101C27.9547 30.7896 42.9747 22.1284 42.9747 22.1284L43.1447 22.1387Z" fill="#0A2767"/>
<path d="M43.4867 23.0096L43.4677 23.0209L28.5677 31.6104C28.5027 31.6514 28.4367 31.6903 28.3677 31.7252C27.789 32.0149 27.1123 32.0149 26.5337 31.7252C26.4652 31.6904 26.3984 31.6521 26.3337 31.6104L11.4337 23.0209L11.4157 23.0096C11.1281 22.8497 10.9477 22.5424 10.9447 22.207V39.5951C10.9519 40.755 11.875 41.6894 13.0066 41.682C13.0067 41.682 13.0067 41.682 13.0067 41.682H41.8827C43.0143 41.6894 43.9375 40.7551 43.9447 39.5952C43.9447 39.5952 43.9447 39.5952 43.9447 39.5951V22.207C43.9443 22.5396 43.7693 22.8463 43.4867 23.0096Z" fill="#1490DF"/>
<path opacity="0.1" d="M28.7847 31.4834L28.5617 31.6115C28.4971 31.6537 28.4303 31.6924 28.3617 31.7274C28.116 31.851 27.8489 31.9234 27.5757 31.9405L33.2447 38.8121L43.1337 41.2547C43.4047 41.0449 43.6202 40.769 43.7607 40.4521L28.7847 31.4834Z" fill="black"/>
<path opacity="0.05" d="M29.7947 30.9014L28.5617 31.6117C28.4971 31.6539 28.4303 31.6925 28.3617 31.7275C28.116 31.8511 27.8489 31.9236 27.5757 31.9407L30.2317 39.4468L43.1367 41.2518C43.6451 40.8606 43.9444 40.247 43.9447 39.5954V39.3709L29.7947 30.9014Z" fill="black"/>
<path d="M13.0347 41.682H41.8797C42.3236 41.6843 42.7565 41.5406 43.1147 41.272L26.7447 31.4433C26.6759 31.4079 26.6091 31.3686 26.5447 31.3254L11.4447 22.492H11.4377L10.9447 22.207V39.5357C10.9436 40.7199 11.8793 41.6809 13.0347 41.682C13.0347 41.682 13.0347 41.682 13.0347 41.682Z" fill="#28A8EA"/>
<path opacity="0.1" d="M24.9447 10.7607V32.6239C24.9429 33.3904 24.4882 34.0795 23.7947 34.3664C23.5799 34.461 23.3485 34.5099 23.1147 34.5099H10.9447V9.90683H12.9447V8.88184H23.1147C24.1249 8.88576 24.9425 9.72514 24.9447 10.7607Z" fill="black"/>
<path opacity="0.2" d="M23.9447 11.7856V33.6489C23.9472 33.8965 23.896 34.1416 23.7947 34.3664C23.517 35.068 22.8534 35.5283 22.1147 35.5318H10.9447V9.90682H22.1147C22.4049 9.90384 22.6908 9.97803 22.9447 10.1221C23.5577 10.4386 23.9445 11.0821 23.9447 11.7856Z" fill="black"/>
<path opacity="0.2" d="M23.9447 11.7856V31.5989C23.9398 32.6339 23.1245 33.4728 22.1147 33.4818H10.9447V9.90682H22.1147C22.4049 9.90384 22.6908 9.97803 22.9447 10.1221C23.5577 10.4386 23.9445 11.0821 23.9447 11.7856Z" fill="black"/>
<path opacity="0.2" d="M22.9447 11.786V31.5993C22.9436 32.6359 22.126 33.4771 21.1147 33.4822H10.9447V9.90723H21.1147C22.1259 9.90778 22.9452 10.7485 22.9447 11.785C22.9447 11.7854 22.9447 11.7857 22.9447 11.786Z" fill="black"/>
<path d="M2.77773 9.90723H21.1117C22.1241 9.90723 22.9447 10.7484 22.9447 11.786V30.5784C22.9447 31.616 22.1241 32.4572 21.1117 32.4572H2.77773C1.76538 32.4572 0.944733 31.616 0.944733 30.5784V11.786C0.944733 10.7484 1.76541 9.90723 2.77773 9.90723Z" fill="url(#paint1_linear_92_950)"/>
<path d="M6.67373 17.7874C7.12551 16.8008 7.85471 15.9752 8.76774 15.4166C9.77887 14.8233 10.9301 14.5275 12.0947 14.5618C13.1742 14.5378 14.2393 14.8182 15.1737 15.3725C16.0524 15.9096 16.76 16.6965 17.2107 17.6378C17.7016 18.675 17.9463 19.8164 17.9247 20.969C17.9485 22.1736 17.6968 23.3671 17.1897 24.454C16.7282 25.4289 15.9982 26.2439 15.0897 26.7982C14.1192 27.3695 13.0146 27.6573 11.8958 27.6305C10.7933 27.6578 9.70468 27.3741 8.74875 26.8105C7.86253 26.2727 7.14603 25.4849 6.68475 24.5411C6.19094 23.5189 5.94338 22.3903 5.96275 21.2498C5.94218 20.0555 6.18523 18.8719 6.67373 17.7874ZM8.90573 23.3532C9.1466 23.9769 9.55507 24.5178 10.0837 24.9132C10.6222 25.299 11.267 25.498 11.9237 25.4811C12.6231 25.5094 13.3125 25.3036 13.8877 24.8948C14.4097 24.5006 14.8074 23.9582 15.0317 23.3347C15.2824 22.6384 15.4062 21.9008 15.3967 21.1586C15.4045 20.4094 15.2882 19.6643 15.0527 18.9549C14.8448 18.3145 14.4599 17.7497 13.9447 17.3293C13.3839 16.901 12.6964 16.6839 11.9977 16.7143C11.3267 16.6964 10.6675 16.897 10.1147 17.2872C9.57712 17.6843 9.1609 18.23 8.91473 18.8606C8.36862 20.306 8.36578 21.9078 8.90672 23.3552L8.90573 23.3532Z" fill="white"/>
<path d="M32.9447 6.83203H41.9447V16.057H32.9447V6.83203Z" fill="#50D9FF"/>
</g>
<defs>
<linearGradient id="paint0_linear_92_950" x1="27.4447" y1="22.207" x2="27.4447" y2="41.6821" gradientUnits="userSpaceOnUse">
<stop stop-color="#35B8F1"/>
<stop offset="1" stop-color="#28A8EA"/>
</linearGradient>
<linearGradient id="paint1_linear_92_950" x1="4.76658" y1="8.43915" x2="19.6611" y2="33.6067" gradientUnits="userSpaceOnUse">
<stop stop-color="#1784D9"/>
<stop offset="0.5" stop-color="#107AD5"/>
<stop offset="1" stop-color="#0A63C9"/>
</linearGradient>
<clipPath id="clip0_92_950">
<rect width="43" height="41" fill="white" transform="translate(0.944733 0.682129)"/>
</clipPath>
</defs>
</svg>
