<svg width="37" height="36" viewBox="0 0 37 36" fill="none" xmlns="http://www.w3.org/2000/svg">
<g clip-path="url(#clip0_92_1036)">
<path d="M27.7054 8.63623H8.99515V27.3465H27.7054V8.63623Z" fill="white"/>
<path d="M27.7054 35.7663L36.125 27.3467H27.7054V35.7663Z" fill="#EA4335"/>
<path d="M36.125 8.63623H27.7054V27.3465H36.125V8.63623Z" fill="#FBBC04"/>
<path d="M27.7054 27.3467H8.99515V35.7663H27.7054V27.3467Z" fill="#34A853"/>
<path d="M0.575531 27.3467V32.9598C0.575531 34.5104 1.83146 35.7663 3.38207 35.7663H8.99515V27.3467H0.575531Z" fill="#188038"/>
<path d="M36.125 8.63641V3.02334C36.125 1.47272 34.8691 0.216797 33.3185 0.216797H27.7054V8.63641H36.125Z" fill="#1967D2"/>
<path d="M27.7054 0.216797H3.38207C1.83146 0.216797 0.575531 1.47272 0.575531 3.02333V27.3467H8.99515V8.63641H27.7054V0.216797Z" fill="#4285F4"/>
<path d="M12.8331 23.1506C12.1338 22.6781 11.6497 21.9882 11.3854 21.0761L13.0085 20.4072C13.1558 20.9685 13.4131 21.4035 13.7803 21.7122C14.1452 22.0209 14.5895 22.173 15.1087 22.173C15.6396 22.173 16.0957 22.0116 16.4769 21.6888C16.8581 21.3661 17.0499 20.9544 17.0499 20.4563C17.0499 19.9464 16.8488 19.5301 16.4465 19.2074C16.0442 18.8846 15.5391 18.7232 14.9357 18.7232H13.9978V17.1165H14.8398C15.359 17.1165 15.7963 16.9762 16.1518 16.6955C16.5073 16.4149 16.6851 16.0313 16.6851 15.5425C16.6851 15.1075 16.526 14.7613 16.208 14.5017C15.8899 14.2421 15.4876 14.1112 14.9988 14.1112C14.5217 14.1112 14.1428 14.2375 13.8622 14.4924C13.5817 14.748 13.3708 15.0707 13.2494 15.4302L11.6427 14.7613C11.8555 14.1579 12.2461 13.6247 12.8191 13.164C13.3921 12.7032 14.1241 12.4717 15.0128 12.4717C15.67 12.4717 16.2618 12.598 16.7856 12.8529C17.3095 13.1078 17.7211 13.461 18.0182 13.91C18.3152 14.3614 18.4625 14.8666 18.4625 15.4279C18.4625 16.0009 18.3246 16.485 18.0486 16.8826C17.7726 17.2802 17.4335 17.5843 17.0312 17.7971V17.893C17.5506 18.1071 18.0018 18.4589 18.3363 18.9103C18.6754 19.3664 18.8461 19.9113 18.8461 20.5475C18.8461 21.1836 18.6847 21.752 18.362 22.2501C18.0392 22.7483 17.5925 23.1412 17.0265 23.4265C16.4582 23.7119 15.8197 23.8569 15.1111 23.8569C14.2902 23.8592 13.5324 23.623 12.8331 23.1506ZM22.8033 15.0958L21.0212 16.3845L20.1301 15.0326L23.3272 12.7266H24.5527V23.6043H22.8033V15.0958Z" fill="#4285F4"/>
</g>
<defs>
<clipPath id="clip0_92_1036">
<rect width="35.5495" height="35.5495" fill="white" transform="translate(0.575531 0.216797)"/>
</clipPath>
</defs>
</svg>
