<svg xmlns="http://www.w3.org/2000/svg" width="1356" height="2209" viewBox="0 0 1356 2209" fill="none">
  <path d="M849.039 2209C809.458 2205.78 771.87 2204.36 734.753 2199.4C605.833 2182.19 486.491 2138.04 378.931 2064.73C179.101 1928.53 56.9979 1741.21 12.6205 1502.78C3.82855 1453.27 -0.386897 1403.06 0.0278705 1352.78C0.0138642 928.775 0.0134124 504.773 0.0269669 80.7703C0.0283224 39.2475 19.9973 11.1743 56.5185 2.14969C64.1931 0.536704 72.033 -0.151865 79.8711 0.0988938C501.316 0.00627131 922.76 -0.0212895 1344.2 0.0162113H1355.12C1370.52 654.985 843.099 1317.3 64.2401 1356.85H87.9957C315.111 1356.85 542.227 1356.84 769.342 1356.82C801.34 1356.81 827.37 1368.23 841.071 1398.18C846.406 1411.05 849.009 1424.9 848.718 1438.83C849.177 1649.12 849.284 1859.41 849.039 2069.71L849.039 2209Z" fill="#F7F6F2" fill-opacity="0.1"/>
</svg>