<svg xmlns="http://www.w3.org/2000/svg" style="width:58rem;height:93.6rem" fill="none" viewBox="0 0 580 936">
  <path stroke="currentColor" d="M2.934.5h575.81l-.004.184c-.012.46-.031 1.144-.063 2.044-.064 1.8-.179 4.464-.381 7.912-.406 6.895-1.164 16.926-2.572 29.465-2.818 25.077-8.24 60.18-18.657 100.278-20.835 80.202-61.642 180.35-141.524 260.232-89.025 89.025-192.893 133.543-274.516 155.804-40.81 11.13-76.054 16.694-101.094 19.477-12.52 1.391-22.487 2.086-29.323 2.434-3.418.173-6.053.26-7.833.304a195.253 195.253 0 01-2.2.04V2.857A2.357 2.357 0 012.934.5zM353.56 579.738H.511c.007.279.019.671.037 1.172.039 1.107.11 2.745.234 4.865.25 4.24.715 10.409 1.582 18.122 1.733 15.425 5.068 37.017 11.476 61.682 12.817 49.337 37.916 110.931 87.042 160.056 54.754 54.754 118.639 82.136 168.847 95.829 25.103 6.847 46.782 10.269 62.182 11.981 7.701.855 13.831 1.283 18.034 1.496 2.102.107 3.722.161 4.815.187.495.012.882.019 1.157.023V582.095a2.357 2.357 0 00-2.357-2.357z"/>
</svg>
