<svg width="100%" height="100%" viewBox="0 0 307 100" fill="none" xmlns="http://www.w3.org/2000/svg">
<g clip-path="url(#clip0_486_181)">
<path d="M125.27 87.1044C124.889 87.0825 124.508 87.0876 124.128 87.1196C124.026 87.1374 123.929 87.1761 123.843 87.2332C123.756 87.2903 123.683 87.3647 123.627 87.4516C120.2 94.4418 114.474 98.28 106.93 99.5629C102.59 100.366 98.1165 100.05 93.9318 98.6457C88.8819 96.8698 84.584 93.4314 81.7417 88.8931C78.7999 84.2886 76.8721 79.1099 76.0865 73.7018C75.3378 69.1746 75.2104 64.5663 75.708 60.0046C76.623 51.5244 79.3355 43.767 85.1378 37.3253C89.4108 32.4332 95.2863 29.2246 101.71 28.2753C108.111 27.3028 114.201 28.5089 120.044 31.1432C121.49 31.7953 122.88 32.5741 124.284 33.3173C125.12 33.7599 125.269 33.687 125.269 32.7237C125.271 22.2625 125.271 11.8013 125.27 1.34014C125.27 1.12791 125.274 0.915723 125.271 0.703562C125.266 0.239065 125.466 -0.020284 125.958 0.00124154C126.064 0.0058747 126.17 0.00124154 126.276 0.00124154C132.856 0.00120796 139.435 0.00126558 146.015 0.00141427C147.01 0.00147182 147.035 0.0276951 147.035 1.05519C147.039 29.1288 147.045 57.2024 147.053 85.276C147.055 89.2014 147.127 93.1268 147.163 97.0522C147.171 97.934 147.099 98.0071 146.239 98.0073C139.574 98.0091 132.91 98.0092 126.246 98.0076C125.366 98.0075 125.271 97.9089 125.271 97.0133C125.269 93.9789 125.269 90.9445 125.27 87.9101L125.27 87.1044ZM125.27 64.0668C125.27 58.2339 125.272 52.4011 125.275 46.5682C125.275 46.0001 125.199 45.5399 124.578 45.2942C121.295 43.8912 117.76 43.1709 114.19 43.1771C107.18 43.3492 102.155 46.6276 99.1485 52.9526C97.7208 56.1097 96.966 59.5298 96.9322 62.9949C96.7164 66.9 97.2922 70.8085 98.6247 74.4854C99.6767 77.4709 101.629 80.0559 104.213 81.8832C106.797 83.7105 109.884 84.69 113.047 84.6864C116.912 84.7202 120.75 84.0435 124.371 82.6899C124.664 82.6327 124.924 82.4634 125.095 82.2179C125.266 81.9724 125.335 81.6699 125.288 81.3744C125.256 75.6054 125.27 69.836 125.27 64.0668Z" fill="#F7F6F2"/>
<path d="M205.712 87.1431C204.274 87.0317 204.299 87.045 203.675 88.2072C202.23 90.9853 200.188 93.4094 197.697 95.3062C195.206 97.203 192.327 98.5255 189.265 99.1791C184.84 100.289 180.206 100.256 175.797 99.0847C170.588 97.6669 166.042 94.465 162.951 90.0371C159.749 85.5013 157.612 80.3011 156.698 74.8239C155.816 70.1485 155.6 65.3715 156.057 60.6355C156.796 52.8025 159.082 45.521 163.955 39.2253C168.51 33.3402 174.407 29.5579 181.807 28.3226C186.988 27.5134 192.289 28.0354 197.213 29.8396C199.794 30.7445 202.282 31.8945 204.644 33.2739C205.52 33.7806 205.712 33.6713 205.712 32.6761C205.712 22.1306 205.713 11.5852 205.712 1.03967C205.712 0.0191367 205.73 0.00120831 206.745 0.00115075C213.26 0.000815015 219.775 0.000764621 226.291 0.000999636C227.451 0.000999636 227.467 0.0163453 227.467 1.16728C227.467 27.8599 227.469 54.5525 227.473 81.2451C227.476 86.4645 227.554 91.684 227.6 96.9034C227.609 97.9356 227.547 98.0079 226.55 98.008C219.95 98.0088 213.35 98.0088 206.75 98.008C205.747 98.0079 205.712 97.9715 205.712 96.9722C205.712 93.9379 205.712 90.9037 205.712 87.8695L205.712 87.1431ZM205.712 64.388C205.712 58.5107 205.712 52.6334 205.712 46.7562C205.712 45.6468 205.642 45.5194 204.581 45.1374C203.566 44.7718 202.548 44.404 201.509 44.1157C198.23 43.1106 194.76 42.8968 191.382 43.4918C185.489 44.6571 181.476 48.1781 179.27 53.6626C176.734 59.9655 176.531 66.9676 178.698 73.407C180.923 80.402 186.38 84.3336 193.708 84.6852C197.507 84.8046 201.3 84.31 204.941 83.2203C205.064 83.2037 205.182 83.1624 205.289 83.0989C205.395 83.0354 205.488 82.951 205.561 82.8508C205.635 82.7506 205.687 82.6366 205.715 82.5157C205.743 82.3948 205.747 82.2694 205.725 82.1471C205.703 76.2275 205.712 70.3077 205.712 64.388Z" fill="#F7F6F2"/>
<path d="M290.277 81.5079H288.83C288.593 82.4386 288.402 83.3685 288.12 84.2699C286.458 89.5812 283.579 94.0032 278.726 96.9536C276.078 98.5382 273.107 99.5055 270.034 99.7836C264.845 100.4 259.585 99.5956 254.817 97.4554C248.359 94.4971 243.97 89.5268 241.12 83.1141C239.289 78.9776 238.214 74.5456 237.948 70.0292C237.794 67.5781 237.84 65.1133 237.835 62.6546C237.833 61.5736 237.945 61.5076 239.012 61.5076C254.759 61.5074 270.505 61.5079 286.252 61.5089C287.675 61.5091 287.722 61.6041 287.481 60.1299C286.927 55.9091 284.971 51.9969 281.929 49.0206C279.195 46.4599 275.698 44.8649 271.973 44.4792C264.652 43.5065 257.221 45.1099 250.951 49.0149C250.251 49.4554 249.574 49.9308 248.922 50.4393C248.488 50.7669 248.192 50.7653 247.906 50.2577C245.573 46.1232 243.232 41.9931 240.883 37.8675C240.825 37.7922 240.784 37.7053 240.763 37.6126C240.742 37.52 240.741 37.4238 240.761 37.3309C240.78 37.2379 240.82 37.1503 240.877 37.0742C240.933 36.998 241.006 36.9351 241.089 36.8898C246.285 32.7457 252.426 29.9554 258.964 28.7686C263.584 27.9445 268.288 27.6907 272.971 28.0128C282.377 28.688 290.617 31.9935 297.135 39.0036C301.552 43.8106 304.521 49.768 305.701 56.1895C306.206 58.8573 306.465 61.5658 306.473 64.2808C306.631 75.0366 306.8 85.7922 306.978 96.5476C307 97.9693 307.224 98.0142 305.55 98.0114C300.669 98.0031 295.788 98.002 290.907 98.0079C289.942 98.0076 289.877 97.9519 289.9 97.0088C290.022 92.1095 290.147 87.2103 290.276 82.3112C290.282 82.0619 290.277 81.8123 290.277 81.5079ZM271.18 85.2083C271.721 85.1462 272.694 85.073 273.654 84.9181C277.401 84.2525 280.811 82.3308 283.322 79.469C285.833 76.6072 287.296 72.9757 287.47 69.1716C287.498 68.2706 287.357 68.1624 286.432 68.2899C281.897 68.9149 277.362 69.5354 272.826 70.1513C267.702 70.8446 262.577 71.5322 257.451 72.2141C256.995 72.2751 256.734 72.4553 256.907 72.9725C257.303 74.1548 257.593 75.3838 258.097 76.5172C260.53 81.9813 264.578 85.1433 271.18 85.2083Z" fill="#F7F6F2"/>
<path d="M43.7077 66.6052C35.7911 66.6052 27.8745 66.6053 19.958 66.6053C18.9243 66.6053 18.8675 66.6344 19.047 67.6373C20.04 73.1844 22.4662 77.8621 27.3193 81.0188C29.7605 82.5812 32.5472 83.5211 35.4356 83.7563C42.8273 84.4935 50.2465 82.6523 56.4371 78.5445C56.7398 78.3492 57.0292 78.1331 57.3228 77.9239C58.0572 77.4003 58.1411 77.4151 58.5755 78.1851C59.6066 80.0125 60.6361 81.8409 61.6639 83.6702C62.8793 85.8319 64.0801 88.0018 65.3169 90.1511C65.3915 90.2388 65.4451 90.3424 65.4737 90.4539C65.5024 90.5654 65.5053 90.6819 65.4823 90.7948C65.4593 90.9076 65.4109 91.0136 65.3409 91.105C65.2708 91.1963 65.181 91.2706 65.078 91.322C60.2117 94.9739 54.6145 97.531 48.6692 98.8183C44.4021 99.7893 40.0215 100.167 35.6514 99.9395C27.2878 99.53 19.5995 97.181 13.0375 91.7675C6.93272 86.8199 2.69837 79.9358 1.03448 72.2536C-1.20646 62.3073 0.149607 52.8635 5.53118 44.1255C9.37788 37.8797 14.8855 33.5828 21.6361 30.8165C26.146 28.864 31.0114 27.8682 35.9253 27.892C48.6653 28.1583 58.1504 33.9304 64.3209 45.052C66.7772 49.5786 68.1905 54.5975 68.4574 59.7413C68.583 61.6644 68.5569 63.5989 68.5552 65.5281C68.5542 66.5491 68.4537 66.6052 67.4574 66.6052C59.5408 66.6053 51.6242 66.6053 43.7077 66.6052ZM35.6859 42.9512C35.4315 42.9512 35.1765 42.9396 34.9229 42.9537C34.4996 42.9774 34.0762 43.0073 33.6547 43.0522C29.8142 43.4611 26.355 44.7651 23.5867 47.5402C20.3061 50.8289 19.2 54.9771 19.0546 59.4721C19.039 59.9562 19.3185 60.0765 19.7642 60.0146C22.1348 59.6852 24.5079 59.3742 26.8789 59.0477C34.2014 58.039 41.524 57.031 48.8468 56.0239C49.3791 55.9514 49.5387 55.7127 49.461 55.2223C49.0758 52.0865 47.7403 49.144 45.6338 46.7904C42.9455 43.9158 39.4956 42.9443 35.6859 42.9512Z" fill="#F7F6F2"/>
</g>
<defs>
<clipPath id="clip0_486_181">
<rect width="307" height="100" fill="white"/>
</clipPath>
</defs>
</svg>
