<svg width="1.4rem" height="1.4rem" viewBox="0 0 14 14" fill="none" xmlns="http://www.w3.org/2000/svg">
<path d="M2.55632 0C1.14023 0 0 1.14023 0 2.55632V11.4437C0 12.8598 1.14023 14 2.55632 14H7.3732V8.52688H5.92595V6.55638H7.3732V4.87288C7.3732 3.55023 8.2283 2.33582 10.1981 2.33582C10.9957 2.33582 11.5854 2.41238 11.5854 2.41238L11.5391 4.25251C11.5391 4.25251 10.9376 4.24683 10.2812 4.24683C9.5709 4.24683 9.457 4.57412 9.457 5.11746V6.5564H11.5955L11.5023 8.5269H9.457V14H11.4437C12.8598 14 14 12.8598 14 11.4437V2.55633C14 1.14024 12.8598 1.4e-05 11.4437 1.4e-05H2.5563L2.55632 0Z" fill="#004250"/>
</svg>
