<svg width="1.4rem" height="1.3rem" viewBox="0 0 14 13" fill="none" xmlns="http://www.w3.org/2000/svg">
<path d="M13.05 4.33268L13.05 4.28268L13 4.28268L9.71667 4.28268L9.71667 0.999348L9.71667 0.949348L9.66667 0.949348L8.33333 0.949348L8.28333 0.949348L8.28333 0.999348L8.28333 5.66602L8.28333 5.71602L8.33333 5.71602L13 5.71602L13.05 5.71602L13.05 5.66602L13.05 4.33268Z" fill="currentColor" stroke="black" stroke-width="0.1"/>
<path d="M0.95 9.33333L0.95 9.38333L1 9.38333L4.28333 9.38333L4.28333 12.6667L4.28333 12.7167L4.33333 12.7167L5.66667 12.7167L5.71667 12.7167L5.71667 12.6667L5.71667 8L5.71667 7.95L5.66667 7.95L1 7.95L0.95 7.95L0.95 8L0.95 9.33333Z" fill="currentColor" stroke="black" stroke-width="0.1"/>
<path d="M4.33464 0.95L4.28464 0.95L4.28464 1L4.28464 4.28333L1.0013 4.28333L0.951302 4.28333L0.951302 4.33333L0.951302 5.66667L0.951302 5.71667L1.0013 5.71667L5.66797 5.71667L5.71797 5.71667L5.71797 5.66667L5.71797 1L5.71797 0.95L5.66797 0.95L4.33464 0.95Z" fill="currentColor" stroke="black" stroke-width="0.1"/>
<path d="M9.66536 12.716L9.71536 12.716L9.71536 12.666L9.71536 9.38268L12.9987 9.38268L13.0487 9.38268L13.0487 9.33268L13.0487 7.99935L13.0487 7.94935L12.9987 7.94935L8.33203 7.94935L8.28203 7.94935L8.28203 7.99935L8.28203 12.666L8.28203 12.716L8.33203 12.716L9.66536 12.716Z" fill="currentColor" stroke="black" stroke-width="0.1"/>
</svg>
