<svg width="1.4rem" height="1.4rem" viewBox="0 0 14 14" fill="none" xmlns="http://www.w3.org/2000/svg">
<path d="M5.71667 11.6667V11.6167H5.66667H2.38333V8.33333V8.28333H2.33333H1H0.95V8.33333V13V13.05H1H5.66667H5.71667V13V11.6667ZM2.33333 5.71667H2.38333V5.66667V2.38333H5.66667H5.71667V2.33333V1V0.95H5.66667H1H0.95V1V5.66667V5.71667H1H2.33333ZM11.6667 8.28333H11.6167V8.33333V11.6167H8.33333H8.28333V11.6667V13V13.05H8.33333H13H13.05V13V8.33333V8.28333H13H11.6667ZM8.28333 2.33333V2.38333H8.33333H11.6167V5.66667V5.71667H11.6667H13H13.05V5.66667V1V0.95H13H8.33333H8.28333V1V2.33333Z" fill="currentColor" stroke="black" stroke-width="0.1"/>
</svg>
