<?xml version="1.0" encoding="UTF-8"?><svg id="Layer_1" xmlns="http://www.w3.org/2000/svg" viewBox="0 0 755.62253 675.31304"><defs><style>.cls-1{fill:#17403e;}</style></defs><path class="cls-1" d="M469.59855,33.74748c.64363-.75103,1.17331-1.33991,1.67115-1.95461,4.58083-5.65589,9.1548-11.31728,13.73328-16.97504,6.46288-7.98625,14.77811-12.9222,24.89555-14.49508,3.51152-.5459,7.17657-.26231,10.76348-.13358,9.42882,.33836,18.85272,.81393,28.27961,1.20931,18.61437,.78071,37.22939,1.54546,55.84423,2.31419,8.5486,.35303,17.0976,.69686,25.6462,1.05007,18.61484,.76913,37.22939,1.54571,55.84441,2.31092,9.108,.3744,18.21723,.71806,27.32493,1.09841,6.63058,.27689,13.26151,.55573,19.88852,.90375,3.24494,.17041,6.21334,1.25197,9.05956,2.8498,2.47349,1.38855,3.91757,3.49966,4.83452,6.01814,1.20151,3.3003,2.27533,6.64895,3.32554,10.00141,.30518,.97403,.36798,2.02899,.49514,3.05265,.17831,1.43544-.42298,2.50372-1.29781,3.67713-2.62556,3.52199-5.0246,7.21289-7.51373,10.83677-16.8404,24.51844-33.68167,49.03638-50.51855,73.5573-.30694,.44714-.56215,.92985-.65078,1.66288,.5775-.32776,1.17726-.62193,1.72905-.98839,7.46927-4.96015,15.39849-8.86902,24.40814-9.964,9.2863-1.12862,18.26872-.14549,26.08827,5.52169,7.63276,5.53179,11.61107,13.12477,12.12631,22.61684,.41267,7.60193-1.92299,14.38868-5.84642,20.64655-2.62351,4.18437-5.6612,8.13229-8.75414,11.99321-4.5209,5.64349-8.19128,11.80078-11.77655,18.04896-3.17934,5.54069-6.45854,11.04659-10.0625,16.31543-4.84899,7.08908-11.35943,12.59432-18.53266,17.16648-6.72665,4.28754-13.80246,8.02562-20.7063,12.03701-2.41738,1.40464-4.79276,2.88302-7.16362,4.36568-1.58607,.99193-2.31241,2.29251-2.36366,4.34168-.23729,9.49427-.84906,18.96944-2.09421,28.39706-.59543,4.50785-1.07188,9.03378-1.49469,13.56156-.56385,6.03738-1.12607,12.0782-1.49685,18.12935-.33693,5.49952-.347,11.01844-.63338,16.52192-.20302,3.90103-.44389,7.81641-.99093,11.67961-.97769,6.90481-4.99736,11.93596-10.37447,16.08616-8.09586,6.2485-16.16044,12.53836-24.18449,18.87879-2.3779,1.87898-4.59073,3.96955-6.84438,6.00182-.58201,.52488-1.03229,1.19602-1.52643,1.78017,1.50769,3.30158,3.03032,6.45709,4.40363,9.67635,4.45026,10.43165,4.23359,20.80208-.45566,31.12621-5.28737,11.64094-12.91135,21.44497-22.87104,29.44571-6.35305,5.10346-12.83607,10.05668-19.00185,15.37758-4.16271,3.59227-7.88013,7.70162-11.78417,11.59243-1.43336,1.4284-1.84116,3.1343-1.89265,5.19053-.3306,13.20334-3.11045,25.76339-9.73599,37.38247-4.64854,8.15203-11.2308,13.99336-19.58539,18.06036-6.96839,3.39234-13.85606,6.95045-20.79487,10.40408-7.74851,3.85658-14.87107,8.74178-22.14435,13.38317-6.53545,4.17047-13.11179,8.2769-19.66107,12.42592-5.92878,3.7558-12.25096,6.44256-19.18918,7.79988-8.85226,1.73174-17.61521,3.92473-26.47514,5.61152-7.28611,1.38721-14.691,2.14688-21.98267,3.509-9.18025,1.71481-18.32799,3.63094-27.43711,5.69285-12.92608,2.92582-25.78037,6.16951-38.71034,9.07717-10.05725,2.26166-20.14368,4.4284-29.81418,8.03461-9.35021,3.48668-18.62231,7.20129-27.81817,11.07809-7.64535,3.22318-15.58063,5.2377-23.71369,6.5949-6.8054,1.13578-13.67655,1.34496-20.54475,.89479-8.28295-.54287-16.29453-2.22287-23.57633-6.48416-.12906-.07553-.30713-.06727-.47145-.0999-1.55112,1.694-3.00283,3.49781-4.67656,5.0642-4.1822,3.914-9.32281,6.19137-14.70591,7.78108-6.9647,2.05682-14.00375,3.88494-21.06477,5.5875-17.63646,4.25262-32.93838,12.9061-46.59012,24.62696-4.11253,3.53086-7.88787,7.45723-11.7797,11.24151-1.48635,1.44522-3.19483,1.79865-4.73714,.80725-1.64914-1.06008-2.19719-2.94029-1.28838-4.84119,.372-.77813,.90989-1.51658,1.51063-2.13961,10.27483-10.65657,21.77064-19.71141,34.75484-26.89712,9.11437-5.04404,18.90512-8.10164,28.90766-10.68012,6.33821-1.63389,12.66951-3.30791,18.9489-5.15145,3.44892-1.01244,6.73732-2.51033,9.65463-4.69108,1.73946-1.30037,3.31756-2.74893,4.35994-4.88467-1.76008-1.25754-3.51616-2.49006-5.24918-3.75422-8.01645-5.84766-15.51546-12.30703-22.79726-19.04362-14.66902-13.57055-26.58459-29.32454-37.13781-46.2023-5.43094-8.68565-10.54026-17.53102-14.63477-26.93714-2.81987-6.47783-5.07077-13.12782-5.68392-20.20928-.84957-9.81194,2.17666-18.20555,9.8906-24.49477,5.87089-4.78652,12.61505-4.95311,19.51706-2.55756,6.09068,2.11395,11.05098,5.9533,15.59595,10.44369,6.48281,6.405,11.56617,13.85702,16.3474,21.53503,9.56016,15.35245,17.91331,31.3578,25.70394,47.66995,5.13447,10.75043,8.83774,21.93522,10.32771,33.77022,1.134,9.00774,1.44985,18.01635-1.91705,26.98184,.78089,.45762,1.49448,.91564,2.24245,1.30799,6.36612,3.33932,13.25467,4.47662,20.33442,4.86703,11.21929,.61869,22.13641-1.05826,32.781-4.47481,3.86444-1.24037,7.57477-2.97668,11.32013-4.56973,11.54974-4.91274,23.2027-9.56391,35.33955-12.82096,7.39848-1.98545,14.90413-3.57088,22.35976-5.34375,10.64161-2.53043,21.26172-5.15555,31.92802-7.57694,9.80813-2.22656,19.63978-4.36776,29.50997-6.29613,6.41745-1.25379,12.94447-1.93734,19.38245-3.09809,7.06706-1.274,14.09168-2.78584,21.12793-4.22783,3.05044-.62525,6.0623-1.46027,9.12894-1.98059,6.25704-1.06189,11.91526-3.53918,17.22495-6.91776,10.24842-6.52119,20.49379-13.04713,30.73957-19.57254,6.68916-4.26024,13.85061-7.62791,20.93346-11.15145,5.0058-2.49035,9.94224-5.12151,14.88928-7.72846,6.3254-3.33346,10.62781-8.59102,13.88939-14.80442,4.48447-8.54297,6.78042-17.64147,7.55034-27.27042,.70696-8.84127,.02044-17.45754-3.15579-25.69091-2.11993-5.49533-4.79633-10.81149-7.61911-15.99223-5.65986-10.38744-11.39838-20.72467-16.3012-31.5044-2.02785-4.45878-4.70741-8.551-7.86378-12.28998-4.90932-5.81549-10.34753-11.09945-16.71985-15.30352-2.11559-1.3957-4.49039-2.42944-6.81943-3.46468-8.68315-3.85963-17.42387-7.59032-26.09021-11.48684-7.31888-3.29066-14.01773-7.65507-20.52849-12.3136-5.49699-3.93322-11.32115-7.21307-17.90358-8.97651-1.07839-.2889-2.15876-.59323-3.25686-.78158-4.16218-.71391-7.88528,.22869-11.25868,2.83723-4.42396,3.42091-7.10754,7.94391-8.65415,13.20452-1.53174,5.21007-1.62909,10.52335-1.07657,15.90185,.67163,6.53851,1.94938,12.94125,3.80792,19.238,2.72891,9.24574,7.3663,17.48306,13.12237,25.15697,5.64972,7.53217,12.11562,14.23957,19.78871,19.71083,2.65906,1.89609,5.42863,3.71719,8.36001,5.13258,4.51839,2.18168,8.04868,5.47512,11.29175,9.13518,4.89778,5.52762,8.95734,11.69034,12.56586,18.09235,3.44351,6.1091,5.71386,12.67723,5.14521,19.9002-.41068,5.21684-2.08092,9.84961-6.3319,13.19854-2.65209,2.0894-5.76026,2.57813-9.04064,2.20488-6.51709-.74145-12.4058-3.49787-18.5056-5.63707-6.61304-2.3192-13.39416-4.15893-20.20846-6.24024-.67433,.92344-1.19961,1.60465-1.68497,2.31328-4.51827,6.59672-8.92533,13.27284-13.57299,19.77692-4.44704,6.22324-10.11229,11.0717-17.22627,14.1044-7.79065,3.32115-15.64782,3.24768-23.65113,.76992-4.62089-1.43057-8.79286-3.77086-13.04879-5.94381-31.25117-15.95573-62.48193-31.95153-93.72121-47.93058-31.73721-16.23381-63.47686-32.46288-95.21489-48.69511-.64035-.32754-1.27495-.66645-1.91055-1.00318-4.4424-2.35395-6.57241-6.19178-6.86866-11.07229-.33806-5.56934,1.59807-10.53683,4.48971-15.15947,1.14115-1.82435,2.47149-3.54246,3.82779-5.21816,44.38162-54.83184,88.77712-109.6524,133.17023-164.47493,51.23831-63.27591,102.47646-126.55191,153.7126-189.82955,.63256-.78121,1.23774-1.58462,2.05204-2.6296-2.92758-.72493-5.42508-.53471-7.833,.35632-6.16045,2.27969-12.16532,4.94055-17.56847,8.70888-6.29216,4.38829-12.49176,8.91517-18.62896,13.51874-11.32162,8.49248-22.95899,16.52602-34.69252,24.43391-11.48121,7.73785-22.46716,16.14211-32.20576,26.02876-4.02957,4.0908-7.66899,8.56921-11.44029,12.91093-11.99454,13.80885-25.69406,25.5778-41.52814,34.79573-7.59641,4.42231-15.1998,8.83436-23.24086,12.42616-6.07557,2.71386-12.49789,4.38671-18.82856,6.34919-18.26497,5.66209-35.05828,14.09016-50.02881,26.15711-12.94161,10.43157-25.8027,20.95049-38.1463,32.08105-5.33984,4.81509-10.36781,9.97606-15.54296,14.97416-8.56706,8.27403-17.19153,16.48934-25.69469,24.82849-10.37522,10.17516-20.00619,20.99394-26.04663,34.40321-3.34152,7.41794-6.15286,15.08757-8.94129,22.73924-5.03158,13.80703-9.63035,27.77576-14.85765,41.50639-4.26821,11.21136-9.5145,21.99859-16.49398,31.85553-3.90127,5.50975-8.33654,10.54846-13.39841,14.97909-7.63005,6.67846-15.47912,13.10614-23.13384,19.75711-4.70209,4.08545-9.22863,8.37393-13.80736,12.60012-1.99679,1.84307-3.90911,3.77736-5.89221,5.63567-1.87011,1.75236-3.9632,1.79731-5.51329,.17842-1.50363-1.57037-1.41251-3.73553,.42208-5.51842,4.01204-3.89906,7.96788-7.87067,12.1772-11.54866,8.47942-7.40901,17.04668-14.72121,25.69835-21.92842,12.52326-10.43233,21.81998-23.20114,28.4665-38.04306,4.54622-10.1519,8.56029-20.49203,12.04806-31.04611,.47631-1.44135,.9928-2.86954,1.4998-4.30058,3.62594-10.23478,7.10697-20.52393,10.91789-30.68933,5.13596-13.6999,12.77644-25.87627,22.76045-36.61712,7.08207-7.61886,14.57826-14.799,22.15925-21.90399,2.74141-2.56916,5.47299-5.15528,8.09254-7.84711,13.56145-13.93568,27.97561-26.92867,42.99048-39.27482,8.5826-7.05715,17.20707-14.04768,26.29203-20.45921,8.27736-5.84159,17.16945-10.51228,26.61997-14.09784,5.89402-2.23617,11.80417-4.49602,17.85098-6.24829,10.50788-3.04509,20.36261-7.43647,29.89449-12.773,11.54737-6.46496,22.55652-13.635,32.4712-22.43911,6.17058-5.4794,11.90574-11.38437,17.10862-17.77319,10.58883-13.00244,23.15642-23.8017,36.79643-33.4146,10.45294-7.36675,21.05093-14.52825,31.47279-21.93808,7.75126-5.51105,15.32811-11.26776,22.9746-16.92588,6.71762-4.97084,13.97192-8.95023,21.70983-12.11265,5.92503-2.4215,11.83823-3.23771,18.12682-.62597Zm161.14981,149.51988c.6984-.94515,1.13696-1.50791,1.54319-2.09306,4.65124-6.69973,9.29872-13.40201,13.94492-20.10519,21.31801-30.75588,42.63632-61.51157,63.95251-92.2687,9.47386-13.66982,18.95376-27.3355,28.39594-41.02718,.85299-1.23683,1.61951-2.5893,2.12789-3.99596,.98197-2.71669,.10204-4.92508-2.5087-6.18911-1.41145-.68341-2.99699-1.21471-4.54703-1.36246-3.65585-.34844-7.33631-.45369-11.00885-.60828-18.61285-.78345-37.22623-1.55364-55.83966-2.3235-8.54789-.35354-17.09649-.69016-25.64438-1.04406-18.53348-.76731-37.06661-1.54301-55.60009-2.31081-8.70763-.36075-17.41573-.70899-26.12348-1.06678-14.93878-.61381-29.87698-1.24292-44.81693-1.82749-1.5091-.05905-3.07396-.0635-4.53543,.25871-7.64102,1.68459-14.20424,5.26856-19.19006,11.42455-50.38424,62.20981-100.75919,124.42717-151.13774,186.64162-53.04593,65.5085-106.09931,131.01103-159.1113,196.54702-1.74582,2.15827-3.32613,4.5334-4.52073,7.02914-.97608,2.03927-1.48271,4.37883-1.79889,6.64102-.47297,3.38391,1.04869,5.68125,4.19219,7.27541,21.81149,11.06139,43.57028,22.22678,65.3434,33.36376,42.5503,21.76454,85.10768,43.51513,127.63499,65.32449,4.42443,2.26898,8.96291,2.83734,13.7088,1.71117,8.1446-1.93272,14.44894-6.62115,19.25865-13.37332,3.24714-4.55854,6.39004-9.19137,9.57848-13.7918,10.79511-15.57545,21.5942-31.14809,32.37226-46.73538,.60623-.87674,1.03686-1.87494,1.54246-2.80424-.55179-.47396-.83518-.75457-1.15418-.98602-9.54436-6.92379-17.49393-15.38555-24.1813-25.06676-11.41464-16.52467-16.75596-34.85377-15.92377-54.89087,.38567-9.28565,3.84168-17.39031,10.75047-23.84336,5.42854-5.0705,11.70441-7.29648,19.12542-5.85674,7.89155,1.53106,14.98752,4.85798,21.63394,9.31149,5.30805,3.55673,10.52539,7.32841,16.14917,10.3147,7.53628,4.00184,15.41852,7.35372,23.1696,10.9471,1.56972,.72771,3.21682,1.28842,4.95501,1.97628,2.70756-3.9034,5.29311-7.63087,8.0582-11.61718-1.73368-2.33013-3.39507-4.65501-5.15353-6.90396-2.31639-2.9625-5.26189-5.10173-8.80434-6.39841-3.44861-1.26226-6.86629-2.61709-10.34952-3.7749-14.92941-4.96245-27.51692-13.52848-37.80309-25.29434-9.3112-10.65065-15.66047-22.92396-17.96107-37.05077-.98806-6.06727-.95564-12.14007,1.25611-17.95542,3.19524-8.40112,8.59502-14.66561,17.89283-16.25666,3.16812-.54214,6.56594-.43151,9.76581,.02833,10.76506,1.54714,21.27232,4.35504,31.72335,7.29138,6.52919,1.83445,12.89711,4.23598,19.37129,6.27522,10.28292,3.23895,20.59887,6.36501,30.61568,10.3967,5.33535,2.14743,10.74327,4.11489,15.76593,6.96065,2.5572,1.44885,5.09167,2.9378,7.84703,4.53035,4.74531-6.84835,9.41359-13.58555,14.1415-20.40888-.83266-1.09031-1.51314-2.06564-2.27826-2.96924-4.44124-5.24511-8.88541-10.4831-12.68097-16.23624-10.20952-15.47497-16.25862-32.13991-14.71982-51.00488,1.20614-14.78611,8.50056-25.56743,21.67169-32.18157,5.70514-2.86496,11.90466-3.5088,18.20311-1.80681,5.22522,1.41196,10.12552,3.57254,14.3754,6.92505,5.07773,4.00547,9.95501,8.26399,14.96297,12.35926,4.0093,3.27856,8.08421,6.47684,12.3629,9.89696Zm-62.45086,279.58853c.69577-.62438,1.27333-1.11867,1.82418-1.64127,2.6088-2.47459,5.08142-5.11213,7.84047-7.4052,6.39007-5.31088,12.90461-10.47264,19.3925-15.66516,9.09845-7.28197,15.9679-16.28309,20.69921-26.90831,3.25138-7.30178,3.9038-14.83125,1.1027-22.39773-1.40946-3.80736-3.2112-7.4845-5.03983-11.1177-2.29817-4.56601-5.01868-8.92699-7.18038-13.55253-5.30946-11.36092-10.4194-22.81542-15.57867-34.24624-4.37247-9.68754-8.79145-19.34245-14.10337-28.57428-3.30358-5.7414-7.70176-10.2755-13.10599-14.06564-12.34679-8.65907-26.40259-13.50853-40.4048-18.47839-5.26353-1.86826-10.74772-3.12123-15.99063-5.03965-13.38001-4.89586-27.09379-8.57335-40.97539-11.66895-4.67417-1.04232-9.37607-1.98738-14.22767-1.73944-3.33594,.17045-6.17102,1.33313-8.62601,3.62197-4.49815,4.19382-6.32291,9.4955-6.52488,15.45803-.18044,5.32726,.75859,10.53422,2.49903,15.53095,4.28596,12.30469,11.09554,23.00145,21.01634,31.55295,6.25461,5.39133,12.91351,10.24738,20.62207,13.38657,4.95238,2.01671,9.98178,3.86827,15.0557,5.55612,6.84403,2.27669,12.24674,6.34319,16.52227,12.12053,3.99425,5.39731,6.82271,11.36359,9.07115,17.62688,2.53687,7.06653,4.91881,14.1886,7.42757,21.26541,.39158,1.10452,.94343,2.22715,1.68746,3.11915,4.01674,4.81562,7.47572,9.99768,10.05857,15.70155,4.98477,11.00851,10.99063,21.4716,16.71042,32.09342,2.79549,5.19135,5.14843,10.63834,7.42364,16.08581,1.21217,2.90238,1.83214,6.05221,2.80433,9.38115Zm48.39359-95.84921c1.17176-1.02677,1.9821-1.77724,2.83409-2.47688,5.73765-4.71158,11.44519-9.46096,17.23994-14.10132,4.67566-3.74417,9.51001-7.29024,14.17741-11.04434,2.82296-2.2706,4.6534-5.28694,5.24924-8.88841,.45473-2.74878,.77824-5.53509,.91947-8.31695,.39662-7.81078,.55747-15.6346,1.02526-23.44044,.37676-6.28723,1.02022-12.56013,1.62631-18.83157,.8896-9.2066,1.97964-18.39563,2.73738-27.61249,.50282-6.11578,.90875-12.26625,.05541-18.40313-.85609-6.15665-2.55585-12.04474-5.88333-17.34039-5.26898-8.3855-12.19783-15.12832-20.47129-20.56099-7.61782-5.00212-14.9519-10.40186-21.89733-16.31658-4.13377-3.52025-8.27932-7.02668-12.43459-10.52148-3.57677-3.00823-7.5586-5.28853-11.93154-6.98744-5.20548-2.02236-10.39474-2.04612-15.38062,.22699-9.13981,4.16688-14.95794,11.2918-17.23754,21.09146-1.2376,5.32014-1.16965,10.75412-.63696,16.19602,.70719,7.22318,2.59234,14.11913,5.43024,20.76683,4.31337,10.1042,10.64861,18.89702,17.72982,27.20394,1.70884,2.00461,3.44533,4.00412,4.95642,6.15548,5.21275,7.4216,9.03958,15.61436,12.84246,23.79765,3.61643,7.78201,5.66724,16.11873,7.91961,24.35005,1.93822,7.08352-3.07132,13.37409-10.43773,13.70101-.54716,.02429-1.09215,.09782-2.04741,.18647,8.14302,16.93873,14.79281,34.31008,23.61531,51.16648Zm53.03598-135.69267c.62202-.30624,.97541-.46096,1.31064-.64828,2.9964-1.67435,6.01413-3.31233,8.97837-5.04188,5.65388-3.2988,11.40822-6.45003,16.87788-10.03363,6.30009-4.12767,12.07283-8.95679,16.40084-15.24405,2.08197-3.02441,4.04655-6.13691,5.92579-9.29203,2.8608-4.80299,5.36346-9.83602,8.45482-14.48063,3.62281-5.44321,7.65678-10.618,11.61769-15.82916,3.60764-4.74633,6.79249-9.70538,8.2105-15.56907,1.82342-7.53961,.42105-14.42344-4.64872-20.39916-4.10249-4.83554-9.52781-7.05226-15.71333-7.69944-8.7409-.91456-16.75833,1.29186-24.38389,5.43854-8.45575,4.5981-15.53725,10.87578-22.1594,17.75144-2.27182,2.35882-4.46684,4.834-6.99692,6.88585-1.52696,1.23832-2.76854,2.5847-3.84851,4.16451-6.71938,9.82922-13.4489,19.65147-20.16494,29.48298-2.33725,3.42147-4.64567,6.86265-7.02907,10.38624,13.63277,10.22048,24.27493,22.36685,27.16824,40.12776ZM214.2628,608.89476c.41817-1.73777,.75941-2.87508,.95987-4.0367,.94542-5.4784,.75357-10.96448,.15716-16.46889-1.10234-10.17381-3.74498-19.9169-7.97243-29.22786-7.83776-17.26266-16.60433-34.03894-26.58567-50.16066-4.96857-8.02518-10.20301-15.87809-17.19828-22.35633-3.85044-3.5659-8.03029-6.62854-13.23477-7.87758-4.66863-1.12049-8.85129-.27586-12.28785,3.36873-2.47819,2.62834-4.11406,5.68049-4.98686,9.15082-.97875,3.89156-.50206,7.77762,.22707,11.63948,1.25678,6.6566,3.89285,12.82319,6.82237,18.87651,5.27125,10.89205,11.74177,21.07547,18.49905,31.08042,6.90215,10.2194,14.56482,19.84208,23.21547,28.63911,6.8392,6.9549,14.15919,13.39248,21.81727,19.43315,3.3145,2.61463,6.74817,5.07809,10.5676,7.93981Zm224.23242-120.18917c1.26155,.35771,2.15452,.64189,3.06274,.86338,6.98942,1.70525,13.78817,3.9627,20.48321,6.61266,3.5406,1.40133,7.28772,2.32078,10.99353,3.25061,2.74341,.68836,4.54908-.24018,6.10943-2.62617,1.56205-2.38863,1.78921-5.11272,1.7837-7.82074-.01049-5.1061-2.11876-9.70565-4.48605-13.98141-3.28085-5.92588-7.10373-11.57491-11.59511-16.70561-.98352-1.12359-2.08467-2.14412-3.26638-3.34951-7.71026,11.27455-15.27504,22.33635-23.08508,33.75681Zm137.88959-201.14285c3.91101,4.05237,6.52866,8.80043,9.24636,13.48826,.63491,1.09529,1.45316,2.10809,2.31171,3.04456,1.58278,1.72641,3.46314,3.08191,5.71111,3.81152,2.81124,.91251,5.03585-.83936,4.59899-3.74933-.30512-2.03323-.96885-4.01534-1.51103-6.00979-2.15771-7.93761-4.63729-15.75777-8.51779-23.05917-.42591-.8013-.85726-1.59964-1.44302-2.69194-3.55967,5.1927-6.8875,10.04725-10.39632,15.16588Zm-173.49885,234.76723c4.45969-2.30145,7.80096-5.79598,10.60292-9.83227,3.27883-4.7233,6.47254-9.50567,9.7248-14.24754,10.39082-15.15,20.79299-30.2921,31.18299-45.44269,.39067-.56959,.70001-1.19502,1.24255-2.13152-.8012,.0968-1.33275,.00434-1.60124,.22787-.47789,.39791-.8157,.97377-1.17905,1.49807-10.60327,15.29836-21.10459,30.66874-31.84159,45.87259-5.78527,8.19217-10.58312,17.15901-18.13138,24.05549Zm106.83667-150.99546c1.49861-1.47882,3.09791-2.89553,3.29192-5.15277-1.44373,1.50308-2.75524,3.08528-3.29192,5.15277Zm8.63787,5.59275c-.38795-1.18433-.65002-1.98434-.97318-2.97076q-1.16033,1.58098,.97318,2.97076Z"/></svg>