<svg width="1.4rem" height="1.5rem" viewBox="0 0 14 15" fill="none"
	xmlns="http://www.w3.org/2000/svg">
	<path d="M6.99825 5.02114C5.71288 5.02114 4.66392 6.0701 4.66392 7.35547C4.66392 8.64084 5.71288 9.6898 6.99825 9.6898C8.28362 9.6898 9.33258 8.64084 9.33258 7.35547C9.33258 6.0701 8.28362 5.02114 6.99825 5.02114ZM13.9995 7.35547C13.9995 6.38882 14.0082 5.43092 13.9539 4.46602C13.8997 3.34526 13.644 2.35059 12.8244 1.53103C12.0031 0.709728 11.0102 0.455807 9.88945 0.40152C8.9228 0.347234 7.9649 0.35599 7 0.35599C6.03335 0.35599 5.07545 0.347234 4.11055 0.40152C2.98979 0.455807 1.99512 0.71148 1.17556 1.53103C0.35426 2.35234 0.100338 3.34526 0.0460516 4.46602C-0.00823506 5.43267 0.000520879 6.39057 0.000520879 7.35547C0.000520879 8.32037 -0.00823506 9.28002 0.0460516 10.2449C0.100338 11.3657 0.356011 12.3603 1.17556 13.1799C1.99687 14.0012 2.98979 14.2551 4.11055 14.3094C5.0772 14.3637 6.0351 14.3549 7 14.3549C7.96665 14.3549 8.92455 14.3637 9.88945 14.3094C11.0102 14.2551 12.0049 13.9995 12.8244 13.1799C13.6457 12.3586 13.8997 11.3657 13.9539 10.2449C14.01 9.28002 13.9995 8.32212 13.9995 7.35547ZM6.99825 10.9471C5.01066 10.9471 3.40657 9.34306 3.40657 7.35547C3.40657 5.36788 5.01066 3.76379 6.99825 3.76379C8.98584 3.76379 10.5899 5.36788 10.5899 7.35547C10.5899 9.34306 8.98584 10.9471 6.99825 10.9471ZM10.737 4.45551C10.273 4.45551 9.89821 4.08076 9.89821 3.61669C9.89821 3.15263 10.273 2.77788 10.737 2.77788C11.2011 2.77788 11.5758 3.15263 11.5758 3.61669C11.576 3.72689 11.5544 3.83602 11.5123 3.93786C11.4702 4.03969 11.4084 4.13222 11.3305 4.21013C11.2525 4.28805 11.16 4.34983 11.0582 4.39194C10.9564 4.43405 10.8472 4.45565 10.737 4.45551Z" fill="white"/>
</svg>
