<svg width="1.2rem" height="1.2rem" viewBox="0 0 12 12" fill="none" xmlns="http://www.w3.org/2000/svg">
<path d="M2.66797 11.8333H0.167969V3.5H2.66797V11.8333ZM11.8346 11.8333H9.3346V7.3817C9.3346 6.2217 8.9213 5.64417 8.1021 5.64417C7.453 5.64417 7.0413 5.9675 6.8346 6.615C6.8346 7.6667 6.8346 11.8333 6.8346 11.8333H4.33464C4.33464 11.8333 4.36797 4.33333 4.33464 3.5H6.308L6.4605 5.16667H6.5121C7.0246 4.33333 7.8438 3.76833 8.9671 3.76833C9.8213 3.76833 10.5121 4.00583 11.0396 4.6025C11.5705 5.2 11.8346 6.0017 11.8346 7.1275V11.8333Z" fill="currentColor"/>
<path d="M1.41667 2.66669C2.13003 2.66669 2.70833 2.10705 2.70833 1.41669C2.70833 0.726337 2.13003 0.166687 1.41667 0.166687C0.7033 0.166687 0.125 0.726337 0.125 1.41669C0.125 2.10705 0.7033 2.66669 1.41667 2.66669Z" fill="currentColor"/>
</svg>
