<svg width="8.2rem" height="2.6rem" viewBox="0 0 82 26" xmlns="http://www.w3.org/2000/svg">
<path d="M81.7591 16.4752C81.6839 11.5541 78.1747 7.25342 71.9781 7.25342C68.6612 7.25342 66.5077 7.96359 64.298 9.63115C64.2503 9.6673 64.2347 9.73494 64.2646 9.78508L66.1983 13.1155C66.2342 13.1762 66.313 13.1913 66.3691 13.1482C67.7105 12.1045 69.637 11.4818 71.529 11.4818C76.1012 11.4818 76.6769 15.1481 76.7462 15.8769C76.7522 15.9446 76.6972 16.0017 76.6267 16.0017H63.616C63.5527 16.0017 63.4978 16.0519 63.493 16.1137C63.0929 21.6726 66.0013 25.9884 71.2292 25.9884C76.3437 25.9884 77.0364 21.3064 77.046 21.1805C77.2001 21.1805 77.464 21.1805 77.464 21.1805L77.3553 25.3587C77.3541 25.424 77.4079 25.4788 77.4748 25.4788H81.7854C81.8523 25.4788 81.906 25.4252 81.9048 25.3599L81.7591 16.4752ZM72.2385 22.1612C69.3946 22.1612 68.6648 19.5094 68.5382 18.9159C68.5239 18.8494 68.5728 18.7911 68.6409 18.7829L76.5754 17.7346C76.6494 17.7253 76.7187 17.7871 76.7163 17.8594C76.6399 20.5088 74.4386 22.1612 72.2385 22.1612Z" fill="currentColor"/>
<path d="M4.81423 8.49276C-1.42059 11.7731 -1.56989 21.1767 4.88948 24.7498C8.25891 26.6296 13.8535 26.4815 17.4989 23.6839C17.5467 23.6478 17.5598 23.5813 17.5311 23.53L15.632 20.2333C15.5974 20.1727 15.5197 20.1564 15.4624 20.1984C14.0888 21.2094 12.1969 21.8333 10.3396 21.8333C5.90712 21.8333 5.21914 18.1763 5.12597 17.4416C5.11761 17.374 5.17256 17.3134 5.24303 17.3134H18.2131C18.2776 17.3134 18.3326 17.262 18.3362 17.1991C18.8557 9.46764 11.6869 4.90225 4.81423 8.49276ZM5.29319 15.6178C5.21914 15.6283 5.15106 15.5642 5.15225 15.4919C5.21794 12.3561 7.42402 11.1539 9.63129 11.1539C12.7356 11.1539 13.2133 13.8639 13.2802 14.4377C13.2874 14.5006 13.2408 14.5508 13.1763 14.559L5.29319 15.6178Z" fill="currentColor"/>
<path d="M60.7024 0.116613C60.7024 0.0524758 60.6487 0 60.583 0H55.035C54.9693 0 54.9155 0.0524758 54.9155 0.116613V8.62119C54.9155 8.71098 54.8152 8.76112 54.7364 8.71564C47.9354 4.78113 41.6253 9.28938 41.6253 17.022C41.6253 21.5057 43.8732 25.9883 48.7189 25.9883C53.272 25.9883 54.4999 22.6462 54.4999 22.6462H54.9167V25.3621C54.9167 25.4263 54.9705 25.4787 55.0361 25.4787H60.62C60.6869 25.4787 60.7407 25.4263 60.7395 25.361L60.7036 21.6154V0.116613H60.7024ZM54.9155 21.4929C54.9155 21.5454 54.8773 21.5932 54.8259 21.6084C50.2848 22.9436 47.337 21.1477 47.337 16.6931C47.337 12.3353 50.4711 10.0765 54.7602 11.7814C54.8522 11.8175 54.9155 11.9085 54.9155 12.0053V21.4929Z" fill="currentColor"/>
<path d="M39.2683 0.116613C39.2683 0.0524758 39.2145 0 39.1488 0H33.6008C33.5351 0 33.4814 0.0524758 33.4814 0.116613V8.62119C33.4814 8.71098 33.381 8.76112 33.3022 8.71564C26.5012 4.78113 20.1912 9.28938 20.1912 17.022C20.1912 21.5057 22.439 25.9883 27.2848 25.9883C31.8379 25.9883 33.0657 22.6462 33.0657 22.6462H33.4826V25.3621C33.4826 25.4263 33.5363 25.4787 33.602 25.4787H39.1859C39.2528 25.4787 39.3065 25.4263 39.3053 25.361L39.2695 21.6154V0.116613H39.2683ZM33.4814 21.332C33.4814 21.3821 33.4467 21.4276 33.4002 21.4451C28.8709 23.1127 25.9028 21.1501 25.9028 16.6931C25.9028 12.3353 29.037 10.0765 33.3261 11.7826C33.4181 11.8187 33.4814 11.9097 33.4814 12.0065V21.332Z" fill="currentColor"/>
</svg>
