<svg width="50" height="82" viewBox="0 0 50 82" fill="none" xmlns="http://www.w3.org/2000/svg">
<path d="M31.06 81.0095C29.61 80.8891 28.24 80.8391 26.88 80.6586C22.16 80.0269 17.8 78.4124 13.86 75.7251C6.54999 70.7316 2.07996 63.8429 0.459961 55.1092C0.119961 53.2943 0 51.4493 0 49.6043V2.94817C0 1.42404 0.730007 0.391128 2.07001 0.0702587C2.35001 6.85453e-05 2.63998 0 2.91998 0C18.34 0 33.75 0 49.17 0H49.57C50.13 24.0251 30.84 48.321 2.34998 49.7649H28.14C29.31 49.7649 30.2599 50.1861 30.7599 51.279C30.9599 51.7302 31.04 52.2717 31.04 52.7731C31.06 60.4839 31.05 68.1947 31.05 75.9156V80.4679C31.05 80.6083 31.05 80.7588 31.05 81.0195L31.06 81.0095Z" fill="#F7F6F2"/>
</svg>
