<svg width="2318" height="207" viewBox="0 0 2318 207" fill="none" xmlns="http://www.w3.org/2000/svg">
<path d="M35.6559 89.5899C32.8673 90.0231 29.9569 90.5104 26.9246 91.0383C23.8789 91.5663 20.8466 92.1619 17.8279 92.7981C14.8092 93.4343 11.8853 94.0841 9.08318 94.7474C6.28106 95.4107 3.77676 96.074 1.5838 96.7509C1.81393 94.7474 1.81393 92.9876 1.5838 91.485C1.39429 90.3073 0.866354 88.6829 0 86.6389C7.09327 85.7455 14.0241 84.852 20.7925 83.9586C27.5609 83.0652 34.4782 82.0634 41.5308 80.9534C48.5835 79.8434 55.4737 78.6793 62.2015 77.4609C68.9157 76.2426 75.7924 74.9702 82.818 73.6571C82.615 75.8771 82.615 77.6369 82.818 78.9229C83.0346 80.3172 83.5625 81.9281 84.4018 83.7691C82.1006 83.7962 79.515 83.9315 76.6588 84.1616C73.789 84.3918 70.8244 84.6625 67.7516 84.9874C64.6787 85.2987 61.6059 85.6778 58.5601 86.0974C55.5008 86.517 52.5768 86.9502 49.8018 87.3834C51.2096 98.4565 52.7934 109.557 54.5261 120.684L58.8579 148.285C59.9679 155.352 61.1862 162.282 62.5264 169.091C63.8665 175.9 65.2202 182.588 66.5874 189.166C64.0966 189.342 61.457 189.64 58.6684 190.073C55.8798 190.507 53.2808 191.021 50.8577 191.63C50.1402 184.943 49.3686 178.161 48.57 171.271C47.7578 164.381 46.8102 157.409 45.7002 150.343L41.3684 122.741C39.5951 111.614 37.6999 100.555 35.6559 89.5899Z" fill="white"/>
<path d="M189.569 80.047C188.378 73.265 187.132 66.3613 185.846 59.3221C187.268 59.3492 188.635 59.3492 189.948 59.3357C191.261 59.3221 192.561 59.2274 193.847 59.0514C195.133 58.8754 196.405 58.6182 197.678 58.2798C198.936 57.9414 200.263 57.5759 201.63 57.1698C202.266 64.2901 202.93 71.2887 203.58 78.1383C204.243 84.9879 205.055 91.9593 206.016 99.039L209.793 126.722C210.754 133.801 211.837 140.759 213.042 147.595C214.247 154.432 215.465 161.146 216.697 167.752C214.192 167.874 211.553 168.131 208.764 168.51C205.976 168.889 203.363 169.349 200.926 169.904C200.344 163.203 199.722 156.408 199.045 149.504C198.381 142.6 197.556 135.602 196.595 128.522L194.618 114.038C188.811 114.715 183.193 115.405 177.765 116.082C172.337 116.772 166.732 117.503 160.939 118.288C155.145 119.073 149.541 119.872 144.126 120.657C138.711 121.456 133.121 122.295 127.34 123.189L129.317 137.673C130.278 144.753 131.361 151.711 132.566 158.547C133.77 165.383 134.989 172.097 136.221 178.703C133.716 178.825 131.077 179.082 128.288 179.461C125.499 179.84 122.887 180.3 120.45 180.855C119.868 174.155 119.232 167.359 118.569 160.455C117.905 153.552 117.08 146.553 116.118 139.473L112.342 111.804C111.381 104.724 110.298 97.7937 109.093 91.0117C107.902 84.2433 106.656 77.3261 105.37 70.2869C106.792 70.314 108.159 70.314 109.472 70.3005C110.785 70.2869 112.084 70.1922 113.37 70.0162C114.656 69.8402 115.929 69.583 117.201 69.2446C118.46 68.9062 119.787 68.5407 121.154 68.1346C121.804 75.2549 122.454 82.2534 123.117 89.1031C123.78 95.9527 124.592 102.924 125.554 110.004L126.325 115.635C132.132 114.958 137.75 114.295 143.192 113.659C148.62 113.023 154.238 112.319 160.032 111.52C165.825 110.735 171.43 109.909 176.831 109.07C182.232 108.231 187.823 107.351 193.603 106.457L192.831 100.826C191.857 93.7597 190.774 86.8289 189.569 80.047Z" fill="white"/>
<path d="M238.68 73.63C237.598 66.7804 236.487 59.9308 235.35 53.0812C240.21 52.7293 245.056 52.3367 249.848 51.9306C254.654 51.5245 259.473 51.0372 264.319 50.4686C269.152 49.9001 273.93 49.2503 278.641 48.5329C283.352 47.8154 288.117 47.0573 292.936 46.2722C292.8 47.9237 292.828 49.5617 293.031 51.1725C293.22 52.7834 293.572 54.3807 294.086 55.951C290.621 56.1405 287.453 56.303 284.57 56.4248C281.7 56.5466 278.655 56.6955 275.46 56.8444C272.265 57.0069 268.773 57.2235 264.982 57.5077C261.192 57.792 256.671 58.2387 251.405 58.875C251.703 62.3268 251.96 65.6298 252.163 68.7568C252.366 71.8973 252.705 75.4575 253.178 79.4373C253.679 83.6337 254.18 87.7218 254.708 91.6881C255.236 95.6679 255.615 98.6731 255.859 100.717C260.596 100.162 264.833 99.6071 268.583 99.0521C272.333 98.4971 275.758 97.9556 278.858 97.4277C281.958 96.8998 284.814 96.3989 287.426 95.9251C290.039 95.4513 292.516 94.964 294.858 94.4767C294.723 96.1282 294.763 97.8203 294.966 99.5394C295.156 101.15 295.508 102.748 296.022 104.318C293.193 104.331 289.904 104.44 286.167 104.67C282.431 104.9 278.709 105.198 274.986 105.59C271.263 105.983 267.771 106.335 264.482 106.673C261.192 107.012 258.579 107.296 256.644 107.513C256.752 108.474 256.86 109.53 256.928 110.667C257.009 111.804 257.145 113.225 257.348 114.958L258.092 121.252L259.243 130.931C259.974 137.063 260.596 142.113 261.124 146.092C261.652 150.072 262.086 153.064 262.437 155.094C265.984 154.675 269.747 154.228 273.727 153.754C277.815 153.267 281.809 152.712 285.721 152.089C289.619 151.467 293.315 150.803 296.78 150.126C300.246 149.45 303.237 148.678 305.755 147.839C305.633 148.624 305.593 149.463 305.647 150.384C305.701 151.304 305.769 152.143 305.863 152.888C306.067 154.607 306.391 155.988 306.838 157.03C301.978 157.382 297.146 157.856 292.367 158.411C287.575 158.979 282.716 159.548 277.775 160.144C272.82 160.726 267.933 161.308 263.101 161.876C258.255 162.445 253.381 163.135 248.454 163.934C247.967 157.017 247.439 150.126 246.911 143.263C246.369 136.4 245.679 129.429 244.84 122.322L241.55 94.5714C240.724 87.4646 239.763 80.4932 238.68 73.63Z" fill="white"/>
<path d="M374.495 79.8439C373.805 72.7236 372.992 65.7657 372.058 58.9431C371.124 52.1206 370.15 45.1762 369.134 38.0965C371.747 38.0694 374.373 38.0017 377.026 37.907C379.68 37.8122 382.306 37.6362 384.891 37.3926C386.191 37.2708 387.747 37.0677 389.561 36.7699C391.389 36.4856 393.23 36.2284 395.111 35.9848C396.993 35.7546 398.793 35.4974 400.499 35.2132C402.218 34.9424 403.667 34.7394 404.844 34.6311C406.455 34.4686 408.459 34.3333 410.841 34.2114C413.224 34.0896 415.755 34.1708 418.449 34.4551C421.143 34.7394 423.837 35.2944 426.53 36.1201C429.224 36.9459 431.715 38.286 434.016 40.127C436.317 41.968 438.267 44.364 439.851 47.315C441.434 50.2661 442.463 54.0022 442.896 58.5235C443.587 65.6438 442.612 71.5594 439.972 76.2702C437.333 80.9945 433.894 84.7984 429.657 87.7223C425.42 90.6327 420.845 92.7715 415.917 94.1117C410.99 95.4654 406.591 96.3182 402.706 96.6972C400.228 96.9409 397.954 97.1304 395.91 97.2793C393.853 97.4282 391.741 97.4959 389.561 97.4823L390.428 106.376C391.118 113.496 391.93 120.481 392.864 127.358C393.798 134.235 394.76 140.99 395.734 147.65C393.23 147.677 390.577 147.826 387.775 148.096C384.972 148.367 382.346 148.733 379.883 149.193C379.558 142.479 379.192 135.656 378.8 128.739C378.394 121.821 377.852 114.796 377.162 107.676L374.495 79.8439ZM388.925 90.6869C392.675 91.2013 396.546 91.2554 400.526 90.8628C403.87 90.538 407.281 89.8341 410.76 88.724C414.239 87.6276 417.366 85.9355 420.141 83.6477C422.916 81.36 425.068 78.3819 426.612 74.6999C428.155 71.0179 428.669 66.4154 428.128 60.9195C427.681 56.2899 426.666 52.5673 425.095 49.7923C423.525 47.0037 421.495 44.919 419.017 43.5247C416.54 42.1305 413.603 41.3047 410.205 41.034C406.807 40.7632 403.003 40.8309 398.807 41.237L384.255 42.6449L388.925 90.6869Z" fill="white"/>
<path d="M460.386 85.5159C459.655 76.338 460.481 68.0399 462.877 60.6353C465.273 53.2171 468.941 46.8143 473.896 41.4266C478.836 36.039 484.942 31.7478 492.184 28.5667C499.426 25.3855 507.467 23.4362 516.32 22.7323C525.281 22.0149 533.593 22.6511 541.241 24.6545C548.889 26.658 555.59 29.9204 561.33 34.4552C567.069 38.99 571.712 44.7296 575.259 51.674C578.806 58.6183 580.944 66.6727 581.675 75.8506C582.406 85.0286 581.581 93.3266 579.185 100.731C576.789 108.149 573.12 114.552 568.166 119.94C563.225 125.328 557.12 129.538 549.864 132.57C542.608 135.602 534.5 137.457 525.538 138.174C516.685 138.878 508.441 138.323 500.793 136.482C493.145 134.654 486.458 131.46 480.718 126.925C474.978 122.39 470.335 116.65 466.789 109.706C463.256 102.748 461.117 94.6938 460.386 85.5159ZM565.797 77.096C565.079 68.1347 563.333 60.4864 560.544 54.1376C557.756 47.7889 554.169 42.6449 549.783 38.7057C545.397 34.7665 540.388 31.9915 534.784 30.3671C529.166 28.7562 523.169 28.2012 516.807 28.702C510.553 29.2029 504.773 30.6919 499.48 33.1827C494.187 35.6735 489.693 39.2066 485.984 43.7955C482.275 48.3845 479.554 54.0294 477.808 60.7436C476.061 67.4578 475.547 75.2956 476.264 84.257C476.982 93.2183 478.728 100.867 481.517 107.215C484.305 113.564 487.893 118.708 492.278 122.647C496.664 126.586 501.673 129.362 507.277 130.986C512.895 132.597 518.824 133.165 525.092 132.664C531.467 132.15 537.288 130.661 542.581 128.17C547.874 125.68 552.368 122.146 556.077 117.557C559.786 112.968 562.507 107.324 564.254 100.609C566 93.8952 566.514 86.0574 565.797 77.096Z" fill="white"/>
<path d="M607.246 60.2425C606.8 53.1086 606.231 46.1237 605.527 39.274C604.823 32.4244 604.092 25.453 603.321 18.3327C606.461 18.3597 609.561 18.3462 612.593 18.3191C615.626 18.292 618.712 18.1837 621.852 17.9807C624.979 17.7912 628.052 17.4528 631.071 16.9925C634.076 16.5323 637.149 16.2074 640.29 16.0043C644.824 15.7201 649.183 15.8825 653.339 16.4917C657.495 17.1008 661.177 18.3056 664.385 20.1195C667.593 21.9334 670.192 24.3971 672.169 27.5241C674.159 30.6511 675.296 34.658 675.607 39.5177C675.932 44.7023 675.052 49.2371 672.954 53.1086C670.856 56.9802 668.216 60.2425 665.021 62.8822C661.827 65.5219 658.348 67.6471 654.598 69.2309C650.848 70.8283 647.41 71.9383 644.31 72.561C645.704 74.1042 647.64 76.2565 650.09 79.0316C652.54 81.8066 655.275 84.8659 658.307 88.196C661.339 91.5395 664.48 95.032 667.756 98.6734C671.018 102.328 674.172 105.821 677.204 109.151C680.237 112.494 683.079 115.54 685.76 118.302C688.426 121.063 690.565 123.161 692.176 124.569C690.538 124.447 688.914 124.447 687.289 124.556C685.665 124.65 684.054 124.759 682.43 124.854C680.913 124.948 679.343 125.043 677.732 125.151C676.108 125.26 674.551 125.463 673.049 125.774C671.289 123.608 668.608 120.359 665.035 116.028C661.448 111.696 657.495 107.066 653.177 102.125C648.845 97.1844 644.445 92.2841 639.965 87.4108C635.484 82.5376 631.396 78.4224 627.714 75.0788L621.555 75.4579L622.299 87.289C622.746 94.4229 623.314 101.448 624.018 108.339C624.722 115.242 625.44 122.024 626.184 128.712C623.68 128.644 621.027 128.712 618.225 128.888C615.409 129.063 612.769 129.334 610.306 129.713C610.211 122.999 610.075 116.163 609.913 109.232C609.751 102.301 609.453 95.2622 609.006 88.1283L607.246 60.2425ZM621.121 68.6489C622.651 68.879 624.316 68.9873 626.103 68.9873C627.89 68.9873 629.866 68.9196 632.032 68.7842C635.376 68.5812 638.841 67.9856 642.415 66.9974C645.989 66.0092 649.224 64.4795 652.134 62.3949C655.045 60.3102 657.4 57.6164 659.2 54.2999C661.001 50.9834 661.745 46.8953 661.448 42.0356C661.177 37.8256 660.175 34.3873 658.442 31.7205C656.696 29.0673 654.544 26.9962 651.958 25.5342C649.373 24.0722 646.598 23.1247 643.647 22.7186C640.696 22.3125 637.812 22.1906 634.997 22.3666C631.206 22.5967 628.079 22.881 625.602 23.1924C623.125 23.5172 621.027 23.8286 619.321 24.1535C619.47 30.1097 619.632 36.0117 619.781 41.8596C619.93 47.7075 620.187 53.5553 620.553 59.3897L621.121 68.6489Z" fill="white"/>
<path d="M727.602 19.5641C724.786 19.6995 721.849 19.8755 718.762 20.0785C715.676 20.2816 712.603 20.5388 709.53 20.8637C706.457 21.175 703.493 21.5134 700.637 21.8654C697.78 22.2173 695.222 22.6234 692.975 23.0566C693.421 21.0803 693.611 19.334 693.53 17.8179C693.476 16.6267 693.124 14.9616 692.474 12.8228C699.621 12.6875 706.606 12.5386 713.429 12.3626C720.251 12.1866 727.236 11.9294 734.37 11.5774C741.504 11.2255 748.475 10.8058 755.284 10.305C762.093 9.80412 769.051 9.27619 776.185 8.70764C775.752 10.9006 775.563 12.6468 775.63 13.9328C775.698 15.3407 776.05 17.0057 776.686 18.9279C774.398 18.7113 771.813 18.576 768.943 18.4947C766.06 18.427 763.082 18.3729 759.995 18.3729C756.909 18.3729 753.823 18.4135 750.736 18.5083C747.65 18.603 744.699 18.7249 741.883 18.8602C742.113 30.0145 742.492 41.223 743.047 52.472L744.428 80.3849C744.78 87.5188 745.254 94.5443 745.876 101.462C746.486 108.365 747.122 115.174 747.772 121.862C745.267 121.767 742.614 121.794 739.812 121.929C736.996 122.065 734.357 122.308 731.879 122.647C731.879 115.932 731.839 109.096 731.771 102.166C731.703 95.2347 731.487 88.1956 731.135 81.0482L729.754 53.1353C729.186 41.8727 728.468 30.6914 727.602 19.5641Z" fill="white"/>
<path d="M881.339 116.474C879.809 116.312 878.374 116.258 877.021 116.312C875.667 116.366 874.232 116.42 872.716 116.474C871.2 116.528 869.765 116.583 868.411 116.637C867.058 116.691 865.623 116.84 864.12 117.124C863.267 114.66 862.13 111.696 860.709 108.23C859.288 104.765 857.704 101.137 855.998 97.3468C854.292 93.5701 852.546 89.7256 850.773 85.8406C849 81.9555 847.348 78.2464 845.819 74.7269C842.353 74.7404 838.834 74.7946 835.26 74.8758C831.686 74.957 828.112 75.0518 824.539 75.1871C821.182 75.309 817.879 75.4579 814.643 75.6338C811.394 75.8098 808.105 76.0129 804.748 76.243C801.594 84.8118 798.751 92.9609 796.22 100.69C793.688 108.42 791.807 114.809 790.588 119.831C788.734 119.683 786.73 119.642 784.565 119.723C782.399 119.804 780.395 119.98 778.568 120.265C786.636 101.002 794.501 81.8608 802.135 62.8281C809.784 43.7953 817.472 24.4513 825.202 4.76882L828.288 4.66052C831.118 10.8468 834.177 17.534 837.48 24.722C840.783 31.9101 844.126 39.1928 847.551 46.5433C850.962 53.8938 854.374 61.1901 857.785 68.4323C861.196 75.6745 864.391 82.4158 867.383 88.6427C870.374 94.8696 873.068 100.433 875.478 105.334C877.887 110.207 879.836 113.929 881.339 116.474ZM807.577 68.6353C810.393 68.527 813.317 68.4864 816.349 68.4729C819.381 68.4729 822.305 68.4187 825.121 68.3105C828.153 68.2022 831.185 68.0668 834.204 67.8908C837.236 67.7284 840.255 67.5389 843.287 67.3087L823.754 26.739L807.577 68.6353Z" fill="white"/>
<path d="M900.372 25.4801C899.939 18.617 899.478 11.605 898.991 4.47107C900.399 4.66059 901.766 4.80949 903.065 4.94486C904.365 5.08023 905.665 5.12084 906.964 5.09376C908.264 5.06669 909.563 4.94486 910.863 4.75534C912.162 4.56583 913.502 4.34924 914.91 4.09204C914.748 11.2395 914.612 18.265 914.504 25.1417C914.396 32.0184 914.423 39.0305 914.585 46.1779C914.91 59.823 915.235 71.6541 915.573 81.6578C915.912 91.675 916.237 100.623 916.521 108.528C924.21 108.352 931.56 108.095 938.6 107.77C945.625 107.445 953.192 106.647 961.287 105.374C960.786 107.337 960.556 108.961 960.583 110.261C960.61 111.452 960.908 112.914 961.504 114.62C956.522 114.512 951.527 114.525 946.559 114.647C941.578 114.769 936.596 114.877 931.615 114.999C926.416 115.121 921.408 115.243 916.589 115.351C911.77 115.459 906.761 115.689 901.576 116.028C901.739 109.313 901.888 102.477 901.996 95.5465C902.104 88.6157 902.077 81.5766 901.915 74.4291L901.265 46.5028C901.103 39.3553 900.805 32.3433 900.372 25.4801Z" fill="white"/>
<path d="M1044.7 10.4811C1041.89 10.4946 1038.93 10.5487 1035.85 10.6164C1032.76 10.6976 1029.67 10.8195 1026.59 10.9955C1023.5 11.1714 1020.52 11.388 1017.65 11.6181C1014.78 11.8483 1012.21 12.1325 1009.94 12.4845C1010.47 10.5352 1010.72 8.8025 1010.72 7.28638C1010.71 6.09514 1010.44 4.41658 1009.88 2.2507C1017.03 2.42668 1024.02 2.56205 1030.84 2.68388C1037.66 2.80571 1044.65 2.84632 1051.79 2.79217C1058.94 2.75156 1065.93 2.61619 1072.75 2.41314C1079.57 2.21009 1086.56 1.97996 1093.7 1.70923C1093.18 3.87511 1092.92 5.60782 1092.92 6.90735C1092.93 8.31518 1093.2 9.99374 1093.76 11.943C1091.48 11.6317 1088.91 11.3745 1086.04 11.185C1083.17 10.9819 1080.19 10.8195 1077.11 10.6706C1074.02 10.5217 1070.94 10.4405 1067.85 10.3998C1064.76 10.3728 1061.81 10.3592 1059 10.3728C1058.74 21.5271 1058.66 32.7355 1058.72 43.9981L1058.9 71.938C1058.94 79.0855 1059.13 86.1246 1059.44 93.0554C1059.75 99.9862 1060.09 106.809 1060.47 113.523C1057.98 113.32 1055.33 113.225 1052.51 113.252C1049.7 113.266 1047.04 113.388 1044.55 113.631C1044.84 106.917 1045.09 100.095 1045.31 93.1637C1045.54 86.2329 1045.62 79.1937 1045.58 72.0463L1045.4 44.1064C1045.32 32.8303 1045.09 21.6218 1044.7 10.4811Z" fill="white"/>
<path d="M1101.79 57.6298C1101.87 48.4248 1103.42 40.2351 1106.47 33.0606C1109.5 25.8861 1113.72 19.8351 1119.13 14.8942C1124.53 9.96684 1130.97 6.21715 1138.47 3.68577C1145.97 1.15439 1154.15 -0.0774523 1163.03 0.00376837C1172.01 0.084989 1180.23 1.4522 1187.68 4.11895C1195.12 6.78569 1201.51 10.6301 1206.83 15.6523C1212.15 20.6744 1216.27 26.8066 1219.18 34.0352C1222.09 41.2639 1223.51 49.4807 1223.43 58.6857C1223.35 67.8907 1221.79 76.0805 1218.74 83.2549C1215.7 90.4294 1211.49 96.4939 1206.07 101.421C1200.67 106.362 1194.23 110.017 1186.73 112.386C1179.23 114.755 1171 115.906 1162.01 115.824C1153.13 115.743 1144.97 114.457 1137.51 111.966C1130.05 109.476 1123.67 105.699 1118.35 100.677C1113.03 95.6546 1108.92 89.5225 1106.01 82.2938C1103.13 75.0517 1101.7 66.8348 1101.79 57.6298ZM1207.52 58.5233C1207.6 49.5348 1206.53 41.7647 1204.31 35.1859C1202.09 28.6205 1198.97 23.1787 1194.95 18.8605C1190.93 14.5558 1186.19 11.3476 1180.73 9.23585C1175.28 7.13765 1169.36 6.05471 1162.97 6.00056C1156.69 5.94641 1150.8 6.92106 1145.32 8.93804C1139.84 10.955 1135.05 14.082 1130.94 18.319C1126.84 22.5696 1123.63 27.9572 1121.31 34.4819C1118.98 41.0202 1117.77 48.7768 1117.69 57.7652C1117.61 66.7536 1118.68 74.5373 1120.9 81.1026C1123.12 87.6815 1126.23 93.1233 1130.27 97.428C1134.29 101.746 1139.03 104.954 1144.48 107.053C1149.94 109.151 1155.8 110.234 1162.08 110.288C1168.47 110.342 1174.41 109.367 1179.89 107.35C1185.38 105.347 1190.17 102.22 1194.27 97.9694C1198.37 93.7324 1201.58 88.3448 1203.91 81.8065C1206.25 75.2818 1207.45 67.5252 1207.52 58.5233Z" fill="white"/>
<path d="M1298.88 46.34C1299.11 39.1926 1299.19 32.1535 1299.14 25.2227C1299.08 18.2918 1299 11.3475 1298.89 4.41663C1301.7 4.72797 1304.57 4.99871 1307.48 5.25591C1310.4 5.51311 1313.26 5.67555 1316.07 5.7703C1318.89 5.86506 1321.76 5.81091 1324.7 5.63494C1327.63 5.45896 1330.5 5.40481 1333.32 5.49957C1337.98 5.64847 1342.35 6.1358 1346.44 6.96154C1350.52 7.80082 1354.11 9.1545 1357.2 11.0361C1360.28 12.9177 1362.69 15.4085 1364.44 18.4949C1366.19 21.5813 1366.98 25.3986 1366.85 29.947C1366.59 37.9608 1363.88 44.1606 1358.71 48.5465C1353.54 52.9324 1346.87 55.9241 1338.69 57.5079L1338.68 57.8327C1348.3 58.5637 1355.83 61.1357 1361.27 65.5216C1366.71 69.9211 1369.29 76.7707 1369 86.084C1368.81 92.1485 1367.4 97.1977 1364.79 101.232C1362.18 105.266 1358.82 108.501 1354.73 110.91C1350.65 113.334 1346.18 114.971 1341.33 115.851C1336.49 116.731 1331.68 117.097 1326.92 116.948C1324.32 116.867 1321.69 116.731 1319.05 116.542C1316.4 116.352 1313.78 116.217 1311.19 116.136C1308.59 116.054 1305.96 115.973 1303.31 115.892C1300.65 115.811 1298.03 115.838 1295.42 115.973C1295.96 109.056 1296.47 102.166 1296.96 95.3026C1297.45 88.4394 1297.8 81.4274 1298.03 74.2935L1298.88 46.34ZM1311.24 77.2851C1311.06 82.8081 1311.01 88.277 1311.05 93.6917C1311.09 99.1064 1311.15 104.589 1311.19 110.112C1313.23 110.396 1315.67 110.653 1318.47 110.91C1321.28 111.154 1324.14 111.33 1327.06 111.425C1330.53 111.533 1333.87 111.046 1337.11 109.949C1340.33 108.853 1343.19 107.188 1345.64 104.927C1348.09 102.68 1350.08 99.8644 1351.59 96.4938C1353.11 93.1231 1353.93 89.2787 1354.07 84.9469C1354.22 80.2903 1353.5 76.4458 1351.92 73.4271C1350.33 70.3949 1347.99 67.9989 1344.91 66.2256C1341.82 64.4522 1338.1 63.1662 1333.72 62.3811C1329.35 61.596 1324.48 61.1222 1319.06 60.9462L1311.75 60.7161L1311.24 77.2851ZM1320.72 54.99C1324.51 55.1119 1328.28 54.8411 1332.03 54.2049C1335.8 53.5687 1339.15 52.391 1342.13 50.6989C1345.11 49.0068 1347.55 46.692 1349.41 43.7816C1351.3 40.8576 1352.3 37.1215 1352.45 32.5867C1352.58 28.1466 1351.88 24.5729 1350.35 21.8791C1348.8 19.1717 1346.81 17.06 1344.36 15.5168C1341.91 13.9736 1339.14 12.9177 1336.01 12.3356C1332.89 11.7536 1329.76 11.4016 1326.62 11.3068C1323.8 11.2121 1321.42 11.2256 1319.47 11.3204C1317.52 11.4287 1315.77 11.564 1314.26 11.7265C1313.88 16.9111 1313.5 22.055 1313.12 27.1313C1312.74 32.2076 1312.47 37.3516 1312.31 42.5497L1311.93 54.7328L1320.72 54.99Z" fill="white"/>
<path d="M1486.01 64.5876C1486.73 49.2234 1487.23 37.3787 1487.52 29.04C1487.8 20.7014 1487.8 14.9618 1487.52 11.8077C1488.69 12.0785 1489.82 12.3221 1490.9 12.5387C1491.97 12.7553 1493.05 12.8771 1494.14 12.9313C1495.54 12.999 1497.18 12.8094 1499.04 12.3492C1498.53 16.126 1497.99 20.6202 1497.42 25.8589C1496.86 31.0976 1496.31 36.7019 1495.83 42.6986C1495.33 48.6954 1494.83 54.8411 1494.31 61.1628C1493.8 67.4845 1493.35 73.6166 1492.96 79.5593C1492.51 86.8015 1491.09 93.245 1488.72 98.8763C1486.34 104.508 1483.12 109.245 1479.03 113.063C1474.94 116.88 1470.01 119.682 1464.25 121.469C1458.47 123.256 1451.9 123.973 1444.55 123.635C1428.32 122.877 1416.7 118.64 1409.69 110.938C1402.68 103.235 1399.55 91.431 1400.3 75.5389C1400.54 70.449 1400.88 65.9413 1401.34 62.0021C1401.79 58.0629 1402.13 54.0425 1402.32 49.9273C1402.75 40.8441 1403.01 32.7762 1403.13 25.7371C1403.24 18.6979 1403.3 12.7418 1403.32 7.85498C1404.6 8.13925 1406 8.38292 1407.51 8.62658C1409.02 8.8567 1410.42 9.00561 1411.72 9.07329C1412.91 9.12744 1414.08 9.10036 1415.22 8.99207C1416.35 8.88378 1417.53 8.74841 1418.74 8.58597C1418.41 10.9549 1418.05 14.0548 1417.65 17.8857C1417.26 21.7166 1416.84 26.0619 1416.39 30.9217C1415.95 35.7814 1415.54 41.0201 1415.16 46.6378C1414.78 52.2556 1414.46 58.1035 1414.17 64.1544C1414 67.8364 1413.88 71.6538 1413.79 75.6066C1413.71 79.5593 1413.92 83.4173 1414.39 87.1805C1414.86 90.9437 1415.74 94.558 1417.06 98.037C1418.36 101.516 1420.29 104.589 1422.88 107.256C1425.46 109.922 1428.78 112.088 1432.81 113.74C1436.86 115.391 1441.9 116.366 1447.96 116.65C1453.9 116.934 1458.95 116.298 1463.1 114.755C1467.24 113.212 1470.66 111.1 1473.4 108.406C1476.13 105.712 1478.31 102.572 1479.94 98.9575C1481.57 95.3432 1482.81 91.5529 1483.64 87.5866C1484.48 83.6203 1485.05 79.627 1485.34 75.6336C1485.62 71.6132 1485.85 67.9312 1486.01 64.5876Z" fill="white"/>
<path d="M1532.78 35.4431C1532.92 28.5664 1533.04 21.5409 1533.13 14.3934C1534.53 14.6912 1535.87 14.962 1537.16 15.2056C1538.44 15.4493 1539.74 15.5982 1541.03 15.6794C1542.33 15.7606 1543.63 15.7471 1544.94 15.6659C1546.24 15.5847 1547.61 15.4764 1549.03 15.341C1548.28 22.4614 1547.57 29.4463 1546.89 36.2824C1546.21 43.132 1545.67 50.117 1545.25 57.2644L1543.6 85.1502C1543.18 92.2841 1542.89 99.3232 1542.76 106.254C1542.62 113.185 1542.52 120.021 1542.45 126.735C1539.97 126.37 1537.33 126.112 1534.52 125.936C1531.7 125.774 1529.05 125.72 1526.56 125.788C1527.27 119.1 1527.98 112.305 1528.65 105.415C1529.33 98.511 1529.89 91.4854 1530.31 84.3515L1531.96 56.4657C1532.38 49.3319 1532.65 42.3198 1532.78 35.4431Z" fill="white"/>
<path d="M1581.66 38.4076C1581.85 31.5309 1582.04 24.5053 1582.21 17.3579C1583.6 17.6693 1584.94 17.9535 1586.21 18.1972C1587.49 18.4409 1588.78 18.6168 1590.08 18.7116C1591.38 18.8063 1592.68 18.8063 1594 18.7387C1595.31 18.671 1596.66 18.5627 1598.08 18.4409C1597.27 25.5477 1596.5 32.5326 1595.77 39.3687C1595.04 46.2183 1594.42 53.2033 1593.94 60.3236C1593.02 73.9416 1592.26 85.7457 1591.69 95.7494C1591.13 105.753 1590.63 114.701 1590.19 122.593C1597.87 123.121 1605.22 123.54 1612.24 123.852C1619.28 124.163 1626.88 124.055 1635.07 123.527C1634.39 125.436 1634.01 127.033 1633.93 128.332C1633.85 129.524 1634.02 130.999 1634.44 132.759C1629.49 132.204 1624.52 131.757 1619.55 131.419C1614.59 131.08 1609.62 130.742 1604.65 130.404C1599.47 130.052 1594.47 129.713 1589.66 129.388C1584.86 129.063 1579.85 128.82 1574.65 128.698C1575.44 122.024 1576.2 115.229 1576.93 108.339C1577.67 101.448 1578.28 94.4228 1578.77 87.3024L1580.66 59.4302C1581.12 52.2828 1581.46 45.2843 1581.66 38.4076Z" fill="white"/>
<path d="M1665.5 65.2915C1666.08 58.1711 1666.53 51.1726 1666.82 44.2959C1667.12 37.4192 1667.41 30.4072 1667.66 23.2598C1671.75 23.8148 1675.8 24.3427 1679.85 24.8436C1683.88 25.3444 1687.94 25.7641 1692.04 26.1025C1696.14 26.4409 1700.23 26.644 1704.29 26.7116C1708.37 26.7793 1712.44 26.9824 1716.54 27.3208C1726.03 28.1059 1734.06 30.0146 1740.6 33.0604C1747.14 36.1062 1752.38 40.086 1756.32 45.0404C1760.25 49.9814 1762.95 55.8563 1764.4 62.6653C1765.85 69.4743 1766.22 77.0278 1765.53 85.3394C1764.64 96.1282 1762.03 105.076 1757.7 112.156C1753.36 119.236 1748.11 124.813 1741.97 128.86C1735.82 132.921 1729.19 135.601 1722.07 136.915C1714.95 138.228 1708.21 138.62 1701.84 138.092C1698.18 137.794 1694.56 137.429 1691.01 137.036C1687.47 136.63 1683.85 136.278 1680.18 135.981C1676.52 135.683 1672.9 135.385 1669.34 135.087C1665.78 134.789 1662.15 134.6 1658.47 134.519C1659.35 127.858 1660.2 121.077 1661.04 114.2C1661.88 107.323 1662.6 100.311 1663.18 93.1908L1665.5 65.2915ZM1676.48 94.2331C1675.51 105.888 1674.89 117.354 1674.61 128.63C1676.83 129.361 1679.87 130.024 1683.73 130.606C1687.59 131.202 1691.57 131.662 1695.67 132.001C1701.6 132.488 1707.6 132.285 1713.65 131.364C1719.7 130.458 1725.24 128.251 1730.24 124.745C1735.27 121.252 1739.53 116.244 1743.05 109.746C1746.57 103.249 1748.78 94.6527 1749.66 83.9722C1750.43 74.5777 1749.91 66.767 1748.09 60.54C1746.26 54.2996 1743.47 49.2639 1739.72 45.4195C1735.96 41.575 1731.33 38.7458 1725.83 36.9319C1720.34 35.118 1714.23 33.9403 1707.54 33.3853C1702.68 32.9792 1698.13 32.7761 1693.9 32.749C1689.66 32.722 1685.86 32.7897 1682.47 32.9521C1681.71 38.1096 1681.02 43.5108 1680.4 49.1556C1679.77 54.814 1679.21 60.5536 1678.74 66.3744L1676.48 94.2331Z" fill="white"/>
<path d="M1857.15 48.763C1854.35 48.4787 1851.41 48.1945 1848.34 47.9373C1845.27 47.6801 1842.18 47.4635 1839.09 47.3146C1836.01 47.1657 1833.03 47.0438 1830.15 46.9626C1827.26 46.8814 1824.68 46.8949 1822.39 46.9762C1823.12 45.0946 1823.58 43.4025 1823.73 41.8863C1823.85 40.6951 1823.76 39.003 1823.44 36.7965C1830.54 37.7441 1837.46 38.651 1844.24 39.5039C1851.01 40.3702 1857.95 41.1553 1865.06 41.8999C1872.16 42.6309 1879.12 43.2671 1885.93 43.8086C1892.74 44.35 1899.7 44.878 1906.83 45.3924C1906.07 47.4906 1905.63 49.1827 1905.49 50.4822C1905.34 51.89 1905.44 53.5821 1905.78 55.572C1903.54 55.017 1901.01 54.4891 1898.18 53.9747C1895.35 53.4603 1892.4 52.973 1889.36 52.4992C1886.31 52.0254 1883.24 51.5922 1880.18 51.2267C1877.12 50.8612 1874.18 50.5228 1871.38 50.2385C1869.92 61.2981 1868.6 72.4388 1867.45 83.6338L1864.58 111.425C1863.85 118.532 1863.26 125.557 1862.82 132.474C1862.38 139.392 1861.98 146.214 1861.62 152.929C1859.15 152.455 1856.53 152.076 1853.74 151.791C1850.94 151.507 1848.28 151.331 1845.79 151.304C1846.81 144.658 1847.8 137.903 1848.79 131.04C1849.76 124.176 1850.63 117.191 1851.36 110.071L1854.23 82.2801C1855.35 71.0581 1856.34 59.8902 1857.15 48.763Z" fill="white"/>
<path d="M1925.36 89.8068C1926.19 82.7135 1926.87 75.7286 1927.39 68.8654C1927.92 62.0023 1928.44 55.0038 1928.95 47.8699C1932.05 48.452 1935.08 48.9934 1938.09 49.5078C1941.08 50.0222 1944.14 50.4554 1947.25 50.8209C1950.37 51.1864 1953.45 51.403 1956.5 51.4842C1959.54 51.5654 1962.62 51.7955 1965.74 52.161C1970.26 52.689 1974.51 53.623 1978.49 54.9631C1982.47 56.3033 1985.89 58.1443 1988.73 60.4861C1991.56 62.8415 1993.68 65.7249 1995.08 69.1632C1996.47 72.6016 1996.89 76.7303 1996.32 81.5765C1995.73 86.734 1994.05 91.0387 1991.3 94.477C1988.55 97.9153 1985.37 100.65 1981.76 102.68C1978.14 104.711 1974.34 106.173 1970.37 107.08C1966.39 107.987 1962.82 108.46 1959.65 108.528C1960.75 110.288 1962.26 112.752 1964.19 115.919C1966.11 119.087 1968.26 122.579 1970.64 126.41C1973.03 130.228 1975.5 134.235 1978.08 138.404C1980.63 142.573 1983.11 146.567 1985.51 150.397C1987.89 154.215 1990.15 157.734 1992.29 160.915C1994.43 164.11 1996.16 166.547 1997.49 168.225C1995.9 167.819 1994.29 167.521 1992.68 167.332C1991.07 167.142 1989.46 166.953 1987.84 166.763C1986.33 166.587 1984.78 166.411 1983.15 166.222C1981.54 166.032 1979.97 165.951 1978.44 165.992C1977.09 163.542 1975.04 159.873 1972.28 154.973C1969.52 150.073 1966.46 144.807 1963.09 139.175C1959.71 133.544 1956.25 127.94 1952.71 122.349C1949.16 116.759 1945.87 111.98 1942.85 108.027L1936.72 107.31L1935.35 119.087C1934.53 126.18 1933.84 133.192 1933.31 140.109C1932.77 147.027 1932.28 153.836 1931.82 160.536C1929.37 160.036 1926.74 159.616 1923.96 159.291C1921.15 158.966 1918.51 158.763 1916.01 158.695C1917.11 152.062 1918.2 145.321 1919.27 138.472C1920.34 131.622 1921.29 124.637 1922.13 117.544L1925.36 89.8068ZM1937.52 100.541C1938.98 101.042 1940.61 101.448 1942.37 101.76C1944.12 102.071 1946.09 102.355 1948.24 102.613C1951.57 103.005 1955.09 103.032 1958.79 102.694C1962.48 102.369 1965.93 101.435 1969.17 99.9052C1972.4 98.3756 1975.19 96.142 1977.56 93.191C1979.92 90.2535 1981.38 86.3549 1981.95 81.5223C1982.43 77.3259 1982.05 73.7657 1980.82 70.8418C1979.58 67.9178 1977.82 65.5083 1975.53 63.5996C1973.24 61.6909 1970.68 60.2831 1967.85 59.3491C1965.03 58.415 1962.21 57.7923 1959.41 57.4674C1955.64 57.0343 1952.52 56.75 1950.03 56.6146C1947.54 56.4928 1945.41 56.4387 1943.66 56.4522C1942.76 62.3407 1941.86 68.175 1940.97 73.9688C1940.08 79.749 1939.29 85.5427 1938.62 91.35L1937.52 100.541Z" fill="white"/>
<path d="M2110.29 123.717C2112.32 108.474 2113.82 96.7107 2114.81 88.4261C2115.8 80.1416 2116.29 74.4291 2116.27 71.248C2117.42 71.627 2118.53 71.9519 2119.58 72.2632C2120.63 72.561 2121.69 72.7912 2122.77 72.9401C2124.16 73.1296 2125.82 73.0754 2127.71 72.7776C2126.89 76.5002 2125.96 80.9268 2124.96 86.0978C2123.95 91.2689 2122.93 96.8054 2121.93 102.735C2120.93 108.664 2119.9 114.755 2118.84 121.009C2117.79 127.263 2116.83 133.328 2115.93 139.216C2114.86 146.391 2112.92 152.685 2110.06 158.1C2107.22 163.515 2103.59 167.955 2099.19 171.407C2094.79 174.872 2089.65 177.241 2083.74 178.527C2077.84 179.813 2071.24 179.975 2063.94 179.001C2047.83 176.862 2036.62 171.65 2030.29 163.379C2023.95 155.108 2021.84 143.088 2023.94 127.304C2024.61 122.255 2025.33 117.801 2026.13 113.916C2026.92 110.031 2027.59 106.051 2028.13 101.976C2029.34 92.961 2030.29 84.9472 2031 77.9351C2031.72 70.9366 2032.29 64.994 2032.71 60.1343C2033.97 60.5268 2035.34 60.8923 2036.82 61.2578C2038.3 61.6233 2039.69 61.8805 2040.98 62.0565C2042.16 62.2189 2043.32 62.2866 2044.47 62.2731C2045.62 62.2595 2046.8 62.2325 2048.01 62.1648C2047.48 64.4931 2046.86 67.5524 2046.14 71.3427C2045.42 75.1195 2044.62 79.4106 2043.77 84.2162C2042.92 89.0218 2042.05 94.2063 2041.21 99.77C2040.36 105.334 2039.53 111.127 2038.73 117.138C2038.25 120.793 2037.8 124.583 2037.38 128.509C2036.96 132.448 2036.84 136.306 2036.99 140.096C2037.14 143.886 2037.72 147.568 2038.72 151.142C2039.72 154.716 2041.39 157.951 2043.74 160.821C2046.08 163.704 2049.21 166.141 2053.1 168.131C2056.98 170.121 2061.94 171.515 2067.95 172.314C2073.85 173.099 2078.92 172.896 2083.19 171.718C2087.44 170.54 2091.04 168.726 2093.99 166.276C2096.94 163.826 2099.38 160.875 2101.31 157.423C2103.25 153.971 2104.81 150.289 2105.97 146.404C2107.15 142.519 2108.04 138.593 2108.68 134.641C2109.31 130.688 2109.86 127.047 2110.29 123.717Z" fill="white"/>
<path d="M2148.8 173.261C2149.95 175.454 2151.45 177.511 2153.31 179.434C2155.16 181.356 2157.4 183.021 2160.04 184.456C2162.68 185.891 2165.69 186.852 2169.13 187.366C2172.67 187.894 2175.94 187.745 2178.96 186.933C2181.98 186.121 2184.63 184.821 2186.93 183.021C2189.22 181.22 2191.12 178.987 2192.61 176.307C2194.1 173.626 2195.08 170.675 2195.56 167.467C2196.29 162.54 2195.61 158.438 2193.51 155.176C2191.43 151.913 2188.65 149.03 2185.19 146.553C2181.72 144.075 2177.95 141.707 2173.84 139.446C2169.74 137.199 2165.99 134.586 2162.61 131.622C2159.21 128.657 2156.53 125.11 2154.58 120.995C2152.62 116.88 2152.1 111.655 2153.04 105.333C2153.7 100.839 2155.12 96.8592 2157.28 93.3938C2159.43 89.9419 2162.23 87.0992 2165.68 84.8656C2169.13 82.6456 2173.11 81.1024 2177.62 80.2361C2182.13 79.3697 2187.06 79.3291 2192.42 80.1278C2197.56 80.8858 2201.91 82.1718 2205.48 83.9587C2209.04 85.7455 2212.25 88.1686 2215.08 91.2144C2213.85 92.8929 2212.75 94.7069 2211.81 96.6426C2210.87 98.5784 2209.85 101.056 2208.74 104.074L2206.82 103.79C2206.51 102.206 2206.02 100.474 2205.37 98.5649C2204.72 96.6562 2203.73 94.8422 2202.41 93.1231C2201.08 91.3904 2199.42 89.8607 2197.43 88.5206C2195.44 87.1804 2192.93 86.3005 2189.94 85.8538C2186.93 85.4071 2184.1 85.4883 2181.45 86.0704C2178.78 86.666 2176.39 87.7084 2174.25 89.1974C2172.11 90.6864 2170.35 92.5951 2168.97 94.8964C2167.59 97.2112 2166.68 99.8102 2166.25 102.707C2165.51 107.743 2166.17 111.899 2168.27 115.161C2170.35 118.423 2173.13 121.334 2176.58 123.865C2180.03 126.41 2183.82 128.765 2187.92 130.958C2192.04 133.151 2195.79 135.656 2199.21 138.458C2202.62 141.26 2205.33 144.617 2207.33 148.529C2209.32 152.441 2209.89 157.342 2209.01 163.23C2208.28 168.157 2206.71 172.692 2204.29 176.821C2201.87 180.95 2198.74 184.402 2194.87 187.163C2191.01 189.938 2186.51 191.833 2181.37 192.876C2176.24 193.918 2170.55 193.986 2164.34 193.065C2157.69 192.077 2152.44 190.398 2148.58 188.016C2144.73 185.633 2141.56 183.116 2139.11 180.449C2140.44 178.134 2141.44 176.009 2142.1 174.073C2142.76 172.151 2143.49 169.66 2144.28 166.601L2146.2 166.885C2146.78 168.943 2147.64 171.068 2148.8 173.261Z" fill="white"/>
<path d="M2268.06 102.491C2265.29 102.044 2262.36 101.597 2259.3 101.164C2256.24 100.731 2253.18 100.338 2250.11 100.013C2247.04 99.6884 2244.06 99.3906 2241.2 99.1605C2238.33 98.9169 2235.75 98.7815 2233.46 98.7409C2234.3 96.8999 2234.84 95.2348 2235.08 93.7323C2235.27 92.5546 2235.27 90.8625 2235.08 88.6289C2242.11 89.9826 2248.97 91.2821 2255.69 92.514C2262.4 93.7593 2269.28 94.9506 2276.33 96.0877C2283.38 97.2248 2290.3 98.2535 2297.06 99.174C2303.82 100.095 2310.74 101.029 2317.83 101.936C2316.95 103.993 2316.41 105.658 2316.21 106.944C2315.98 108.338 2315.98 110.031 2316.21 112.048C2314.02 111.371 2311.51 110.694 2308.72 110.017C2305.92 109.354 2303.01 108.69 2299.99 108.041C2296.97 107.391 2293.94 106.795 2290.91 106.254C2287.86 105.712 2284.97 105.211 2282.18 104.765C2280.08 115.73 2278.15 126.762 2276.36 137.889L2271.92 165.477C2270.78 172.53 2269.79 179.501 2268.97 186.392C2268.13 193.282 2267.34 200.064 2266.6 206.737C2264.18 206.128 2261.58 205.6 2258.79 205.153C2256.01 204.707 2253.37 204.395 2250.88 204.206C2252.28 197.627 2253.64 190.94 2255.01 184.144C2256.38 177.349 2257.64 170.418 2258.76 163.365L2263.2 135.777C2264.99 124.65 2266.61 113.55 2268.06 102.491Z" fill="white"/>
</svg>
