<?xml version="1.0" encoding="UTF-8"?><svg id="Layer_2" xmlns="http://www.w3.org/2000/svg" width="112" height="150" viewBox="0 0 100.82213 136.31172"><defs><style>.cls-1{fill:#e4dfeb;}.cls-2{fill:#17403e;}</style></defs><g id="Layer_1-2"><rect class="cls-1" width="100.82213" height="136.31172" rx="13.00531" ry="13.00531"/></g><g id="Layer_2-2"><g id="Layer_1-2"><g><path class="cls-2" d="M56.72431,69.06795h.08092c.90154,0,1.80308-.00039,2.70462,.00085,.06351,.00009,.12931,.00368,.1901,.02017,.27126,.07362,.37193,.31794,.34118,.536-.00986,.06991-.03043,.13976-.05603,.20579-.23956,.6179-.48126,1.23498-.72237,1.85228-.6121,1.56713-1.2242,3.13425-1.83631,4.70137-.21714,.55591-.43672,1.11089-.65003,1.66826-.06941,.18136-.17153,.3349-.3226,.45543-.1702,.13579-.36181,.20559-.58313,.20544-2.62033-.00177-5.24067-.00113-7.861-.00113-1.67848,0-3.35696-.00002-5.03544,.00006-.07528,0-.15006-.00194-.22266-.02599-.15138-.05014-.25179-.15025-.30396-.30112-.02489-.07198-.03506-.14448-.03504-.22071,.00093-4.3013,.00107-8.6026,.00062-12.90389-.00001-.10374,.0073-.20569,.05056-.30084,.11629-.25579,.31678-.39038,.59694-.40521,.06169-.00327,.12369-.00048,.18943-.00048,.0011-.02508,.00267-.04468,.0027-.06428,.00023-.13373-.00107-.26747,.00043-.40118,.00216-.19238,.06953-.35802,.21119-.49015,.12305-.11476,.27087-.17111,.43845-.1764,.03793-.0012,.07592-.00018,.11965-.00018,0-.02786,0-.04935,0-.07084,0-.23815-.00024-.47629,.00014-.71444,.00013-.08295,.01201-.16407,.04051-.24251,.0927-.25518,.33329-.42815,.60495-.43384,.04896-.00103,.09795-.00015,.15333-.00015,0-.03143-.00083-.05659,.00015-.08169,.00343-.08767-.00113-.17672,.0129-.2627,.04447-.27254,.27447-.48993,.54876-.52606,.04521-.00596,.09119-.00865,.13681-.00866,1.89104-.00042,3.78208-.00035,5.67312-.00045,.03296,0,.06617,.00097,.09884-.00249,.08925-.00944,.16006,.02302,.22089,.08688,.16932,.17776,.33996,.35425,.51001,.53132,.60913,.63429,1.21824,1.2686,1.82732,1.90294,.29058,.30263,.58158,.60487,.87091,.9087,.03175,.03334,.06324,.04694,.10946,.04675,.41045-.00166,.82091-.00169,1.23137-.00039,.28631,.00091,.53344,.17789,.62528,.44408,.0272,.07883,.03703,.16021,.03703,.24314,0,.41401,0,.82802,0,1.24203,0,.83535,0,1.67069,0,2.50604v.07827h0Zm-3.70451,.4403c-2.153,0-4.30601,.00025-6.45901-.0008-.09796-.00005-.18311,.0289-.26198,.08328-.10138,.0699-.1712,.16361-.21336,.27902-.07035,.19256-.13864,.38596-.21301,.57697-.38125,.97919-.76419,1.95772-1.1465,2.9365-.44626,1.14248-.89245,2.28499-1.33873,3.42747-.16585,.42459-.33211,.84902-.4973,1.27386-.01311,.03371-.02377,.06962-.02761,.10537-.00512,.04765,.01676,.07215,.06417,.07855,.02705,.00365,.05484,.00244,.0823,.00244,4.06963,.00009,8.13927-.0002,12.2089,.0008,.23649,.00006,.4724-.00789,.70823-.02309,.2279-.01469,.39532-.14721,.4633-.36632,.01247-.04018,.02578-.08021,.04107-.11938,.49398-1.26535,.98828-2.53058,1.48245-3.79585,.38961-.99755,.7791-1.99514,1.16866-2.9927,.16715-.42801,.33443-.85598,.50135-1.28408,.00994-.02551,.02006-.05153,.02509-.07825,.01218-.06471-.01435-.09808-.07957-.103-.02187-.00165-.04395-.00076-.06594-.00076-2.14751-.00002-4.29501-.00002-6.44252-.00002h0Zm2.45187-3.53429c-.03072,0-.05777-.00008-.08481,.00001-1.2057,.00424-2.4114,.00866-3.6171,.01218-.051,.00015-.10301-.00309-.15288-.01311-.3137-.06302-.52799-.32442-.53014-.64517-.00256-.38102-.00462-.76205-.00584-1.14308-.00276-.86281-.00485-1.72563-.00737-2.58845-.00007-.0251-.00184-.05019-.00297-.07921h-.07647c-1.82323,0-3.64646,0-5.46969,0-.01832,0-.03667-.00047-.05497,.0003-.11587,.00489-.20698,.0958-.21187,.21158-.001,.02378-.00044,.04762-.00044,.07144-.00001,2.97865-.00001,5.9573,0,8.93595,0,.01465-.00068,.02936,.00026,.04395,.00072,.01116,.0035,.02218,.00737,.04521,.01303-.03084,.02117-.0489,.02837-.06733,.1393-.35636,.2778-.71303,.41838-1.06889,.02342-.0593,.04939-.11942,.08503-.17177,.19584-.28761,.45773-.45111,.8177-.45084,2.919,.00212,5.838,.00119,8.75699,.00119,.02199,0,.04399,.0004,.06596-.00036,.01055-.00036,.02103-.003,.03448-.00505v-3.08857h0Zm-3.94911-4.16865l-.01387,.00725c0,.01967-.00011,.03933,.00002,.059,.00115,.17761,.00292,.35522,.00343,.53284,.00278,.95584,.00524,1.91168,.00788,2.86752,.00007,.02379-.0004,.0477,.00165,.07136,.00918,.10619,.07914,.18404,.184,.20372,.02314,.00434,.0473,.00465,.07099,.00456,.41943-.00169,.83886-.00426,1.2583-.00557,.66487-.00207,1.32974-.00333,1.99461-.00503,.02095-.00005,.04189-.00131,.06284-.002l.00448-.01161-3.57431-3.72203h0Zm-8.67321,15.1707l.01238,.00273,.01454-.03353c.11859-.3035,.23768-.6068,.35474-.91088,.0121-.03142,.01681-.06749,.01694-.10143,.00198-.53119,.00279-1.06239,.00357-1.59358,.00067-.45794,.00133-.91588,.00135-1.37381,.00013-2.62309,.00006-5.24619,.00006-7.86928,0-.02015,.00056-.04032-.00024-.06044-.00055-.01391-.003-.02775-.00492-.04439-.06919,0-.13508-.00348-.20045,.00084-.09241,.0061-.17419,.07973-.19269,.1701-.0058,.02834-.00509,.0583-.00509,.08751-.0002,3.88885-.00019,7.77769-.00019,11.66654v.05964h0Zm1.60736-4.11791l.0117,.00155c.0042-.00765,.00932-.01494,.01247-.023,.10671-.27277,.21352-.5455,.31919-.81867,.00832-.02152,.01169-.04619,.01188-.06944,.00366-.43575,.00897-.87151,.0091-1.30727,.0008-2.71841,.0004-5.43681,.0004-8.15522,0-.01465,.0006-.02934-.0002-.04395-.00076-.014-.00298-.02791-.00485-.04445-.05651,0-.11009-.00546-.16212,.0012-.09364,.01198-.1578,.06621-.18511,.15736-.00925,.03087-.01057,.06499-.01058,.09763-.00094,3.38151-.00141,6.76301-.0019,10.14452,0,.01992,0,.03983,0,.05975h0Zm-.76923,1.96811l.01157,.00251c.00542-.01081,.01175-.02127,.01614-.03249,.09937-.25399,.1994-.50774,.29665-.76254,.01254-.03286,.01335-.07122,.01444-.10718,.00126-.04192-.00485-.08402-.00484-.12604,.0001-.76563,.00098-1.53126,.00103-2.29689,.00016-2.51305,.00006-5.02609,.00006-7.53914,0-.02015,.00054-.04032-.00023-.06044-.00053-.01394-.00287-.02782-.00482-.04553-.03963,0-.07601-.00098-.11231,.00019-.10191,.00328-.18618,.07117-.20844,.17129-.00744,.03346-.00784,.06895-.00785,.10352-.00082,3.17976-.00131,6.35951-.00176,9.53927-.00005,.36633,.00023,.73267,.00036,1.099,0,.01816,0,.03631,0,.05447Zm12.60116-5.7616v-3.78553c0-.01831,.0002-.03662-.00008-.05493-.00209-.1403-.0952-.23325-.23598-.23354-.26922-.00054-.53845-.00014-.80767,.00008-.01366,.00001-.02732,.00196-.05235,.00388,.0228,.02497,.03796,.0423,.05389,.0589,.18128,.18896,.3598,.38071,.54534,.5654,.08586,.08547,.11569,.18997,.11683,.2995,.00489,.47051,.00209,.94109,.00209,1.41165,0,.55478-.00004,1.10956,.00015,1.66434,0,.02295,.0022,.0459,.00345,.07024h.37433Z"/><path class="cls-2" d="M49.17721,67.02132c.20882-.00001,.41763-.00044,.62645,.00006,.80772,.00193,1.61543,.00408,2.42315,.00655,.02729,.00008,.05507,.00203,.08177,.00736,.11121,.02224,.18142,.11307,.17576,.22493-.00534,.10543-.08749,.19011-.19709,.20206-.02177,.00237-.0439,.00186-.06587,.00186-.76016,.00009-1.52032,.00099-2.28048-.00013-1.26376-.00185-2.52752-.00498-3.79127-.00774-.02927-.00006-.05878-.00008-.08777-.00353-.1091-.01298-.19075-.10522-.19074-.21369,.00001-.10873,.08096-.20042,.19055-.21358,.0326-.00391,.06579-.00399,.09871-.004,1.00561-.00019,2.01122-.00016,3.01683-.00017h0Z"/><path class="cls-2" d="M48.02615,63.65212c.62647,0,1.25293-.00017,1.8794,.00045,.03629,.00004,.07372,.00208,.10863,.01098,.09436,.02406,.15845,.11038,.15839,.20665-.00006,.09838-.0667,.18574-.16392,.20782-.03875,.0088-.07981,.01021-.11983,.01023-1.14486,.00051-2.28972,.00042-3.43458,.00041-.10991,0-.21981,.00028-.32972-.00031-.02368-.00013-.04778-.00125-.07095-.00573-.11239-.02173-.18772-.11384-.18217-.2209,.00578-.11159,.08942-.19746,.20395-.20811,.02545-.00237,.05125-.00144,.07688-.00144,.62464-.00007,1.24927-.00005,1.87391-.00005h0Z"/><path class="cls-2" d="M48.01458,65.70879c-.61726,0-1.23452,.00006-1.85179-.00012-.03294,0-.06611,.00024-.09877-.00334-.10953-.01202-.19139-.10279-.19288-.21169-.00147-.10828,.07927-.20143,.18831-.2156,.02713-.00353,.0548-.00416,.08222-.00416,1.25284-.0002,2.50568-.00021,3.75852,0,.02924,0,.0588,.00055,.08767,.00462,.10623,.01496,.18497,.10676,.18471,.21325-.00026,.1064-.07935,.19835-.18553,.21263-.03431,.00461-.06944,.00422-.10419,.00423-.62276,.00023-1.24551,.00017-1.86827,.00017h0Z"/></g></g></g></svg>