<?xml version="1.0" encoding="UTF-8"?><svg id="Layer_2" xmlns="http://www.w3.org/2000/svg" width="101" height="135" viewBox="0 0 110.94658 150"><defs><style>.cls-1{fill:#fff;}.cls-2{fill:#17403e;}</style></defs><g id="Layer_3"><rect class="cls-1" width="110.94658" height="150" rx="13.00531" ry="13.00531"/><g id="Layer_1-2"><g><path class="cls-2" d="M48.5596,71.86671c.0068-.05865,.01387-.11306,.01932-.16764,.03106-.3113,.06134-.62268,.09266-.93396,.03108-.30887,.06337-.61762,.09461-.92647,.02616-.25858,.05136-.51726,.07738-.77586,.02674-.26577,.05413-.53148,.08089-.79725,.02628-.26099,.05192-.52204,.0782-.78303,.02677-.26577,.05418-.53147,.08094-.79724,.02628-.26099,.05133-.52211,.07832-.78303,.02773-.26803,.04636-.5376,.0883-.80344,.06982-.44261,.41328-.79456,.84486-.88508,.05857-.01228,.11918-.01522,.17899-.02097,.02387-.00229,.04814-.00053,.07222-.00053,4.83652,0,9.67304,.00004,14.50957-.00034,.10172,0,.20251,.00597,.29974,.03677,.35826,.11352,.5608,.36459,.63613,.72608,.03301,.15843,.00975,.31655-.00605,.47453-.02179,.2179-.04409,.43575-.06617,.65362-.02694,.26575-.05401,.53148-.08078,.79725-.02147,.2131-.0424,.42626-.06389,.63937-.0268,.26576-.05408,.53148-.08087,.79724-.02607,.25859-.05164,.51724-.07769,.77583-.02702,.26816-.05449,.53628-.08152,.80444-.02583,.2562-.05124,.51244-.07705,.76864-.02726,.27055-.05493,.54107-.08211,.81163-.01057,.10524-.02028,.21057-.03135,.32589,.03005,.00112,.05759,.00302,.08512,.00303,.48895,.00019,.9779-.00011,1.46685,.00028,.17629,.00014,.34479,.03571,.49919,.12298,.26669,.15074,.41895,.37763,.44053,.68532,.00484,.069-.00447,.13937-.01115,.20874-.03571,.37129-.07302,.74243-.10904,1.1137-.02649,.27307-.05142,.54629-.07783,.81937-.03128,.32337-.0637,.64663-.09506,.96999-.02625,.27068-.05143,.54146-.07757,.81215-.0266,.27546-.05396,.55085-.08065,.82631-.02135,.22038-.04201,.44082-.06332,.6612-.02687,.27786-.05424,.55567-.08113,.83353-.02132,.22038-.04205,.44081-.06338,.66119-.0269,.27786-.05429,.55566-.08117,.83352-.02132,.22038-.042,.44082-.0633,.6612-.02686,.27786-.05421,.55567-.0811,.83353-.02133,.22038-.0421,.44081-.06342,.66119-.02688,.27785-.05422,.55567-.0811,.83352-.02132,.22038-.04179,.44084-.06349,.66118-.02193,.22267-.0408,.44577-.06875,.6677-.02298,.18251-.11045,.33769-.23583,.47004-.22241,.23476-.49632,.34838-.82046,.34053-.07698-.00186-.15407,.00091-.2311,.00091-6.47921,.00006-12.95841,.00009-19.43762-.00031-.08474,0-.16818,.00436-.24977,.02964-.30358,.09406-.49234,.38408-.46077,.70885,.02849,.29303,.27894,.5437,.57837,.57771,.03337,.00379,.06735,.00311,.10104,.00311,6.54906,.00012,13.09811,.00014,19.64717,.00004,.30348,0,.60696-.00174,.91044-.001,.04279,.00011,.08731,.00397,.12802,.01615,.12184,.03643,.2018,.15468,.19564,.28093-.00635,.13027-.09938,.23956-.2272,.26382-.03524,.00669-.0717,.00944-.10762,.00962-.38053,.0019-.76107,.004-1.1416,.00402-6.46234,.00023-12.92469,0-19.38703,.00076-.23914,.00003-.4627-.05148-.6693-.173-.44138-.2596-.67204-.76202-.58622-1.27693,.08165-.48988,.47754-.89635,.97051-.98937,.10096-.01905,.20554-.0265,.30846-.02652,4.52581-.00126,9.05162-.00109,13.57743-.00109,2.01843,0,4.03686-.00031,6.05529,.00071,.1108,.00006,.21534-.01614,.3125-.07124,.11997-.06804,.19988-.16213,.21269-.30591,.02028-.22771,.04387-.45512,.06606-.68266,.0271-.27784,.05437-.55565,.08125-.83351,.02132-.22038,.04196-.44082,.06327-.6612,.02687-.27786,.05427-.55567,.08116-.83352,.02132-.22038,.04202-.44081,.06336-.66119,.02689-.27786,.05432-.55566,.0812-.83352,.02132-.22038,.04198-.44082,.06329-.6612,.02687-.27786,.05424-.55567,.08113-.83352,.02132-.22038,.04205-.44081,.06337-.66119,.02688-.27786,.05423-.55567,.08112-.83352,.02132-.22038,.04207-.44081,.06339-.66119,.02687-.27786,.0542-.55567,.08108-.83352,.02132-.22038,.04211-.44081,.06343-.66119,.02688-.27786,.05417-.55567,.08105-.83353,.02132-.22038,.04215-.44081,.06345-.66119,.02199-.22756,.04217-.45532,.06727-.68253,.01356-.12269-.03298-.21051-.13639-.27153-.05917-.03491-.1242-.05366-.19262-.05376-.53712-.00079-1.07424-.00054-1.61136-.00042-.00932,0-.01864,.00234-.03555,.0046-.01024,.09503-.02093,.1898-.0306,.28469-.03268,.3208-.06517,.64162-.09738,.96247-.0262,.261-.05161,.52208-.07785,.78308-.02649,.26337-.05375,.52667-.08034,.79003-.02611,.25859-.05166,.51724-.07773,.77584-.02704,.26816-.05456,.53627-.08159,.80443-.02583,.2562-.05115,.51244-.07696,.76864-.02725,.27056-.05495,.54108-.08219,.81164-.0258,.2562-.05112,.51245-.07694,.76864-.02726,.27056-.05507,.54106-.08225,.81162-.02141,.21311-.04196,.4263-.06341,.63941-.02651,.26337-.05374,.52668-.08029,.79004-.02631,.26099-.05293,.52195-.07794,.78306-.01425,.14884-.02964,.29738-.08813,.43691-.15512,.37004-.42038,.61023-.82109,.68485-.0727,.01354-.14862,.01351-.22305,.01353-2.15331,.00067-4.30662,.00054-6.45994,.00054-2.6808,0-5.3616-.00006-8.0424,.00019-.11126,.00001-.22169-.00514-.32776-.04233-.3426-.12015-.53716-.36691-.61003-.7166-.03302-.15844-.01037-.31658,.00543-.47456,.02635-.2634,.05361-.5267,.08038-.79005,.02749-.27053,.05496-.54107,.08223-.81162,.02558-.2538,.05077-.50764,.07634-.76144,.0275-.27296,.05545-.54587,.08283-.81883,.02618-.261,.05162-.52207,.07787-.78306,.02649-.26338,.05374-.52668,.08033-.79004,.02611-.25859,.0517-.51724,.07775-.77584,.02702-.26816,.05445-.53627,.08148-.80443,.02583-.2562,.05125-.51244,.07708-.76864,.02727-.27055,.05494-.54107,.08218-.81163,.02579-.2562,.05136-.51242,.07683-.76866,.02047-.20595,.04143-.41185,.06032-.61794,.00437-.04772,.00378-.09628,.00096-.14419-.00835-.14185-.09172-.22415-.23403-.23394-.012-.00083-.02407-.00075-.03611-.00075-.34925-.00002-.69851,.00147-1.04775-.00077-.12615-.00081-.23067,.04104-.31437,.13431-.04592,.05118-.07723,.10967-.08422,.17991-.01692,.17001-.03512,.33989-.05243,.50986-.02779,.27292-.05552,.54585-.08283,.81883-.02635,.26341-.05177,.52691-.07825,.7903-.02647,.26338-.05406,.52664-.08058,.79001-.02628,.26099-.05158,.52208-.07781,.78307-.0267,.26578-.05422,.53147-.08099,.79724-.02604,.2586-.0514,.51726-.07739,.77586-.02695,.26816-.05448,.53627-.08144,.80443-.026,.2586-.05142,.51726-.07741,.77586-.02695,.26817-.05446,.53629-.08139,.80446-.02621,.261-.0518,.52206-.07803,.78305-.02671,.26577-.05405,.53148-.08077,.79725-.02625,.26099-.05182,.52206-.07816,.78304-.0186,.18435-.03503,.36899-.05799,.55281-.01661,.13303-.10481,.22402-.22754,.24866-.15533,.03119-.30158-.06886-.33369-.22446-.0146-.07074-.00006-.13907,.00668-.20806,.02668-.27303,.05487-.5459,.08263-.81882,.02703-.26574,.05443-.53144,.08128-.79721,.02564-.2538,.05063-.50767,.07614-.76149,.02743-.27296,.05523-.54588,.08268-.81883,.02071-.20592,.04097-.41188,.06168-.6178,.02749-.27328,.05547-.54653,.08281-.81983,.02635-.26341,.05179-.5269,.07827-.79029,.02647-.26338,.05397-.52665,.08056-.79002,.02587-.25619,.051-.51246,.07674-.76866,.02718-.27057,.05486-.54109,.08204-.81166,.02598-.2586,.05142-.51726,.07742-.77586,.02696-.26816,.05451-.53627,.08143-.80444,.02621-.261,.05134-.52211,.07817-.78304,.0123-.11962,.02031-.2403,.04273-.35814,.07371-.38752,.40482-.69288,.79773-.74112,.06193-.0076,.12469-.01141,.18709-.01164,.31793-.00114,.63588-.00119,.95381,0,.06961,.00026,.13984,.00255,.20862,.01221,.06841,.00961,.13536,.02969,.21373,.04766h0Zm9.03039-7.1009h-6.3152c-.32756,0-.65514-.0015-.98267,.00144-.05632,.00051-.11756,.00902-.16777,.03253-.17768,.08318-.28635,.22562-.31621,.41997-.02081,.13541-.02994,.27263-.04369,.40911-.02606,.25859-.05151,.51723-.07755,.77582-.027,.26815-.05452,.53625-.08156,.8044-.02607,.25859-.05165,.51722-.07773,.7758-.0268,.26576-.05414,.53146-.08086,.79723-.026,.25859-.05135,.51725-.07731,.77584-.02741,.27295-.05531,.54586-.0828,.81881-.02556,.2538-.0507,.50764-.0763,.76143-.02728,.27054-.05501,.54104-.08228,.81158-.02583,.25619-.05116,.51243-.07699,.76863-.02704,.26815-.05456,.53625-.0816,.80439-.02607,.25858-.05163,.51722-.0777,.7758-.0268,.26576-.05412,.53147-.0809,.79723-.02147,.21309-.04227,.42625-.06374,.63934-.02678,.26576-.05415,.53146-.08087,.79723-.026,.25859-.05128,.51726-.07728,.77585-.0272,.27055-.05504,.54104-.08232,.81158-.02583,.25619-.05113,.51243-.07696,.76862-.02704,.26815-.05459,.53625-.08162,.80441-.02606,.25858-.05156,.51722-.07763,.7758-.0268,.26576-.05401,.53148-.08103,.79722-.02239,.22024-.04548,.44042-.06691,.66076-.01374,.14128-.03271,.28264-.03567,.42425-.00491,.23454,.13753,.37338,.37071,.37339,4.85081,.00011,9.70162,.00009,14.55243-.00008,.02641,0,.05315-.00025,.07918-.00415,.20852-.03124,.39697-.23136,.42381-.45493,.0218-.18155,.03849-.36372,.05684-.54568,.02607-.25858,.05139-.51724,.07739-.77583,.0272-.27055,.05497-.54105,.08223-.8116,.02581-.25619,.05114-.51242,.07694-.76861,.02724-.27055,.0549-.54106,.08216-.81161,.02581-.25619,.05116-.51243,.07703-.76861,.02683-.26575,.05424-.53144,.08103-.7972,.02631-.26098,.052-.52202,.07827-.783,.02676-.26576,.05409-.53146,.08082-.79723,.026-.25859,.05134-.51725,.07735-.77584,.02721-.27055,.05502-.54105,.08228-.8116,.0258-.25615,.05105-.51236,.07685-.76852,.02724-.27055,.05498-.54105,.08224-.8116,.02581-.25619,.05112-.51243,.07695-.76862,.02703-.26815,.05458-.53624,.08162-.80439,.02607-.25858,.05163-.51722,.0777-.7758,.0268-.26576,.0541-.53146,.08089-.79722,.02149-.21309,.04237-.42624,.06383-.63933,.02678-.26576,.05409-.53147,.0808-.79724,.02599-.25859,.05129-.51725,.07729-.77584,.0272-.27055,.05484-.54106,.08235-.81159,.02191-.21546,.04494-.43081,.06544-.6464,.01001-.1053,.02359-.21125,.0211-.31656-.0049-.20692-.1464-.33866-.35171-.33936-.01927-.00007-.03854-.00001-.05781-.00001h-7.23286Z"/><path class="cls-2" d="M53.51803,67.8857c.42865,0,.85729-.00031,1.28594,.00047,.04308,.00008,.08745,.00137,.12898,.01137,.12858,.03096,.21483,.14161,.2155,.27336,.00022,.04316,.00084,.08836-.0108,.12918-.03876,.13587-.03813,.27619-.05174,.41461-.0405,.41193-.07677,.82428-.11423,1.23651-.03136,.34513-.06161,.69036-.09319,1.03547-.03597,.39303-.07295,.78597-.10927,1.17898-.00532,.05753-.00875,.11523-.01416,.17274-.01481,.15724-.14008,.28231-.30006,.28774-.12491,.00424-.25031-.00296-.37539-.00768-.28873-.01091-.57739-.02349-.86609-.03526-.32719-.01334-.65439-.02648-.98158-.03983-.1275-.0052-.25515-.00841-.38245-.01672-.14827-.00968-.24175-.08893-.27492-.23179-.0101-.04348-.01636-.08987-.01315-.13411,.02513-.34564,.05316-.69107,.07996-1.03659,.0214-.27594,.04209-.55195,.06354-.82789,.02685-.34552,.05437-.69098,.08117-1.0365,.02159-.27835,.04225-.55677,.0639-.83511,.00765-.09835,.01352-.19703,.02636-.29474,.01965-.14947,.12594-.24597,.27631-.2569,.03117-.00227,.06256-.00204,.09385-.00205,.42384-.00012,.84767-.00008,1.27151-.00008v.01483Zm1.01485,.58279c-.07237-.01813-2.04386-.0275-2.1108-.01025l-.27224,3.50936,2.05549,.08248,.32756-3.58159Z"/><path class="cls-2" d="M56.38173,76.0081c1.59163,0,3.18326,0,4.77489,.00006,.03852,0,.07716-.00092,.11554,.00169,.14921,.01012,.26344,.1252,.26994,.27043,.00656,.14652-.09501,.2702-.24414,.29234-.04967,.00737-.10072,.00746-.15114,.00747-2.99785,.00032-5.9957,.00037-8.99355,.00011-.20219-.00002-.4044-.00156-.60656-.00483-.0476-.00077-.09714-.00472-.14214-.01883-.12841-.04026-.20363-.1613-.19117-.29679,.01168-.1271,.11256-.23335,.24219-.24978,.05229-.00663,.1057-.00592,.1586-.00593,1.58918-.00028,3.17836-.00023,4.76754-.00023v.00429h0Z"/><path class="cls-2" d="M56.12851,78.632c-1.3125,0-2.62501,0-3.93751,0-.29138,0-.58276,.00019-.87414-.00043-.03597-.00008-.07237-.00193-.10782-.00764-.14795-.02383-.24882-.14858-.24081-.29536,.00777-.14225,.11985-.25583,.2657-.26686,.04553-.00344,.09146-.00219,.1372-.00219,1.8688,0,3.73759,.00014,5.60639,.0002,1.30769,.00004,2.61537,0,3.92306,.00008,.03852,0,.0772-.00098,.11554,.00199,.14855,.01152,.26156,.12883,.2659,.27429,.0043,.144-.09577,.26512-.24124,.28779-.04489,.00699-.09109,.0078-.13669,.00782-1.59186,.00037-3.18372,.00031-4.77559,.00031h0Z"/><path class="cls-2" d="M56.61726,74.56167c-1.39663,0-2.79327-.00005-4.18991,.00005-.2119,.00002-.4238,.00158-.63569,.0004-.04036-.00023-.08236-.00454-.1207-.01636-.12171-.03751-.20231-.15708-.19488-.28161,.00781-.13095,.10037-.23937,.22841-.26295,.04229-.00779,.08611-.01008,.12924-.01018,.68383-.00162,1.36765-.00328,2.05148-.00338,2.5019-.00036,5.00381-.00015,7.50571-.00009,.03611,0,.07239-.00127,.10831,.00162,.1613,.01295,.27643,.13428,.27517,.28838-.00124,.15071-.1154,.26926-.27381,.28224-.04069,.00334-.08182,.00182-.12275,.00182-1.58687,.00007-3.17373,.00006-4.7606,.00006h0Z"/><path class="cls-2" d="M59.14585,68.52285c-1.01138,0-2.02276,.0002-3.03413-.00063-.05009-.00004-.10182-.00271-.14992-.01519-.12369-.03209-.20789-.14746-.20653-.27312,.00138-.12649,.08689-.23965,.21094-.27002,.04839-.01184,.09999-.01459,.15014-.01463,1.14382-.00078,2.28764-.00061,3.43146-.00061,.87653,0,1.75306-.00009,2.62958,.00037,.04073,.00002,.0823,.00069,.12204,.00843,.147,.02862,.24585,.1519,.23761,.2919-.0086,.14599-.11975,.25832-.27043,.2715-.03588,.00314-.07219,.00194-.1083,.00194-1.00415,.00009-2.00831,.00007-3.01246,.00006h0Z"/><path class="cls-2" d="M58.63728,72.53941c-1.00897,0-2.01794,.00023-3.02691-.00065-.05247-.00005-.10672-.00271-.15703-.01595-.12064-.03174-.20259-.14395-.2039-.26787-.00133-.1254,.08358-.24163,.20664-.27335,.04819-.01242,.09988-.01569,.14997-.01572,1.3172-.00081,2.6344-.00066,3.9516-.00066,.70556,0,1.41111-.00012,2.11667,.0004,.0407,.00003,.08227,.00109,.12196,.00903,.14383,.02879,.24053,.14861,.23512,.28679-.00569,.14553-.11588,.26052-.26617,.27547-.0382,.0038-.07698,.00241-.11549,.00241-1.00415,.00011-2.00831,.00009-3.01246,.00008h0Z"/><path class="cls-2" d="M58.91903,69.95134c1.00169,0,2.00339-.00005,3.00508,.00017,.0433,0,.08694-.00047,.12983,.00447,.1436,.01655,.25125,.13729,.25217,.2798,.0009,.13956-.10198,.26025-.24217,.28104-.04029,.00597-.08156,.00733-.12239,.00734-2.01543,.00034-4.03086,.00034-6.04629,0-.04323,0-.08696-.00112-.1296-.00745-.14002-.02076-.24288-.14212-.24162-.28153,.00126-.13965,.1058-.25972,.24571-.27825,.04511-.00598,.09129-.00536,.13698-.00538,1.0041-.00027,2.0082-.00021,3.01231-.00021h0Z"/></g></g></g></svg>