<svg viewBox="0 0 14 12" width="1.4rem" height="1.2rem" fill="none" xmlns="http://www.w3.org/2000/svg">
<path d="M14 1.67052C13.4752 1.90162 12.9187 2.05302 12.3492 2.11969C12.9496 1.76182 13.3994 1.19793 13.615 0.533024C13.0497 0.865391 12.4325 1.10007 11.7892 1.22719C11.3558 0.767864 10.7833 0.463961 10.16 0.362394C9.53668 0.260826 8.89729 0.367242 8.3405 0.665215C7.78371 0.963188 7.34048 1.43615 7.07923 2.01108C6.81798 2.58602 6.75324 3.23097 6.895 3.84636C5.7532 3.78885 4.6362 3.49225 3.61627 2.97576C2.59635 2.45927 1.69623 1.73438 0.974167 0.848024C0.607479 1.47996 0.495061 2.22777 0.659742 2.93958C0.824424 3.6514 1.25386 4.27385 1.86083 4.68052C1.41262 4.66615 0.974442 4.5441 0.583333 4.32469C0.574338 4.99073 0.796827 5.63924 1.21281 6.15949C1.62879 6.67973 2.21246 7.03944 2.86417 7.17719C2.44189 7.29251 1.99865 7.30849 1.56917 7.22386C1.75192 7.79506 2.10902 8.29466 2.5903 8.65249C3.07158 9.01031 3.65287 9.20837 4.2525 9.21886C3.04483 10.1543 1.51597 10.5738 0 10.3855C1.31357 11.2298 2.84269 11.6774 4.40417 11.6747C5.5107 11.6825 6.60716 11.4641 7.62623 11.0329C8.64531 10.6016 9.56548 9.96664 10.3303 9.16689C11.095 8.36715 11.6883 7.41953 12.0736 6.38221C12.4589 5.34489 12.6281 4.23977 12.5708 3.13469C13.129 2.73372 13.6127 2.2382 14 1.67052Z" fill="currentColor"/>
</svg>
